<svg width="74" height="72" viewBox="0 0 74 72" fill="none" xmlns="http://www.w3.org/2000/svg">
<path d="M63.3843 40.6177C65.7986 25.7415 55.6962 11.7247 40.82 9.3104C25.9437 6.89608 11.9269 16.9985 9.51263 31.8747C7.09831 46.751 17.2007 60.7677 32.0769 63.1821C46.9532 65.5964 60.97 55.494 63.3843 40.6177Z" stroke="#3D5224" stroke-width="1.16498" stroke-miterlimit="10"/>
<path d="M31.4575 9.72656C32.7517 10.1899 33.2144 11.7823 33.27 13.1558C33.3255 14.5294 33.1867 16.0159 33.9396 17.1661C35.1346 18.9911 37.8573 18.9745 39.5527 20.3474C40.8397 21.3891 41.3804 23.1567 41.2587 24.8078C41.1371 26.459 40.4365 28.0136 39.6023 29.4434C38.9591 30.5466 38.2175 31.6319 37.9538 32.8819C37.69 34.1318 38.0503 35.625 39.1647 36.249C40.3638 36.9199 41.8378 36.3567 43.2041 36.2113C46.0027 35.9132 48.6341 37.4467 51.0302 38.9234C52.5062 39.8329 54.1032 40.8997 54.5421 42.5773C55.2097 45.1327 52.9147 47.3729 51.5266 49.6202C49.7142 52.5544 49.3863 56.3459 50.6184 59.561" stroke="#3D5224" stroke-width="1.16498" stroke-miterlimit="10" stroke-linecap="round" stroke-linejoin="round"/>
<path d="M54.4564 15.957C53.2455 17.3669 52.0345 18.7768 50.8236 20.1867C49.7164 21.4757 48.5372 23.1764 49.2266 24.7298C49.994 26.4589 52.5402 26.6651 53.5462 28.2674C54.149 29.2272 54.0532 30.4652 54.4518 31.5261C55.052 33.1257 56.7276 34.1212 58.4144 34.3942C60.1013 34.6671 61.8212 34.3426 63.4988 34.02" stroke="#3D5224" stroke-width="1.16498" stroke-miterlimit="10"/>
<path d="M15.5838 18.998C15.3399 20.2004 15.1476 21.4226 15.3175 22.6315C15.5157 24.0474 16.3123 25.4659 17.6349 26.0079C18.1201 26.2069 18.6614 26.2849 19.0911 26.5856C19.8492 27.1157 20.0264 28.1475 20.5334 28.9216C21.6333 30.6005 24.0115 30.7677 26.0071 30.5516C28.0026 30.3354 30.1978 29.958 31.8754 31.0605C32.8536 31.7037 33.4776 32.752 34.0441 33.7766C34.8313 35.2004 35.5915 36.8779 35.0085 38.3969C34.4228 39.9225 32.621 40.8247 32.3196 42.431C32.0955 43.626 32.8166 44.8205 33.7493 45.6004C34.682 46.3804 35.8215 46.8636 36.8467 47.5173C37.8719 48.1704 38.837 49.0832 39.0796 50.2743C39.3235 51.4714 38.8039 52.7841 39.2911 53.9045C39.6949 54.8339 40.6679 55.3501 41.4697 55.9701C43.3331 57.4118 44.462 59.7576 44.4257 62.1134" stroke="#3D5224" stroke-width="1.16498" stroke-miterlimit="10" stroke-linecap="round" stroke-linejoin="round"/>
<path d="M38.8706 1.06641C57.2099 2.3137 71.7002 17.5847 71.7002 36.2406C71.7002 39.3862 71.2884 42.4354 70.5157 45.3372" stroke="#3D5224" stroke-width="1.16498" stroke-miterlimit="10"/>
<path d="M68.5454 44.567L72.2357 45.8982C72.9251 46.1468 73.0844 47.0471 72.5252 47.5203C70.8416 48.9461 67.969 51.2206 67.421 50.6277C66.8677 50.0281 67.0958 47.0537 67.2776 45.3556C67.343 44.7435 67.9663 44.3581 68.5454 44.567Z" stroke="#3D5224" stroke-width="1.16498" stroke-miterlimit="10"/>
<path d="M31.8938 71.0669C13.6767 68.6087 0.230129 52.4116 1.46487 33.7967C1.67308 30.6583 2.28582 27.6428 3.24889 24.7986" stroke="#3D5224" stroke-width="1.16498" stroke-miterlimit="10"/>
<path d="M5.16326 25.6972L1.56943 24.124C0.89786 23.8299 0.79871 22.9217 1.38766 22.4861C3.16177 21.1747 6.17921 19.0958 6.68619 19.7238C7.19846 20.3583 6.7741 23.311 6.48062 24.9939C6.37486 25.6007 5.72709 25.9444 5.16326 25.6972Z" stroke="#3D5224" stroke-width="1.16498" stroke-miterlimit="10"/>
</svg>
