<svg width="69" height="71" viewBox="0 0 69 71" fill="none" xmlns="http://www.w3.org/2000/svg">
<path d="M23.6489 3.44708L13.4787 6.91516L6.98936 15.7237L0.5 24.5322V35.4045V46.2556L7.26596 54.979L14.0106 63.7024L23.9043 67.0428C29.3511 68.8726 33.9894 70.3832 34.2234 70.3832C34.6915 70.4045 54.9681 63.8726 55.2234 63.6386C55.3085 63.5535 58.2447 59.6173 61.7553 54.8726L68.1596 46.2556V35.2556V24.2343L66.1809 21.6386C60.2234 13.7875 54.8404 6.68112 54.7553 6.53219C54.5638 6.27687 34.8617 -0.0210037 34.2872 0.000274658C34.0106 0.000274658 29.2234 1.55347 23.6489 3.44708ZM38.117 4.02155C39.9894 5.46836 41.5213 6.68112 41.5 6.7024C41.4575 6.74495 31.4149 6.14921 27.5426 5.89389L26.6064 5.83006L30.4149 3.46836C32.5 2.17049 34.3298 1.14921 34.4574 1.23431C34.5851 1.29814 36.2234 2.55347 38.117 4.02155ZM44.8617 4.3407C48.0319 5.36198 50.6915 6.25559 50.7766 6.36198C50.8617 6.44708 49.266 6.57474 47.2234 6.65985L43.5 6.80878L40.6702 4.63857C36.9681 1.78751 36.9894 1.80878 38.1596 2.19176C38.6915 2.36198 41.7128 3.3407 44.8617 4.3407ZM29.5426 2.7024C29.4149 2.80878 28.3085 3.53219 27.0319 4.31942L24.7553 5.72368L21.8404 6.04282C20.2234 6.21304 18.9043 6.31942 18.8617 6.29814C18.8191 6.25559 29.3723 2.57474 29.6489 2.55347C29.6915 2.53219 29.6489 2.61729 29.5426 2.7024ZM34.3298 7.31942C37.6702 7.51091 40.7128 7.7024 41.0957 7.76623C41.7553 7.87261 41.5851 8.02155 35.7766 12.6386C32.4574 15.2769 29.7128 17.4258 29.6489 17.4258C29.5426 17.4258 25.8192 7.23431 25.8192 6.93644C25.8192 6.83006 26.3723 6.80878 27.0532 6.87261C27.7128 6.93644 30.9894 7.14921 34.3298 7.31942ZM22.8404 7.27687C22.6702 7.44708 20.3723 9.36197 17.734 11.5747C15.0957 13.7662 12.734 15.7662 12.4787 16.0003C12.0532 16.3833 12.0957 16.0854 13.0745 12.2981C13.6702 10.0215 14.2234 8.08538 14.3298 8.00027C14.4787 7.83006 20.6915 7.08538 22.4149 7.02155C23.0319 7.00027 23.0957 7.04282 22.8404 7.27687ZM25.9468 10.6386C26.6064 12.4471 27.4574 14.8088 27.8617 15.9152L28.5851 17.8939L22.7128 17.745C19.4787 17.6598 15.883 17.5322 14.7128 17.4471L12.5851 17.3194L18.6064 12.2769C21.9043 9.48964 24.6489 7.25559 24.6915 7.27687C24.7128 7.31942 25.2872 8.83006 25.9468 10.6386ZM55.6489 11.2556C56.5638 13.2981 57.2872 15.0215 57.266 15.1067C57.2234 15.1705 54.5426 13.596 51.2872 11.6173C48.0532 9.63857 45.4362 7.93644 45.5213 7.87261C45.6702 7.7024 49.6277 7.48964 52.0745 7.51091L53.9894 7.53219L55.6489 11.2556ZM45.734 16.1492C47.1596 20.362 48.3085 23.8088 48.2872 23.8088C48.1596 23.8088 30.6489 18.2981 30.6064 18.2343C30.5213 18.1279 42.9468 8.31942 43.0532 8.4258C43.0957 8.46836 44.3085 11.9577 45.734 16.1492ZM51.2021 12.8513C54.8192 15.0428 57.6915 16.9152 57.5851 17.0003C55.5426 18.8301 49.5426 23.5747 49.4149 23.4471C49.3298 23.362 48.2021 20.1705 46.9255 16.362C45.6277 12.5535 44.5 9.25559 44.4149 9.04282C44.3298 8.80878 44.3511 8.68112 44.4575 8.74495C44.5638 8.80878 47.6064 10.6386 51.2021 12.8513ZM11.5213 14.0641L10.6277 17.5535L7.64894 19.5535C6.01064 20.6598 4.39362 21.7662 4.05319 21.979C3.67021 22.2343 5.07447 20.1918 7.8617 16.4045C10.2872 13.1067 12.3085 10.4471 12.3511 10.4896C12.3936 10.5322 12.0319 12.1492 11.5213 14.0641ZM60.5 15.9364C62.3936 18.4471 63.7766 20.362 63.5638 20.1705C59.0319 16.4258 59.1809 16.5747 58.0532 14.0003C56.883 11.3833 56.7766 11.1067 56.9255 11.2556C56.9894 11.3194 58.6064 13.4258 60.5 15.9364ZM60.4787 25.8513C61.5426 30.0641 62.4149 33.596 62.4149 33.6598C62.4149 33.745 60.1809 32.1492 57.4787 30.1279C54.7553 28.1067 51.9681 26.0428 51.2872 25.5535L50.0745 24.6386L54.1596 21.2556C56.4149 19.3833 58.3085 17.9364 58.3936 18.0215C58.4575 18.1067 59.3936 21.6173 60.4787 25.8513ZM21.6702 18.7237C25.1596 18.8301 28.0745 18.979 28.117 19.0003C28.1596 19.0641 17.9255 33.0003 16.9681 34.1918C16.9468 34.2343 16.5851 33.1918 16.1596 31.8513C15.734 30.5322 14.5851 26.979 13.6064 23.9577L11.8191 18.4896H13.5638C14.5 18.4896 18.1596 18.596 21.6702 18.7237ZM63.3936 21.5109C65.883 23.6598 66.8617 24.6173 66.7766 24.8513C65.5426 28.2343 63.5638 33.1279 63.4575 33.0003C63.266 32.8088 59.6489 18.4896 59.7766 18.4896C59.8404 18.4896 61.4575 19.8513 63.3936 21.5109ZM7.11702 26.4896C5.58511 30.3407 4.30851 33.3407 4.24468 33.1705C4.18085 33.0003 3.58511 31.0854 2.94681 28.9364C2.07447 26.0641 1.81915 24.9577 1.98936 24.7875C2.28723 24.4896 9.73404 19.4045 9.79787 19.4471C9.84043 19.4684 8.62766 22.6386 7.11702 26.4896ZM39.2872 22.1279C43.9255 23.5747 47.734 24.8301 47.734 24.8939C47.734 24.979 44.883 27.1705 41.4149 29.745C37.117 32.9364 35.0532 34.362 34.9468 34.1705C34.7553 33.8513 30.2872 19.7237 30.2872 19.4684C30.2872 19.3833 30.4149 19.3407 30.5638 19.3833C30.6915 19.4471 34.6277 20.6598 39.2872 22.1279ZM15.5 33.2556L16.0106 34.9364L10.6489 34.7875C7.71277 34.7024 5.26596 34.596 5.20213 34.5535C5.15957 34.5109 6.45745 31.0854 8.07447 26.9577L11.0319 19.4684L12.9894 25.5322C14.0745 28.8513 15.2021 32.3407 15.5 33.2556ZM31.6702 27.4896C32.9043 31.4684 33.9043 34.745 33.8404 34.7875C33.7979 34.8301 30.1809 34.8513 25.8404 34.8301L17.9043 34.7662L23.5 27.2556C27.2234 22.213 29.1383 19.8301 29.2234 20.0215C29.3085 20.1705 30.4149 23.5322 31.6702 27.4896ZM56.4362 30.7024C61.2021 34.2556 62.3723 35.213 62.1596 35.4045C62.0106 35.5535 59.1383 37.7875 55.7766 40.3832L49.6489 45.0854V35.3833C49.6489 26.0641 49.6702 25.7024 50.0319 25.979C50.2447 26.1279 53.117 28.2556 56.4362 30.7024ZM48.5851 35.4045C48.5851 40.6173 48.5426 44.8726 48.4787 44.8726C48.4362 44.8726 45.5213 42.745 42.0106 40.1279L35.6489 35.3833L41.9468 30.6811C45.4149 28.0854 48.3298 25.9577 48.4362 25.9577C48.5213 25.9364 48.5851 30.1918 48.5851 35.4045ZM67.0532 39.2343L66.9894 43.1705L65.5213 39.2769C64.7128 37.1492 64.0532 35.2981 64.0532 35.1705C64.0532 35.0428 64.7128 33.2343 65.5213 31.1279L66.9894 27.3194L67.0532 31.2981C67.0745 33.5109 67.0745 37.0641 67.0532 39.2343ZM2.73404 31.8939L3.71277 35.1918L2.64894 38.8088L1.58511 42.4258V35.4258C1.56383 31.5747 1.60638 28.4684 1.64894 28.5109C1.69149 28.5535 2.18085 30.0854 2.73404 31.8939ZM13.3936 35.8513L15.9468 36.0003L13.2872 42.979C11.7979 46.8088 10.5426 49.8939 10.4574 49.8088C10.2872 49.6386 5.18085 36.1705 5.18085 35.9152C5.18085 35.6811 9.7766 35.6598 13.3936 35.8513ZM33.9043 36.0854C33.9043 36.1492 32.8404 39.596 31.5426 43.7237L29.1596 51.2343L28.4787 50.3407C27.1596 48.5747 18.2234 36.4684 18.0745 36.1918C17.9468 36.0003 19.5851 35.9364 25.9043 35.9364C30.3085 35.9364 33.9043 36.0003 33.9043 36.0854ZM41.8617 41.362C45.1809 43.8088 47.8404 45.8939 47.7553 45.9577C47.6915 46.0428 43.7553 47.3194 39.0106 48.8088C34.266 50.2981 30.3298 51.5535 30.266 51.596C30.1809 51.6386 30.734 49.7875 31.4574 47.4684C32.2021 45.1705 33.2872 41.7237 33.9043 39.8088C34.9468 36.5109 35.0106 36.3407 35.4149 36.6173C35.6277 36.7662 38.5426 38.8939 41.8617 41.362ZM22.6064 44.213C25.6489 48.362 28.1383 51.7875 28.0957 51.8088C28.0106 51.8939 11.4787 51.2343 11.3936 51.1492C11.3511 51.1067 12.4787 48.0215 13.9043 44.2981C15.3298 40.5747 16.5851 37.2981 16.6915 37.0215C16.7979 36.745 16.9255 36.5535 16.9681 36.596C17.0106 36.6386 19.5426 40.0641 22.6064 44.213ZM62.4149 36.9152C62.4149 37.1492 58.9681 52.213 58.9043 52.2769C58.7766 52.4258 50.3936 46.3407 50.3936 46.1067C50.3936 45.8939 61.9468 36.8301 62.266 36.8088C62.3511 36.7875 62.4149 36.8513 62.4149 36.9152ZM6.94681 43.745C8.30851 47.3407 9.39362 50.2981 9.37234 50.3194C9.32979 50.362 2.05319 46.0854 1.88298 45.8939C1.73404 45.745 4.15957 37.213 4.35106 37.213C4.41489 37.213 5.58511 40.1492 6.94681 43.745ZM65.2872 41.6386L66.9255 45.9577L66.0106 46.7662C65.5 47.213 63.9681 48.5322 62.5851 49.7237L60.117 51.8939L60.3936 50.6598C60.5638 50.0003 61.2234 47.0428 61.883 44.1279C63.1809 38.3407 63.4787 37.1279 63.5638 37.2343C63.6064 37.2769 64.3723 39.2556 65.2872 41.6386ZM47.266 50.0215C46.6915 51.7024 45.5 55.0641 44.6489 57.5322C43.7979 59.979 43.0319 61.979 42.9255 61.9577C42.4575 61.8513 30.5426 52.6386 30.7766 52.5535C31.6064 52.2556 48.0745 47.0215 48.1809 47.0215C48.266 47.0003 47.8404 48.362 47.266 50.0215ZM54.5 50.6173C56.5213 52.0428 58.117 53.2981 58.0106 53.4045C57.734 53.6811 44.5 61.7024 44.4362 61.6386C44.3723 61.5747 48.266 50.2343 49.1383 47.8939L49.4787 46.979L50.1383 47.4896C50.5213 47.7662 52.4787 49.1705 54.5 50.6173ZM7.69149 50.6173L10.0745 52.0003L11.4574 56.1492C12.2234 58.4258 12.7128 60.1492 12.5426 59.979C12.3723 59.8088 10.2234 57.0428 7.75532 53.8513C3.47872 48.3407 3.32979 48.0854 4.28723 48.6386C4.84043 48.979 6.37234 49.8513 7.69149 50.6173ZM63.5213 50.6598C63.4149 50.8088 62.0106 52.7024 60.3936 54.8726C58.7979 57.0428 57.4362 58.8513 57.3936 58.8939C57.3511 58.9577 57.8617 57.7875 58.5213 56.2981C59.734 53.6811 59.7979 53.5747 61.5638 52.0215C63.2021 50.5747 64.0957 49.9577 63.5213 50.6598ZM21.6277 52.6173C25.3511 52.7875 28.4362 52.9577 28.4787 52.979C28.5426 53.0641 24.8404 63.1705 24.6915 63.2981C24.6277 63.362 13.5851 53.7237 12.4149 52.6173C12.0319 52.2343 12.6064 52.2343 21.6277 52.6173ZM35.7766 58.0003L41.883 62.6386L33.9043 63.213C29.5213 63.5109 25.883 63.745 25.8404 63.7024C25.7553 63.6173 29.5 53.3832 29.6064 53.3832C29.6489 53.3832 32.4149 55.4684 35.7766 58.0003ZM18.0319 59.0215C22.2234 62.7024 23.0319 63.4896 22.6064 63.5322C22.3298 63.5747 20.4787 63.4258 18.4787 63.213L14.8617 62.8513L13.3298 58.3832C12.5 55.9152 11.7979 53.8301 11.7979 53.745C11.7766 53.5109 11.8404 53.5747 18.0319 59.0215ZM57.883 55.0215C57.8404 55.1279 57.0532 56.8939 56.1383 58.9577L54.4787 62.745L51.3723 62.7237C49.6702 62.7024 47.6064 62.6386 46.8192 62.5535L45.3723 62.4258L51.5 58.6598C57.3511 55.0854 58.0745 54.6598 57.883 55.0215ZM41.5426 63.7024C41.4787 63.745 39.8404 65.0215 37.8617 66.5322L34.2872 69.2769L30.4574 67.0215C26.9894 64.9577 26.7128 64.7662 27.3511 64.7024C27.734 64.6598 31.0319 64.4258 34.6489 64.1492C38.2872 63.8726 41.3298 63.6386 41.4362 63.6173C41.5426 63.6173 41.5851 63.6386 41.5426 63.7024ZM50.5851 63.7875C51.0745 63.8939 49.8404 64.362 44.2447 66.1705C40.4149 67.4258 37.3511 68.3832 37.4149 68.2981C37.5 68.2343 38.8617 67.1492 40.4575 65.8939L43.3723 63.6173L46.6702 63.6386C48.4787 63.6386 50.2447 63.7024 50.5851 63.7875ZM22.883 64.6598C24.6277 64.8726 24.8617 64.9577 27.0319 66.2769C28.2872 67.0428 29.1383 67.6173 28.9043 67.5535C28.6702 67.4896 26.5213 66.7662 24.117 65.9577C19.6489 64.4471 19.4787 64.2769 22.883 64.6598Z" fill="#3D5224"/>
</svg>
