<svg width="74" height="74" viewBox="0 0 74 74" fill="none" xmlns="http://www.w3.org/2000/svg">
<path d="M27.0265 34.2833L27.0231 34.2854C22.5489 37.1352 18.4884 41.2931 15.6222 45.596C12.7407 49.9219 11.1421 54.2782 11.412 57.5334C11.8078 61.7675 13.3059 64.3174 15.774 65.4502C17.3819 66.1678 18.3805 66.4523 19.3678 66.3787C20.3695 66.3041 21.4582 65.8539 23.2235 64.841L23.2235 64.8409L23.2334 64.8355C25.1768 63.7623 26.5833 63.1357 28.0455 63.1357C29.5078 63.1357 30.9142 63.7623 32.8576 64.8354L32.8615 64.8376C34.803 65.9261 35.812 66.3623 36.7661 66.3623C37.7202 66.3623 38.7292 65.9261 40.6707 64.8376L40.6771 64.8341L40.6835 64.8306C41.575 64.3552 42.5289 63.9077 43.3633 63.5769C43.7801 63.4117 44.1755 63.2723 44.5235 63.1731C44.8577 63.0779 45.1984 63.0049 45.4867 63.0049C45.7687 63.0049 46.1048 63.0715 46.441 63.1625C46.7896 63.2568 47.1858 63.3908 47.605 63.5532C48.4435 63.878 49.4042 64.3285 50.3054 64.8392L50.3086 64.841C52.074 65.8539 53.1627 66.3041 54.1644 66.3787C55.1517 66.4523 56.1503 66.1678 57.7582 65.4502C60.2262 64.3175 61.7242 61.7678 62.1201 57.5343C62.2947 55.3583 61.6664 52.7623 60.4155 50.0293C59.1681 47.3039 57.3247 44.4935 55.1382 41.9097C50.7402 36.7128 45.0772 32.5731 40.2592 31.7689C38.4166 31.4765 37.4876 31.3424 36.5531 31.3491C35.6179 31.3559 34.6597 31.5039 32.7621 31.825C31.3524 32.098 28.7664 33.1607 27.0265 34.2833ZM44.057 41.7189L44.0571 41.7188L44.0642 41.7235C44.8299 42.2241 45.415 42.6833 45.7658 43.3459C46.1139 44.0034 46.1807 44.7664 46.1807 45.7345C46.1807 46.4298 46.0868 47.2332 45.9339 47.9748C45.7834 48.7048 45.5644 49.4306 45.2879 49.9512C44.6127 51.2655 42.9015 53.1081 41.2475 54.5872C40.4071 55.3388 39.5513 56.0235 38.806 56.5251C38.4341 56.7754 38.077 56.9888 37.7544 57.1422C37.4526 57.2857 37.1012 57.4164 36.7661 57.4164C36.431 57.4164 36.0796 57.2857 35.7778 57.1422C35.4552 56.9888 35.0981 56.7754 34.7262 56.5251C33.9809 56.0235 33.1251 55.3388 32.2847 54.5872C30.6307 53.1081 28.9194 51.2654 28.2443 49.9511C27.9678 49.4305 27.7488 48.7047 27.5983 47.9748C27.4454 47.2332 27.3515 46.4298 27.3515 45.7345C27.3515 44.7664 27.4183 44.0034 27.7664 43.3459C28.1172 42.6833 28.7023 42.2241 29.468 41.7235L29.4679 41.7235L29.4752 41.7189C31.6699 40.3222 34.3816 40.6068 36.3947 42.2929C36.5332 42.406 36.6278 42.4672 36.6934 42.4995C36.7243 42.5147 36.744 42.5211 36.7542 42.5238C36.7593 42.5251 36.7625 42.5256 36.764 42.5258L36.7661 42.526L36.7682 42.5258C36.7697 42.5256 36.7729 42.5251 36.7779 42.5238C36.7882 42.5211 36.8079 42.5147 36.8388 42.4995C36.9044 42.4672 36.999 42.406 37.1375 42.2929C39.1506 40.6068 41.8623 40.3222 44.057 41.7189Z" stroke="#3D5224" stroke-width="1.38806"/>
<rect x="19.4116" y="8.9181" width="11.3297" height="17.2646" rx="5.66484" transform="rotate(-10.7172 19.4116 8.9181)" stroke="#3D5224" stroke-width="1.38806"/>
<rect x="2.85931" y="20.5641" width="11.3297" height="17.2646" rx="5.66484" transform="rotate(-16.1043 2.85931 20.5641)" stroke="#3D5224" stroke-width="1.38806"/>
<rect x="-0.87777" y="0.439175" width="11.3297" height="17.2646" rx="5.66484" transform="matrix(-0.948767 -0.315977 -0.315977 0.948767 70.4282 20.1924)" stroke="#3D5224" stroke-width="1.38806"/>
<rect x="-0.810987" y="0.552862" width="11.3297" height="17.2646" rx="5.66484" transform="matrix(-0.982557 -0.185961 -0.185961 0.982557 51.2255 8.36664)" stroke="#3D5224" stroke-width="1.38806"/>
</svg>
