<svg width="60" height="70" viewBox="0 0 60 70" fill="none" xmlns="http://www.w3.org/2000/svg">
<path d="M45.3412 70H14.2828C11.8287 70 9.83594 67.974 9.83594 65.4702V4.52982C9.83594 2.03488 11.8287 0 14.2828 0H45.3412C47.7953 0 49.7881 2.02603 49.7881 4.52982V17.4646C49.7881 17.7831 49.5358 18.0397 49.2225 18.0397C48.9092 18.0397 48.6568 17.7831 48.6568 17.4646V4.52982C48.6568 2.67189 47.1687 1.15017 45.3412 1.15017H14.2828C12.4553 1.15017 10.9672 2.66304 10.9672 4.52982V65.4702C10.9672 67.3281 12.4553 68.8499 14.2828 68.8499H45.3412C47.1687 68.8499 48.6568 67.337 48.6568 65.4702V38.9813C48.6568 38.6628 48.9092 38.4062 49.2225 38.4062C49.5358 38.4062 49.7881 38.6628 49.7881 38.9813V65.4702C49.7881 67.974 47.7953 70 45.3412 70Z" fill="#3D5224"/>
<path d="M29.8075 66.187C28.041 66.187 26.6138 64.7273 26.6138 62.9401C26.6138 61.1529 28.0497 59.6931 29.8075 59.6931C31.5654 59.6931 32.9926 61.1441 32.9926 62.9401C33.0013 64.7361 31.5654 66.187 29.8075 66.187ZM29.8075 60.8521C28.6675 60.8521 27.7451 61.79 27.7451 62.9489C27.7451 64.1079 28.6675 65.0458 29.8075 65.0458C30.9388 65.0458 31.8613 64.1079 31.8613 62.9489C31.87 61.79 30.9475 60.8521 29.8075 60.8521Z" fill="#3D5224"/>
<path d="M45.7243 56.818H13.8913C13.578 56.818 13.3257 56.5614 13.3257 56.2429V9.98913C13.3257 9.67063 13.578 9.41406 13.8913 9.41406H45.7243C46.0376 9.41406 46.29 9.67063 46.29 9.98913V17.8898C46.29 18.2083 46.0376 18.4649 45.7243 18.4649C45.411 18.4649 45.1586 18.2083 45.1586 17.8898V10.5642H14.457V55.6679H45.1586V39.1499C45.1586 38.8314 45.411 38.5748 45.7243 38.5748C46.0376 38.5748 46.29 38.8314 46.29 39.1499V56.2429C46.29 56.5614 46.0376 56.818 45.7243 56.818Z" fill="#3D5224"/>
<path d="M35.3424 6.22827H33.2016C32.8883 6.22827 32.636 5.9717 32.636 5.6532C32.636 5.33469 32.8883 5.07812 33.2016 5.07812H35.3424C35.6557 5.07812 35.908 5.33469 35.908 5.6532C35.908 5.9717 35.6557 6.22827 35.3424 6.22827ZM31.67 6.22827H24.2644C23.9511 6.22827 23.6987 5.9717 23.6987 5.6532C23.6987 5.33469 23.9511 5.07812 24.2644 5.07812H31.67C31.9833 5.07812 32.2357 5.33469 32.2357 5.6532C32.2357 5.9717 31.9833 6.22827 31.67 6.22827Z" fill="#3D5224"/>
<path d="M59.0646 39.5392H36.0906C35.7773 39.5392 35.5249 39.2826 35.5249 38.9641V25.5604C35.5249 25.2419 35.7773 24.9854 36.0906 24.9854C36.4039 24.9854 36.6562 25.2419 36.6562 25.5604V38.389H58.4989V25.5604C58.4989 25.2419 58.7513 24.9854 59.0646 24.9854C59.3779 24.9854 59.6302 25.2419 59.6302 25.5604V38.9641C59.6302 39.2826 59.3779 39.5392 59.0646 39.5392Z" fill="#3D5224"/>
<path d="M47.5951 35.3985C47.4733 35.3985 47.3427 35.3543 47.247 35.2746L35.7425 26.0027C35.4989 25.808 35.4554 25.4453 35.6468 25.1975C35.8383 24.9498 36.1951 24.9056 36.4388 25.1002L47.5951 34.0891L58.7079 25.1091C58.9515 24.9144 59.3083 24.9498 59.4998 25.1975C59.6912 25.4453 59.6564 25.808 59.4127 26.0027L47.9431 35.2746C47.8474 35.3631 47.7256 35.3985 47.5951 35.3985Z" fill="#3D5224"/>
<path d="M59.0648 39.5386L36.0733 39.5209C35.8384 39.5209 35.6208 39.3705 35.5425 39.1405C35.4642 38.9104 35.5338 38.6539 35.7166 38.5035L43.8445 31.6468C44.0882 31.4433 44.4363 31.4787 44.6364 31.7264C44.8366 31.9741 44.8017 32.3369 44.5581 32.5315L37.6398 38.3707L57.481 38.3884L50.5279 32.62C50.2842 32.4165 50.2494 32.0538 50.4495 31.806C50.6497 31.5583 51.0065 31.5229 51.2501 31.7264L59.4303 38.5123C59.613 38.6627 59.6827 38.9193 59.6043 39.1493C59.5173 39.3882 59.3085 39.5386 59.0648 39.5386Z" fill="#3D5224"/>
<path d="M59.0648 26.1352C58.9429 26.1352 58.8124 26.091 58.7167 26.0114L47.6038 17.0313L36.4475 26.0114C36.2039 26.206 35.8471 26.1706 35.6556 25.9141C35.4642 25.6663 35.5077 25.3036 35.7513 25.1089L47.2558 15.8458C47.4646 15.6777 47.7518 15.6777 47.9606 15.8458L59.4302 25.1089C59.6739 25.3036 59.7174 25.6663 59.5172 25.9141C59.3954 26.0556 59.2301 26.1352 59.0648 26.1352Z" fill="#3D5224"/>
<path d="M51.0326 23.9051H42.6262C42.3129 23.9051 42.0605 23.6485 42.0605 23.33C42.0605 23.0114 42.3129 22.7549 42.6262 22.7549H51.0326C51.3459 22.7549 51.5983 23.0114 51.5983 23.33C51.5983 23.6485 51.3459 23.9051 51.0326 23.9051Z" fill="#3D5224"/>
<path d="M48.0826 26.4092H42.6262C42.3129 26.4092 42.0605 26.1526 42.0605 25.8341C42.0605 25.5156 42.3129 25.259 42.6262 25.259H48.0826C48.3958 25.259 48.6482 25.5156 48.6482 25.8341C48.6482 26.1438 48.3958 26.4092 48.0826 26.4092Z" fill="#3D5224"/>
<path d="M51.0325 28.7722H44.8713C44.5581 28.7722 44.3057 28.5156 44.3057 28.1971C44.3057 27.8786 44.5581 27.6221 44.8713 27.6221H51.0325C51.3458 27.6221 51.5982 27.8786 51.5982 28.1971C51.5982 28.5156 51.3458 28.7722 51.0325 28.7722Z" fill="#3D5224"/>
</svg>
