<svg width="67" height="64" viewBox="0 0 67 64" fill="none" xmlns="http://www.w3.org/2000/svg">
<path d="M1.05999 23C0.259989 21 7.56006 16 17.06 16M1.05999 23L2.02427 29.75M1.05999 23C2.66928 23.9656 4.5272 24.7986 6.55799 25.5M33.06 61.5C32.4256 61.641 31.7565 61.7645 31.06 61.8711M31.06 61.8711V59M31.06 61.8711C29.0612 62.1768 26.8366 62.3422 24.56 62.3757M24.56 62.3757V42.5M24.56 62.3757C22.3905 62.4075 20.1737 62.3195 18.06 62.1187M18.06 62.1187L16.56 42M18.06 62.1187C15.8986 61.9134 13.845 61.5902 12.06 61.1568M12.06 61.1568C9.00381 60.4148 6.73486 59.3497 6.05999 58L2.98856 36.5M12.06 61.1568L9.55999 40.5M2.98856 36.5C3.95751 38.3498 17.1388 43.8829 32.06 41.7436M2.98856 36.5L2.02427 29.75M45.56 37.5C43.5768 38.517 41.5697 39.3417 39.5626 40M39.5626 40L39.06 44M39.5626 40C37.0458 40.8256 34.529 41.3897 32.06 41.7436M32.06 41.7436V46M44.56 44L46.6282 31M48.06 22C45.3883 25.0533 39.7305 27.0141 33.0601 27.8546M48.06 22L46.6282 31M48.06 22C47.832 21.316 47.3315 20.6898 46.6282 20.1196M28.0601 15.5C30.0677 15.5 33.2828 15.7981 36.5601 16.4232M8.06006 25.9857L9.06006 34M8.06006 25.9857C10.4039 26.6943 12.9386 27.241 15.5601 27.6271M8.06006 25.9857C7.54998 25.8315 7.04894 25.6696 6.55799 25.5M15.5601 27.6271L16.56 35.5M15.5601 27.6271C18.4996 28.06 21.5484 28.2911 24.56 28.3224M24.56 28.3224V36.5M24.56 28.3224C27.4722 28.3527 30.3497 28.1961 33.0601 27.8546M33.0601 27.8546V35.5M2.02427 29.75C3.56006 34 28.0601 41 46.6282 31M24.56 1C21.36 3 19.0601 7 20.0601 9.5C21.5601 11.5 23.0601 10.5 24.0601 11.5C25.0601 13 23.8934 15.1667 23.0601 17C22.5601 18.5 23.5601 19.0001 24.56 20C25.36 20.8 24.5601 23 24.0601 24M16.56 9.5C16.16 11.1 18.0807 12.4798 19.0601 13.5C20.5 15 19.0601 16.8333 18.5601 18C17.9988 19.3097 19.7601 19.7 20.5601 20.5C21.3601 21.3 20.5601 23.1667 20.0601 24M27.0601 11C28.5 12 27.3934 14.8333 27.0601 16C26.5271 17.8654 27.7267 18.6667 28.5601 19.5C29.6998 20.6397 29.0601 22.8333 28.5601 24M6.55799 25.5C7.75965 24.3 15.0601 23 18.5601 22.5M42.5601 25.5C40.5601 23.9 34.0601 22.8333 31.0601 22.5M36.5601 16.4232L38.0601 9C39.0601 6 42.5601 5.5 44.5601 6C45.3621 6.1604 46.0837 6.67458 46.6282 7.32974M36.5601 16.4232C39.5744 16.9981 42.6414 17.8496 44.8696 19M44.8696 19L47.5601 10.5C47.8596 9.60151 47.5601 8.45105 46.6282 7.32974M44.8696 19C45.5397 19.346 46.134 19.719 46.6282 20.1196M46.6282 7.32974C50 11 47.4388 16.2464 46.6282 20.1196" stroke="#3D5224"/>
<path d="M48.0598 47.5001L52.0598 21.0001C53.06 16.5 61.56 13 65.5598 18.5001C67.06 21.4999 64.06 22.5004 63.0598 22.0002C61.06 21 61.06 19.5 58.0598 20.0002C55.06 21.0001 52.6666 39.3332 51.4999 48.5M51.4999 48.5C43.0001 45.5 35.06 46.5002 31.0598 49.0002M51.4999 48.5C52.9999 50 53.0598 51.0002 53.0598 51.0002M31.0598 49.0002C30.06 57.5002 36.5478 63.0004 42.0598 63.0002C49.4998 63 53.0598 53.0002 53.0598 51.0002M31.0598 49.0002C30.89 50.6993 32.2791 52.1675 34.56 53.13M53.0598 51.0002C51.7765 51.8108 50.4292 52.4571 49.06 52.9564M34.56 53.13C38.0844 54.6172 43.7381 54.8971 49.06 52.9564M34.56 53.13C34.96 51.8262 44.06 49.0002 49.06 52.9564" stroke="#3D5224"/>
</svg>
