<svg width="65" height="60" viewBox="0 0 65 60" fill="none" xmlns="http://www.w3.org/2000/svg">
<path d="M57.6554 59.4366H7.33649C3.28765 59.4366 0 56.1408 0 52.092V19.3046C0 15.2557 3.29575 11.96 7.33649 11.96H57.6554C61.7042 11.96 64.9919 15.2557 64.9919 19.3046V52.092C65 56.1408 61.7042 59.4366 57.6554 59.4366ZM7.34459 13.126C3.94357 13.126 1.17416 15.8954 1.17416 19.2964V52.0839C1.17416 55.493 3.94357 58.2625 7.34459 58.2625H57.6635C61.0645 58.2625 63.8339 55.493 63.8339 52.0839V19.2964C63.8339 15.8954 61.0645 13.126 57.6635 13.126H7.34459Z" fill="#3D5224"/>
<path d="M64.4171 46.3837H43.9786C43.7519 46.3837 43.5413 46.246 43.4442 46.0355C43.347 45.825 43.3875 45.582 43.5413 45.4039C45.9059 42.7155 47.2015 39.2658 47.2015 35.6948C47.2015 32.1156 45.8978 28.666 43.5413 25.9857C43.3875 25.8156 43.3551 25.5646 43.4442 25.3541C43.5413 25.1435 43.7519 25.0059 43.9786 25.0059H64.4171C64.741 25.0059 65.0002 25.265 65.0002 25.5889V45.7845C65.0002 46.1165 64.741 46.3837 64.4171 46.3837ZM45.2095 45.2095H63.8341V26.18H45.2095C47.2582 28.917 48.3756 32.2452 48.3756 35.6948C48.3675 39.1363 47.2582 42.4725 45.2095 45.2095Z" fill="#3D5224"/>
<path d="M21.0298 46.3834H0.591322C0.267415 46.3834 0.00830078 46.1162 0.00830078 45.8004V25.6048C0.00830078 25.2809 0.267415 25.0217 0.591322 25.0217H21.0298C21.2566 25.0217 21.4671 25.1594 21.5643 25.3699C21.6615 25.5805 21.621 25.8234 21.4671 26.0015C19.1107 28.6819 17.807 32.1315 17.807 35.7107C17.807 39.2736 19.0945 42.707 21.4347 45.3874C21.5481 45.4926 21.6129 45.6465 21.6129 45.8085C21.6129 46.1162 21.3538 46.3834 21.0298 46.3834ZM1.17435 45.2092H19.799C17.7503 42.4722 16.6409 39.1441 16.6409 35.6945C16.6409 32.2448 17.7584 28.9167 19.799 26.1797H1.17435V45.2092Z" fill="#3D5224"/>
<path d="M32.504 51.5742C23.7585 51.5742 16.6406 44.4483 16.6406 35.6947C16.6406 26.933 23.7585 19.8152 32.504 19.8152C41.2575 19.8152 48.3754 26.9411 48.3754 35.6947C48.3673 44.4483 41.2494 51.5742 32.504 51.5742ZM32.504 20.9813C24.3982 20.9813 17.8067 27.5808 17.8067 35.6947C17.8067 43.8005 24.3982 50.4001 32.504 50.4001C40.6097 50.4001 47.2012 43.8005 47.2012 35.6947C47.2012 27.5808 40.6016 20.9813 32.504 20.9813Z" fill="#3D5224"/>
<path d="M32.5043 46.3837C26.6173 46.3837 21.8315 41.5899 21.8315 35.6948C21.8315 29.7997 26.6173 25.0059 32.5043 25.0059C38.3913 25.0059 43.177 29.7997 43.177 35.6948C43.177 41.5899 38.3913 46.3837 32.5043 46.3837ZM32.5043 26.18C27.2651 26.18 22.9976 30.4475 22.9976 35.6948C22.9976 40.9421 27.2651 45.2095 32.5043 45.2095C37.7435 45.2095 42.0109 40.9421 42.0109 35.6948C42.0028 30.4475 37.7435 26.18 32.5043 26.18Z" fill="#3D5224"/>
<path d="M7.42569 22.9246C5.87094 22.9246 4.59961 21.6614 4.59961 20.0986C4.59961 18.5357 5.86284 17.2725 7.42569 17.2725C8.98044 17.2725 10.2518 18.5357 10.2518 20.0986C10.2518 21.6614 8.98044 22.9246 7.42569 22.9246ZM7.42569 18.4466C6.51065 18.4466 5.77377 19.1916 5.77377 20.0986C5.77377 21.0055 6.51065 21.7505 7.42569 21.7505C8.34072 21.7505 9.07762 21.0055 9.07762 20.0986C9.07762 19.1916 8.34072 18.4466 7.42569 18.4466Z" fill="#3D5224"/>
<path d="M48.8855 13.1263H18.576C18.3897 13.1263 18.2116 13.0373 18.0982 12.8834C17.9848 12.7295 17.9605 12.5352 18.0172 12.3571L22.0337 0.396778C22.1146 0.161946 22.3414 0 22.5924 0H44.8691C45.1201 0 45.3468 0.161946 45.4278 0.396778L49.4281 12.3004C49.4605 12.3732 49.4767 12.4542 49.4767 12.5433C49.4686 12.8591 49.2094 13.1263 48.8855 13.1263ZM19.3857 11.9522H48.0677L44.4399 1.16607H23.0054L19.3857 11.9522Z" fill="#3D5224"/>
<path d="M12.1546 13.126H7.51467C7.19077 13.126 6.93164 12.8669 6.93164 12.543V8.10549C6.93164 7.78159 7.19077 7.52246 7.51467 7.52246H12.1546C12.4786 7.52246 12.7377 7.78159 12.7377 8.10549V12.543C12.7377 12.8588 12.4786 13.126 12.1546 13.126ZM8.09771 11.9519H11.5716V8.68853H8.09771V11.9519Z" fill="#3D5224"/>
<path d="M41.7034 13.1258H25.751C25.5647 13.1258 25.3785 13.0367 25.2732 12.8748C25.168 12.7209 25.1356 12.5185 25.2003 12.3403L27.3138 6.36426C27.3948 6.12943 27.6215 5.97559 27.8645 5.97559H39.5899C39.8409 5.97559 40.0596 6.12943 40.1405 6.36426L42.2378 12.2918C42.2702 12.3646 42.2945 12.4537 42.2945 12.5428C42.2864 12.8586 42.0273 13.1258 41.7034 13.1258ZM26.5769 11.9517H40.8693L39.1688 7.14165H28.2693L26.5769 11.9517Z" fill="#3D5224"/>
</svg>
