<svg width="48" height="65" viewBox="0 0 48 65" fill="none" xmlns="http://www.w3.org/2000/svg">
<path d="M23.5334 2.1883C21.9838 4.11626 17.3067 10.0412 12.6818 16.9419C5.29071 27.9669 1.38425 36.4468 1.38425 41.4646C1.38425 53.6789 11.3203 63.6145 23.5334 63.6145C35.7468 63.6145 45.6828 53.6789 45.6828 41.4646C45.6828 36.4468 41.7761 27.9669 34.3852 16.9419C29.7603 10.0412 25.0832 4.11626 23.5334 2.1883ZM23.5334 64.9998C17.2472 64.9998 11.3375 62.5506 6.89245 58.1069C2.44815 53.6613 0 47.752 0 41.4646C0 38.4825 1.22437 34.4659 3.63941 29.5304C5.54758 25.6295 8.20479 21.1328 11.5376 16.1621C17.2015 7.71355 22.9417 0.718826 22.9991 0.650253L23.5334 -0.000244141L24.0679 0.650253C24.1253 0.718826 29.8655 7.71355 35.5295 16.1621C38.8623 21.1328 41.5195 25.6295 43.4276 29.5304C45.8427 34.4659 47.0671 38.4825 47.0671 41.4646C47.0671 47.752 44.6189 53.6613 40.1744 58.1069C35.7295 62.5506 29.8197 64.9998 23.5334 64.9998Z" fill="#3D5224"/>
<path d="M23.3934 22C20.9419 25.2123 18.5276 28.4832 16.5879 31.66M23.3934 22V29.98M23.3934 22C24.5542 23.8904 26.3906 26.2758 28.2271 28.9049M23.3934 53.5C12.4807 50.59 10.9213 44.7955 13.4279 37.96M23.3934 53.5V51.82M23.3934 53.5C33.9649 50.2472 35.4504 44.6328 33.6133 38.8M23.3934 32.92C21.7134 34.6 17.5134 33.76 16.5879 31.66M23.3934 32.92V35.65M23.3934 32.92V29.98M16.5879 31.66L14.9934 35.02C15.3294 38.716 20.7334 38.8 23.3934 38.38M16.5879 31.66C15.2695 33.8194 14.1704 35.9354 13.4279 37.96M23.3934 38.38V43.42M23.3934 38.38V35.65M23.3934 45.94C20.7054 46.276 14.1534 43.42 13.4279 37.96M23.3934 45.94V49.3M23.3934 45.94V43.42M13.4279 37.96C11.4258 43.42 15.9392 50.14 23.3934 51.82M23.3934 51.82V49.3M23.3934 49.3C25.0734 48.964 33.0534 46.36 33.6133 38.8M33.6133 38.8C33.2414 37.6194 32.7334 36.4299 32.1371 35.2491M33.6133 38.8L32.1371 35.2491M32.1371 35.2491C32.2134 38.38 28.0134 43 23.3934 43.42M32.1371 35.2491C31.525 34.037 30.8197 32.8343 30.0731 31.66M30.0731 31.66C30.4413 36.028 26.3334 36.7 23.3934 35.65M30.0731 31.66C29.4755 30.72 28.8513 29.7984 28.2271 28.9049M23.3934 35.65V29.98M23.3934 29.98C24.6534 31.24 27.5934 31.24 28.2271 28.9049" stroke="#3D5224"/>
</svg>
