<svg width="67" height="60" viewBox="0 0 67 60" fill="none" xmlns="http://www.w3.org/2000/svg">
<g clip-path="url(#clip0_100_2961)">
<path d="M10.7105 60.0004C8.28183 60.0004 6.3901 59.5348 4.7577 58.5358C1.42474 56.4929 -0.171097 53.6099 0.0150834 49.9665C0.121472 47.8789 0.994193 45.9851 2.60831 44.3398C3.01558 43.924 3.19677 43.4849 3.19677 42.9166C3.18347 32.949 3.18514 23.1818 3.18846 14.9423C3.18846 12.7155 4.34378 11.1083 6.35519 10.5367C6.56963 10.4754 6.80402 10.4373 7.05004 10.3959C7.17638 10.3743 7.30438 10.3528 7.43736 10.3279L7.8197 10.255V9.86567C7.8197 9.74638 7.8197 9.6304 7.81637 9.51939C7.81471 9.28909 7.81139 9.07204 7.82136 8.86162C7.84796 8.26515 7.88619 7.4566 6.86054 7.04405C6.7475 6.99103 6.52309 6.63149 6.51311 6.39953C6.44828 4.8338 6.43831 3.13719 6.48319 1.21192C6.49483 0.686699 6.9769 0.335446 7.44734 0.260887C7.64017 0.229407 7.85294 0.214495 8.09897 0.214495C9.49532 0.212838 10.8933 0.211182 12.2897 0.211182C13.2804 0.211182 14.2712 0.211182 15.2636 0.214495C16.5004 0.217809 16.9392 0.650248 16.9409 1.86804C16.9409 2.4264 16.9409 2.98641 16.9409 3.54477C16.9409 4.28704 16.9409 5.02931 16.9409 5.77158C16.9442 6.6083 16.6982 7.05565 16.0898 7.31743C15.7307 7.47152 15.5711 7.92384 15.5545 8.17402C15.5478 8.27841 15.5362 8.3861 15.5246 8.49711C15.4747 8.94943 15.4182 9.45974 15.6675 9.87064C15.9052 10.2633 16.3956 10.3843 16.8278 10.4903C16.9475 10.5201 17.0606 10.5483 17.157 10.5781C18.9739 11.1564 20.1159 12.6956 20.1392 14.5943C20.1492 15.4211 20.1475 16.2346 20.1442 17.0962C20.1442 17.4839 20.1425 17.8749 20.1425 18.2725V18.8723L20.7277 18.7282C21.2263 18.6039 21.6918 18.5443 22.1473 18.5443C22.7706 18.5443 23.3574 18.6586 23.9393 18.8906C24.0191 18.922 24.1072 18.9386 24.2002 18.9386C24.4396 18.9386 24.7189 18.8293 24.8968 18.6669C25.683 17.9511 26.7835 17.5402 27.9189 17.5402C28.9828 17.5402 30.0067 17.8998 30.7997 18.5509C30.9127 18.6437 31.0324 18.6752 31.1039 18.6934L31.1288 18.7L31.4081 18.7994L31.6159 18.5907L32.9374 17.2834C33.9747 16.2578 35.0087 15.2339 36.0427 14.2099C36.5463 13.7112 36.9619 13.4677 37.3143 13.4677C37.6667 13.4677 38.0657 13.7344 38.5079 14.2828C39.0265 14.9274 39.4687 15.6315 39.9375 16.3771C40.1486 16.7118 40.3647 17.0581 40.5924 17.4027L40.8401 17.7788L41.2274 17.5485C42.2348 16.9487 43.4433 16.5809 44.7216 16.4831C44.9161 16.4682 45.1106 16.4616 45.3001 16.4616C46.2344 16.4616 47.1171 16.6422 47.9233 16.9968C48.1477 17.0962 48.4153 17.4126 48.5467 17.7341C48.944 18.71 49.0836 19.7902 48.9606 20.9434C48.944 21.1041 48.9473 21.2549 48.9523 21.4007C48.9523 21.4587 48.9556 21.5167 48.9556 21.5747V22.1032L49.4825 22.0419C49.7435 22.0104 50.0045 21.9955 50.2555 21.9955C53.384 21.9955 55.0347 24.33 55.2458 26.4972L55.2841 26.8832L55.6714 26.9197C55.8492 26.9362 56.0288 26.9478 56.21 26.9611C56.5956 26.9876 56.9597 27.0125 57.3121 27.0787C59.0808 27.4151 59.3967 27.768 59.5629 29.6038C59.6876 30.9823 59.528 32.152 59.0625 33.2853L58.8946 33.6945L59.2936 33.8867C59.9751 34.2148 60.0566 34.7632 59.9735 35.7225C59.9003 36.5626 59.8405 37.4208 59.7806 38.2509C59.7541 38.6187 59.7275 38.9882 59.7009 39.361L59.6659 39.8266L60.1331 39.863C61.5793 39.9757 61.955 41.0709 62.3905 42.34L62.442 42.4908C62.6548 43.1055 62.0846 43.6075 61.7272 43.8527L61.5194 43.9936C60.9177 44.4028 60.296 44.827 59.7092 45.3174L58.3577 46.4507L60.0965 46.1392C60.547 46.058 60.9975 45.9785 61.4463 45.8989C62.447 45.7217 63.4494 45.5444 64.4485 45.3588C64.771 45.2992 65.0436 45.271 65.2829 45.271C66.0975 45.271 66.5912 45.551 66.8588 47.0256C66.8854 47.1747 66.932 47.3089 66.9735 47.4299C66.9818 47.4547 66.9918 47.4812 67.0001 47.5061V48.3958C66.7076 49.0486 66.2105 49.3966 65.401 49.5142C64.3736 49.665 63.3663 49.8621 62.3007 50.0709C61.8419 50.1604 61.3748 50.2515 60.8944 50.3426L59.4449 50.6143L60.783 51.2307C60.8545 51.2638 60.9127 51.2937 60.9642 51.3185C61.0773 51.3765 61.1853 51.4295 61.315 51.4627C61.5676 51.5256 61.822 51.5836 62.0763 51.6399C62.5401 51.7443 62.9773 51.8421 63.4062 51.9763C64.1692 52.2132 64.5482 52.8064 64.4468 53.6033C64.3969 53.9976 64.3254 54.4218 64.224 54.9387C64.0728 55.7042 63.5491 56.1615 62.8244 56.1615C62.7146 56.1615 62.6016 56.1516 62.4869 56.1317C60.9044 55.8533 59.3235 55.5717 57.7426 55.2883C56.8483 55.1293 55.954 54.9686 55.0596 54.8095C54.9582 54.7913 54.8652 54.788 54.7754 54.783C54.7388 54.783 54.7022 54.7797 54.6623 54.7764L54.2002 54.7432L54.1587 55.2022C54.1454 55.3563 54.1354 55.5103 54.1254 55.6611C54.1055 55.9693 54.0872 56.2609 54.0357 56.5376C53.6699 58.5142 52.2503 59.785 50.2389 59.9341C50.0294 59.9491 49.7535 59.9673 49.4792 59.9673C44.3094 59.9723 39.1412 59.9756 33.9714 59.9789C26.2233 59.9839 18.4752 59.9888 10.7271 59.9971H10.7088L10.7105 60.0004ZM47.3681 54.6173C47.4894 54.6173 47.772 54.6173 47.8934 55.2254C47.9715 55.618 48.0446 56.0107 48.1178 56.405C48.2159 56.9336 48.3173 57.4787 48.432 58.0172C48.4868 58.2773 48.6846 58.7478 49.0753 58.8605C49.3496 58.9384 49.6322 58.9781 49.9131 58.9781C50.834 58.9781 51.7101 58.5656 52.3168 57.8465C52.8953 57.1606 53.1397 56.2725 52.9884 55.4076C52.6559 53.5122 52.2985 51.5919 51.9528 49.7329C51.6652 48.1887 51.3676 46.5932 51.0883 45.0225C50.7542 43.1552 49.6588 42.0832 48.0829 42.0832C47.5908 42.0832 47.0572 42.1909 46.5003 42.4013C44.9444 42.9895 43.3901 43.5827 41.8358 44.1741L40.0705 44.8468C39.8693 44.923 39.6665 45.0009 39.467 45.0788L38.8021 45.3339L38.8753 45.7183C38.9301 46.005 38.985 46.2833 39.0382 46.5584C39.1612 47.183 39.2759 47.7745 39.3739 48.3693C39.4371 48.757 39.2842 49.0354 38.9733 49.0933C38.9268 49.1016 38.8819 49.1066 38.8403 49.1066C38.5843 49.1066 38.4148 48.931 38.3367 48.583C38.222 48.0711 38.1255 47.5558 38.0208 47.0123C37.9759 46.7721 37.9294 46.5285 37.8795 46.2784L37.7748 45.7432L36.8472 46.0713C36.5829 46.1657 36.3252 46.2568 36.0676 46.3463C35.8831 46.4109 35.7185 46.444 35.5789 46.444C35.3495 46.444 35.2231 46.3612 35.1417 46.1574C35.0519 45.9321 35.1018 45.8161 35.1184 45.778C35.1866 45.6222 35.386 45.4748 35.6803 45.3638L37.8297 44.5436C40.629 43.4766 43.5231 42.3715 46.3773 41.3128C46.9691 41.0924 47.5443 40.9814 48.0862 40.9814C49.0237 40.9814 49.8765 41.3144 50.6196 41.9738C51.0119 42.3218 51.3311 42.7807 51.6685 43.2678C51.8298 43.5015 51.9976 43.7434 52.1788 43.9786L52.4315 44.31L53.6949 43.5694C55.0131 42.7973 56.3729 41.9987 57.731 41.1951C57.8573 41.1206 58.1599 40.9118 58.243 40.5887C58.7084 38.7861 58.9295 37.0629 58.9196 35.3216L58.9162 34.8543H54.1686C53.2793 34.856 52.104 34.8543 50.9088 34.8444C50.6595 34.8427 50.46 34.7781 50.347 34.6621C50.2638 34.5776 50.2223 34.46 50.2239 34.3126C50.2306 33.8718 50.6811 33.7857 50.9504 33.7741C51.0485 33.7691 51.1465 33.7674 51.243 33.7674C51.3277 33.7674 51.4142 33.7674 51.4973 33.7691C51.5837 33.7691 51.6702 33.7708 51.7533 33.7708H52.1655L52.2204 33.3648C52.4564 31.6367 51.5688 30.298 49.9048 29.8738C49.5374 29.7794 49.2282 29.6949 49.1468 29.6038C49.067 29.5143 49.0188 29.2227 48.9589 28.8217C48.7794 27.6238 48.0812 26.7739 46.9409 26.3646C46.5968 26.2404 46.251 26.1791 45.9152 26.1791C45.2253 26.1791 44.5654 26.4309 43.8955 26.9478L43.194 27.4896L44.0384 27.7647C44.9693 28.0679 45.2885 28.6312 45.109 29.6502C44.966 30.462 44.7998 31.2523 44.6236 32.0891C44.5471 32.4519 44.4706 32.8164 44.3958 33.1842L44.2994 33.6581L44.7948 33.7443C44.828 33.7492 44.9278 33.7658 45.0259 33.7873C45.5063 33.8901 45.5595 34.1204 45.5462 34.3523C45.5329 34.5892 45.4547 34.8129 44.9793 34.8427C44.7582 34.856 44.5321 34.8577 44.2795 34.8577C36.8954 34.8577 12.0902 34.8577 12.0902 34.8577L12.416 38.8656L12.9047 38.8043C13.1541 38.7728 13.3336 38.7579 13.4716 38.7579C13.8224 38.7579 13.8955 38.7579 14.1033 39.7388L14.1814 40.1115H14.5638C14.9178 40.1115 15.2719 40.1049 15.6227 40.0999C15.9651 40.095 16.3075 40.0883 16.6466 40.0883C17.137 40.0883 17.5393 40.0999 17.9133 40.1265C19.3296 40.2242 20.3935 40.4711 20.987 41.3492C21.4574 42.0451 22.0409 42.4709 22.6077 42.8835C22.7391 42.9796 22.8704 43.0757 23.0017 43.1751C23.5054 43.5595 23.9642 43.9521 24.3665 44.3415C25.3971 45.3422 26.1551 46.613 26.6871 48.2301L26.84 48.6957L27.3005 48.5251C27.5648 48.4273 27.8241 48.3295 28.0818 48.2334C28.6702 48.0131 29.2255 47.8043 29.7906 47.6022C29.9386 47.5492 30.0766 47.5227 30.1979 47.5227C30.4257 47.5227 30.5686 47.6154 30.6501 47.8143C30.7099 47.9634 30.7182 48.0876 30.6717 48.1953C30.6085 48.3444 30.429 48.4836 30.1697 48.5864C29.6643 48.7868 29.144 48.9807 28.642 49.1679C28.3278 49.2855 28.0136 49.4032 27.7011 49.5225C26.9697 49.8008 26.2399 50.0825 25.5135 50.3625L24.2268 50.8579L24.285 51.2323L24.3316 51.5322C24.3615 51.7327 24.3898 51.9117 24.4213 52.0889C24.4513 52.2613 24.4845 52.4319 24.5194 52.6042C24.541 52.7152 24.5626 52.8262 24.5842 52.9373C24.6341 53.2057 24.6092 53.431 24.5128 53.5718C24.4446 53.6696 24.3399 53.7309 24.1919 53.7574C24.152 53.764 24.1121 53.769 24.0756 53.769C23.7481 53.769 23.6035 53.4376 23.5403 53.1609C23.4738 52.8726 23.419 52.5761 23.3608 52.2613C23.3325 52.1105 23.3043 51.9547 23.2727 51.794L23.1663 51.2423L22.641 51.4444C22.2321 51.6018 21.8264 51.7509 21.4258 51.8967C20.4185 52.2662 19.4676 52.6142 18.5384 53.0681C17.92 53.3697 17.3149 54.0341 17.0306 54.7217C16.6417 55.6644 16.7397 56.6884 17.2999 57.5267C17.8751 58.3866 18.8525 58.9036 19.9164 58.9086C21.2247 58.9152 22.6094 58.9185 24.2751 58.9185C25.5634 58.9185 26.8533 58.9168 28.1416 58.9152C29.0725 58.9152 30.0034 58.9119 30.9343 58.9119C31.0723 58.9119 31.1986 58.9003 31.3333 58.887C31.3931 58.882 31.453 58.8754 31.5178 58.8704L32.0431 58.8323L31.9467 58.3171C31.8951 58.042 31.8436 57.772 31.7904 57.5035C31.6707 56.8839 31.556 56.2974 31.4629 55.7009C31.4214 55.4408 31.4181 54.9934 31.8519 54.9238C31.8968 54.9172 31.9417 54.9122 31.9816 54.9122C32.0913 54.9122 32.3805 54.9122 32.5036 55.5054C32.6449 56.193 32.7729 56.869 32.9092 57.5831C32.9657 57.883 33.0239 58.1845 33.082 58.4877L33.1552 58.8688H42.027L41.643 56.6552C41.505 55.8566 41.8824 55.7771 42.0254 55.7456C42.0603 55.739 42.0935 55.734 42.1268 55.734C42.4443 55.734 42.6288 56.1101 42.6969 56.4614C42.7318 56.6453 42.7634 56.8309 42.7934 57.0148C42.8532 57.3727 42.9147 57.7421 43.0061 58.1066C43.071 58.3684 43.3752 58.8655 43.814 58.882C44.4058 58.9019 44.9943 58.9052 45.4398 58.9052C45.6808 58.9052 45.9252 58.9052 46.1712 58.9052C46.4222 58.9052 46.6749 58.9036 46.9309 58.9036H47.4961L47.393 58.3485C47.3348 58.0288 47.2733 57.7173 47.2151 57.4091C47.0805 56.7116 46.9541 56.0521 46.8544 55.3861C46.8162 55.126 46.8444 54.9139 46.9359 54.7913C47.0007 54.7035 47.1054 54.6504 47.2534 54.6306C47.2949 54.6239 47.3332 54.6223 47.3714 54.6223L47.3681 54.6173ZM5.96288 43.3938C5.82158 43.3938 5.69192 43.4236 5.57722 43.4799C2.50857 45.0191 0.71326 48.2053 1.11056 51.408C1.59097 55.2718 4.57484 58.274 8.3666 58.7097C9.71974 58.8638 11.0513 58.8854 12.175 58.8854C12.6488 58.8854 13.1225 58.8804 13.5963 58.8771C14.0667 58.8721 14.5388 58.8688 15.0093 58.8688C15.3018 58.8688 15.5944 58.8688 15.8853 58.8754C16.1031 58.8754 16.2277 58.7445 16.2676 58.7031C16.2726 58.6981 16.2793 58.6898 16.2892 58.6816L16.5303 58.4579L16.4023 58.1547C16.3906 58.1249 16.3773 58.095 16.3657 58.0636C16.3325 57.9807 16.2959 57.8879 16.2477 57.7918C15.6675 56.6337 15.5761 55.396 15.99 54.3058C16.4056 53.2139 17.2983 52.3458 18.5068 51.8603C18.9523 51.6814 19.4144 51.5107 19.8616 51.3467C20.1292 51.2489 20.3968 51.1495 20.6628 51.0484C21.745 50.6375 22.8255 50.2266 23.921 49.8091L25.7778 49.1016L25.6681 48.6924C25.1411 46.7257 24.0373 45.1832 22.2936 43.9737C21.7566 43.6025 21.4026 43.3573 20.977 43.3573C20.5514 43.3573 20.1924 43.6075 19.6538 43.9869L19.3695 44.1874L19.4776 44.5171C19.6455 45.0274 19.7768 45.7299 19.4477 46.1806C19.1401 46.6048 18.4985 46.6926 18.0147 46.6926C17.9532 46.6926 17.8917 46.6926 17.8269 46.6893C16.7048 46.6412 15.5595 46.2552 14.326 45.5096C14.1116 45.3803 13.8224 45.2329 13.4783 45.2329C13.2123 45.2329 12.9546 45.3157 12.6637 45.4963C11.387 46.285 10.1852 46.6777 8.98665 46.6942H8.93512C8.46468 46.6942 7.83798 46.6014 7.52879 46.1541C7.26282 45.768 7.27279 45.1467 7.55871 44.4078L7.74489 43.924L7.24453 43.7864C7.11654 43.7517 6.96693 43.6903 6.82064 43.6307C6.53638 43.5147 6.24215 43.3954 5.95789 43.3954L5.96288 43.3938ZM58.3128 42.1014C56.4759 43.1833 54.7405 44.2056 52.9618 45.2362C52.2703 45.6372 52.3883 46.2618 52.4332 46.4954C52.8338 48.6029 53.2228 50.6657 53.5935 52.7152C53.66 53.0831 53.8245 53.5205 54.5094 53.6315C55.6099 53.8104 56.7286 54.0142 57.8108 54.2114C58.1615 54.276 58.514 54.3406 58.8647 54.4036C59.7125 54.556 60.5603 54.7117 61.433 54.8708L63.1252 55.179L63.3945 53.0681L62.7163 52.8991C62.5501 52.8577 62.4055 52.8213 62.2608 52.7881L59.8322 52.2331C58.514 51.9315 57.1974 51.6316 55.8808 51.3284C55.1843 51.1694 55.2043 50.8612 55.2126 50.7287C55.2275 50.4934 55.2907 50.2714 55.8808 50.1637C56.4759 50.0543 57.0711 49.9483 57.6662 49.8406C58.3078 49.7246 58.9495 49.6086 59.5911 49.4927C60.9509 49.2441 62.309 48.9923 63.6788 48.7404L66.0044 48.3113L65.5805 46.2419C65.5805 46.2419 63.4594 46.6279 62.6315 46.7771C60.2893 47.2012 57.8657 47.6403 55.5002 48.086C55.3838 48.1075 55.2791 48.1191 55.1876 48.1191C54.92 48.1191 54.7837 48.0363 54.6873 47.8126C54.6258 47.6734 54.4994 47.3818 55.0181 47.0455C55.8459 46.507 56.6787 45.9486 57.485 45.4102L58.2762 44.8816C58.9113 44.4575 59.5446 44.0333 60.1879 43.6025L61.5128 42.7161L60.4572 40.8439L58.3178 42.1031L58.3128 42.1014ZM10.2068 41.1272C9.86934 41.1272 9.51859 41.1438 9.13792 41.1752C8.68577 41.2134 8.25689 41.3343 7.84131 41.4519C7.6651 41.5016 7.4889 41.5513 7.31269 41.5944L6.94199 41.6839L6.96859 42.6565L7.31768 42.741C7.4889 42.7824 7.66344 42.8188 7.83632 42.857C8.22863 42.9398 8.59767 43.0177 8.93512 43.1535C9.23434 43.2745 9.45875 43.4915 9.48036 43.5694C9.50363 43.687 9.31247 44.0582 9.23101 44.2172L9.19777 44.2835C9.16286 44.3514 9.05481 44.4492 8.92847 44.5602C8.8387 44.6414 8.73564 44.7325 8.6226 44.8452L7.67175 45.7929L9.00826 45.6438C10.3764 45.4913 11.5682 45.0291 12.7585 44.1857C13.1059 43.9389 13.3503 43.7864 13.4882 43.7864C13.6262 43.7864 13.8772 43.9405 14.2562 44.2073C15.493 45.0805 16.6683 45.4864 17.9549 45.4864L18.7428 45.4814L18.4154 44.8104C18.279 44.532 18.048 44.3962 17.8784 44.2968C17.8236 44.2653 17.772 44.2338 17.7355 44.2056C17.5809 44.0863 17.3348 43.8593 17.4396 43.6854C17.5593 43.4866 17.8452 43.2745 18.1876 43.1287C18.4852 43.0028 18.821 42.9299 19.175 42.852C19.3379 42.8172 19.5009 42.7807 19.6604 42.741L20.0195 42.6498L20.0095 41.7783L19.7086 41.6657C19.6438 41.6408 19.579 41.6143 19.5158 41.5878C19.3562 41.5215 19.1917 41.4536 19.0071 41.4072C18.2657 41.2167 17.5194 41.1206 16.7863 41.1206C15.8753 41.1206 14.9561 41.2697 14.0534 41.5646C13.8423 41.6342 13.6129 41.6723 13.4118 41.6723C13.2721 41.6723 13.1508 41.6541 13.061 41.6193C12.1999 41.2896 11.2657 41.1289 10.2051 41.1289L10.2068 41.1272ZM4.33547 43.7997L5.21816 42.234C6.37514 40.1811 8.2918 40.1231 10.3232 40.0618C10.5393 40.0552 10.7537 40.0486 10.9681 40.0403L11.4535 40.0204L11.4186 39.5383C11.387 39.1042 11.3555 38.6717 11.3239 38.2393C11.2491 37.2419 11.1726 36.2113 11.1128 35.199C11.0928 34.8577 11.1311 34.0441 11.9356 33.8801C13.1258 33.6382 13.071 32.6971 13.0494 32.3442L13.0228 31.9018H4.3338V43.7997H4.33547ZM35.7767 33.1892C35.893 33.1892 36.0177 33.2339 36.1573 33.3251C36.3801 33.4709 36.6145 33.5802 36.8854 33.7078C37.0134 33.7674 37.1547 33.8337 37.3093 33.9116L38.1787 34.344L37.9809 33.3963C37.7981 32.5149 38.0142 32.4221 38.2053 32.3392C38.2835 32.3061 38.3533 32.2895 38.4198 32.2895C38.5893 32.2895 38.7788 32.4088 39.0165 32.664C39.0431 32.6922 39.0697 32.717 39.098 32.7435C39.108 32.7518 39.118 32.7601 39.1263 32.77C39.6166 33.4626 40.2699 33.8205 41.0579 33.8205C41.2225 33.8205 41.3937 33.8039 41.5666 33.7724C41.5898 33.7674 41.6198 33.7658 41.6596 33.7658C41.6995 33.7658 41.7411 33.7674 41.7827 33.7691C41.8375 33.7708 41.8924 33.7741 41.9456 33.7741C42.0087 33.7741 42.0702 33.7708 42.1317 33.7641C42.3578 33.7376 42.6604 33.6548 42.815 33.4063C43.6295 32.0957 44.0318 30.7735 44.0467 29.3635L44.0517 28.8897H27.4501L27.4335 29.342C27.3886 30.6244 27.8075 31.7212 28.243 32.7336C28.6154 33.6018 29.2604 33.7608 29.902 33.8056C29.9835 33.8105 30.0633 33.8138 30.1414 33.8138C31.0191 33.8138 31.714 33.4642 32.324 32.7137C32.6349 32.3326 32.826 32.2879 32.9441 32.2879C33.0205 32.2879 33.1053 32.3094 33.1951 32.3525C33.3813 32.4387 33.5907 32.5364 33.4162 33.3996L33.235 34.291L34.0695 33.9215C34.2357 33.8486 34.387 33.7857 34.5283 33.7277C34.8391 33.6001 35.1068 33.4891 35.3661 33.3334C35.5223 33.2389 35.657 33.1925 35.775 33.1925L35.7767 33.1892ZM21.7965 28.6295C21.3261 28.6295 20.8307 28.6809 20.3287 28.7836C19.5108 28.9493 19.3812 29.5077 19.3778 29.8258C19.3662 30.6923 19.3596 31.6169 19.4094 32.5314C19.4526 33.3267 19.9331 33.8022 20.6927 33.8022C20.7892 33.8022 20.8922 33.794 20.9969 33.779C21.1216 33.7608 21.2613 33.7525 21.4358 33.7525C21.5655 33.7525 21.7001 33.7575 21.8381 33.7608C21.9977 33.7658 22.1639 33.7708 22.3401 33.7708H23.0566L22.7723 33.1146C22.7507 33.0666 22.7357 33.0285 22.7224 32.997C22.6958 32.9324 22.6726 32.8761 22.6377 32.8148C22.2936 32.2233 22.4748 32.0791 22.636 31.9515C22.7324 31.8753 22.8272 31.8372 22.9269 31.8372C23.0931 31.8372 23.2893 31.9399 23.4954 32.1354C23.5652 32.2017 23.6384 32.268 23.7115 32.3343C23.926 32.5281 24.1271 32.712 24.2734 32.9142C24.6956 33.5007 25.2608 33.7857 26.0039 33.7857C26.2516 33.7857 26.5258 33.7559 26.8683 33.6912L27.4318 33.5852L27.2174 33.055C27.1243 32.823 27.0461 32.5778 26.9647 32.3177C26.7769 31.7229 26.5824 31.1065 26.1668 30.6327C25.0015 29.3022 23.5303 28.6279 21.7982 28.6279L21.7965 28.6295ZM54.8901 31.254C54.9267 31.254 55.0148 31.254 55.1743 31.4131C55.3639 31.6036 55.4902 31.7279 54.4064 32.9954L53.7447 33.7691H54.7638C54.9898 33.7691 55.2076 33.7691 55.4187 33.7708C55.6199 33.7708 55.8143 33.7724 56.0055 33.7724C56.4361 33.7724 56.7652 33.7658 57.0727 33.7525C57.4201 33.7376 57.7642 33.451 57.8972 33.1826C58.4757 32.0095 58.6519 30.7868 58.4392 29.4431C58.3111 28.6428 57.8939 28.2352 57.0844 28.1176C56.7319 28.0662 56.3829 28.0414 56.0487 28.0414C54.6806 28.0414 53.4439 28.4705 52.3717 29.3155L52.0492 29.5706L53.5769 32.1421L54.0041 31.7743C54.5061 31.3418 54.7621 31.2507 54.8901 31.2507V31.254ZM15.7905 30.6956C14.8231 31.2855 14.2695 32.0741 14.0501 33.1809L13.9387 33.7409H18.6049L18.4619 33.1594C18.2591 32.3326 17.6706 31.925 17.1985 31.5986C16.876 31.375 16.5968 31.1811 16.4621 30.8961L16.2394 30.4223L15.7905 30.6956ZM4.32383 30.7404H4.79427C5.53899 30.7404 6.28039 30.7437 7.01846 30.7453C7.75321 30.7487 8.48629 30.7503 9.21771 30.7503C10.9898 30.7503 12.3429 30.7337 13.6063 30.6973C14.1847 30.6807 14.6718 30.235 15.099 29.8407C15.1638 29.7811 15.2287 29.7214 15.2902 29.6667C15.5877 29.4033 15.5478 28.9725 15.5163 28.6262L15.508 28.5401C15.3766 26.9296 15.9169 25.619 17.1603 24.5305C17.4396 24.2853 17.6241 23.8495 17.5975 23.4933C17.5077 22.2788 17.8535 21.1754 18.6581 20.1233C18.8625 19.8548 18.9589 19.5483 19.0587 19.2219C19.1019 19.0794 19.1484 18.9336 19.205 18.7845L19.4477 18.1483H18.7644C18.5084 18.1483 18.2774 18.1483 18.0629 18.1516C17.8784 18.1516 17.7055 18.1533 17.5393 18.1533C17.3199 18.1533 17.1138 18.1516 16.9076 18.145C16.2593 18.1251 16.2493 17.7589 16.2477 17.638C16.236 17.1525 16.768 17.0995 16.9309 17.0945C17.137 17.0879 17.3432 17.0862 17.5526 17.0862C17.7188 17.0862 17.8884 17.0862 18.0613 17.0879C18.2441 17.0879 18.4336 17.0912 18.6281 17.0912H19.0986V16.6223C19.0986 16.3837 19.1019 16.1567 19.1036 15.9364C19.1085 15.4675 19.1135 15.0235 19.0919 14.5794C19.0038 12.7602 17.7803 11.5176 16.0449 11.4844C14.8214 11.4612 13.5298 11.4513 12.0935 11.4513C10.4129 11.4513 8.71569 11.4662 7.27778 11.4811C5.92132 11.496 4.86741 12.2665 4.52663 13.4925C4.33214 14.1917 4.29391 14.929 4.25567 15.6398C4.23905 15.948 4.22243 16.2678 4.19251 16.5792L4.1443 17.0929H8.30676C9.21938 17.0912 10.1154 17.0929 11.013 17.0962C11.1776 17.0962 11.7129 17.1376 11.7162 17.6247C11.7195 18.0489 11.3422 18.1417 11.0247 18.145C10.3115 18.1516 9.59839 18.1533 8.88525 18.1533C8.46468 18.1533 6.25379 18.1516 6.25379 18.1516H4.31884V30.7404H4.32383ZM22.124 19.5864C21.4225 19.5864 20.7426 19.8201 20.1043 20.2823C18.8775 21.1687 18.422 22.4462 18.7844 23.9771C18.9407 24.6332 18.9107 24.7028 18.3306 25.0441C17.4362 25.5693 16.8611 26.3431 16.62 27.3471C16.3607 28.4291 16.748 29.6816 17.5044 30.1969L18.0629 30.5797L18.2275 29.9235C18.2458 29.8523 18.2641 29.7811 18.284 29.7115C18.3306 29.5441 18.3771 29.3702 18.4087 29.1862C18.5483 28.3379 19.0138 27.8873 19.83 27.8094C19.958 27.7978 20.086 27.7845 20.2157 27.7713C20.8158 27.71 21.4375 27.647 22.0309 27.647C22.3584 27.647 22.651 27.6653 22.9252 27.7034C23.5769 27.7945 24.2235 28.043 24.9084 28.3065C25.2209 28.4258 25.5434 28.55 25.8742 28.6627L26.2399 28.7869L26.4327 28.4523C26.7004 27.99 27.1525 27.7928 27.9438 27.7928C27.9787 27.7928 28.0136 27.7928 28.0485 27.7928C28.6719 27.8061 29.3451 27.8127 30.1663 27.8127C30.665 27.8127 31.1654 27.8111 31.6641 27.8077C32.1628 27.8061 32.6615 27.8028 33.1618 27.8028H33.5059L33.6107 27.4747C33.6506 27.3505 33.6855 27.2328 33.7187 27.1235C33.7852 26.9031 33.8434 26.7142 33.9132 26.5386C34.0312 26.2404 34.1493 25.9885 34.2756 25.7665C34.8425 24.7757 34.8674 24.2836 33.8766 23.495C33.3713 23.0923 32.8078 22.8123 32.2908 22.703C31.6392 22.5655 31.4214 22.3385 31.3615 21.7287C31.2136 20.2111 30.3326 19.1557 28.878 18.7547C28.5223 18.6569 28.1715 18.6072 27.8358 18.6072C26.8167 18.6072 25.9257 19.048 25.1877 19.9145C24.8336 20.3304 24.6956 20.3867 24.6059 20.3867C24.4463 20.3867 24.167 20.2343 23.9692 20.1216C23.3541 19.7654 22.7324 19.5848 22.119 19.5848L22.124 19.5864ZM50.45 23.0675C49.185 23.0675 48.0746 23.6888 47.4046 24.7724L47.1353 25.2081L47.5941 25.4384C48.8426 26.0647 49.6155 26.9893 49.958 28.2667C50.1259 28.893 50.5547 28.9609 50.7309 28.9609C50.9421 28.9609 51.1548 28.8814 51.4208 28.7008C52.1356 28.2203 52.8404 27.8011 53.5153 27.4548C53.9958 27.208 54.1886 26.8666 54.1404 26.3447C54.0041 24.8867 52.8105 23.5248 51.361 23.1752C51.0584 23.1023 50.7526 23.0658 50.45 23.0658V23.0675ZM38.2835 24.4758C36.6644 24.5189 35.2048 25.6886 34.8907 27.1947L34.7726 27.7597H42.0436L41.899 27.1781C41.5051 25.5859 40.0588 24.4742 38.3832 24.4742C38.35 24.4742 38.3167 24.4742 38.2835 24.4742V24.4758ZM43.8788 21.1488C43.9985 21.1488 44.1033 21.1986 44.2013 21.3013C44.5188 21.6376 44.1731 22.0535 44.0102 22.2175C43.5347 22.6914 43.0427 23.1686 42.5656 23.6292C42.3545 23.8346 42.1417 24.0384 41.9306 24.2455L41.643 24.5255L42.785 26.1277L43.1308 25.9869C43.3469 25.899 43.5564 25.803 43.7575 25.7118C44.1964 25.5113 44.6086 25.3225 45.0242 25.2363C45.5329 25.1303 46.1579 24.9082 46.487 24.1179C46.5136 24.0533 46.5552 23.9904 46.5984 23.9489C47.5642 23.0244 47.9798 21.8149 47.905 20.1448C47.8069 17.9263 47.5792 17.686 45.4763 17.5734L45.4132 17.57C45.3068 17.5651 45.1987 17.5618 45.0923 17.5618C42.0071 17.5618 39.1429 19.9576 38.7074 22.9035L38.6475 23.3127L39.0481 23.4237C39.1479 23.4519 39.2476 23.4734 39.3424 23.495C39.5003 23.5297 39.6383 23.5612 39.7297 23.6109C39.9724 23.7435 40.2018 23.8081 40.4279 23.8081C40.9315 23.8081 41.2823 23.485 41.5017 23.2415C41.9472 22.7477 42.4393 22.2689 42.9147 21.8066L43.2505 21.4786C43.4683 21.2665 43.691 21.1488 43.8788 21.1488ZM35.785 15.9877C34.6563 17.1094 33.5359 18.2262 32.4204 19.3462C32.0364 19.7306 32.1711 20.4729 32.221 20.6916C32.2924 21.0047 32.4803 21.5548 32.9308 21.7138C34.0246 22.0999 34.8823 22.7808 35.5523 23.7965L35.7966 24.1676L36.1823 23.944C36.2787 23.8876 36.4067 23.8429 36.543 23.7948C36.9819 23.6408 37.8014 23.3525 37.5853 22.2092L37.5121 21.8265H36.5945C36.4915 21.8282 36.3867 21.8265 36.282 21.8265C35.539 21.8132 35.544 21.4471 35.5456 21.2913C35.5489 20.95 35.7202 20.7843 36.0692 20.7843C36.1191 20.7843 36.174 20.7877 36.2305 20.7959C36.4483 20.8258 36.6544 20.839 36.8472 20.839C37.956 20.839 38.7473 20.332 39.2027 19.3329C39.2526 19.2799 39.3158 19.1971 39.3424 19.0778C39.3557 19.0181 39.3756 18.9568 39.3939 18.8972C39.4621 18.6818 39.5452 18.415 39.4687 18.1317C39.1312 16.8974 38.5062 15.7956 37.6069 14.8545L37.2744 14.5065L35.7867 15.9877H35.785ZM8.89024 10.3114H14.4258V7.44004H8.89024V10.3114ZM7.54874 6.25373H15.8188V1.36104H7.54874V6.25373Z" fill="#3D5224"/>
<path d="M21.409 25.1229C21.3807 25.1229 21.3525 25.1196 21.3242 25.1146C21.045 25.0599 20.8421 24.7915 20.8721 24.5148C20.9951 23.355 21.5503 22.5978 22.5726 22.1969C22.9084 22.0643 23.2392 21.998 23.5551 21.998C24.1685 21.998 24.7619 22.2532 25.3205 22.7585C25.4152 22.8447 25.4933 22.9938 25.5565 23.1131C25.5615 23.1231 25.5665 23.133 25.5715 23.1413C25.5548 23.3186 25.4933 23.4693 25.3919 23.5721C25.3005 23.6648 25.1792 23.7145 25.0528 23.7145C24.9597 23.7145 24.865 23.688 24.7735 23.6367C24.717 23.6052 24.6522 23.5555 24.5857 23.5041C24.4993 23.4379 24.4012 23.3633 24.2881 23.3003C24.0438 23.1628 23.7712 23.0916 23.5002 23.0916C22.8187 23.0916 22.2252 23.5422 22.0224 24.2133C21.9975 24.2961 21.9775 24.3823 21.9576 24.4668C21.9426 24.5314 21.9276 24.596 21.9094 24.659C21.8229 24.9439 21.6318 25.1212 21.4123 25.1212L21.409 25.1229Z" fill="#3D5224"/>
<path d="M26.707 26.7685C26.6273 26.7685 26.5375 26.7353 26.4411 26.6707C26.0554 26.4139 26.2931 25.9152 26.4128 25.7131C26.8766 24.931 27.5698 24.5301 28.4708 24.5234H28.4907C29.3618 24.5234 30.045 24.9244 30.5204 25.7147C30.5753 25.8075 30.6218 25.9351 30.6783 26.0958C30.69 26.1256 30.7 26.1571 30.7116 26.1902C30.6966 26.2118 30.6833 26.2333 30.67 26.2548C30.6002 26.3625 30.4706 26.5597 30.4057 26.5879C30.3991 26.5895 30.3775 26.5978 30.3226 26.5978C30.1713 26.5978 29.9586 26.5382 29.769 26.4852L29.7524 26.4802C29.7341 26.4553 29.7142 26.4222 29.6976 26.3973C29.661 26.3393 29.6228 26.283 29.5862 26.235C29.2737 25.8307 28.8747 25.607 28.4641 25.607C28.0535 25.607 27.6263 25.8489 27.3221 26.2863C27.1043 26.5978 26.8866 26.7701 26.707 26.7701V26.7685Z" fill="#3D5224"/>
<path d="M30.6399 31.3185C30.3556 31.3185 30.073 31.2986 29.7987 31.2605C29.4712 31.2141 29.4513 30.9225 29.4696 30.7519C29.4995 30.4536 29.6408 30.3211 29.9533 30.2929C30.1063 30.2796 30.2642 30.273 30.4321 30.2681C30.5069 30.2647 30.5817 30.2631 30.6581 30.2598C30.728 30.2631 30.7994 30.2664 30.8726 30.2681C31.0388 30.2747 31.2117 30.2796 31.3729 30.3012C31.6572 30.3376 31.7869 30.4652 31.8151 30.7419C31.8367 30.954 31.8002 31.2141 31.4993 31.2588C31.22 31.3003 30.9308 31.3202 30.6399 31.3202V31.3185Z" fill="#3D5224"/>
<path d="M41.2892 31.3325C41.2127 31.3325 41.1363 31.3291 41.0598 31.3258C40.97 31.3225 40.8803 31.3176 40.7905 31.3176H40.36V31.3291C40.2137 31.3126 40.0774 31.2927 39.9577 31.2546C39.7765 31.1966 39.6152 31.0922 39.6585 30.7227C39.6967 30.3897 39.8613 30.3301 40.0341 30.3135C40.3101 30.2886 40.5943 30.2754 40.8786 30.2754C41.0781 30.2754 41.2809 30.282 41.4804 30.2936C41.7962 30.3135 42.0239 30.5156 42.009 30.7642C41.9907 31.0906 41.8344 31.2612 41.5036 31.3176C41.4438 31.3275 41.3756 31.3325 41.2892 31.3325Z" fill="#3D5224"/>
<path d="M35.8581 19.1638C35.6453 19.1638 35.4691 19.0097 35.3877 18.8589C35.3445 18.7761 35.2863 18.617 35.386 18.4696C35.7002 18.0073 36.1324 17.5716 36.6028 17.2418C36.671 17.1938 36.7441 17.1689 36.8206 17.1689C37.0517 17.1689 37.3093 17.3876 37.311 17.7008C37.2944 18.0736 36.2488 19.1406 35.8764 19.1638H35.8581Z" fill="#3D5224"/>
</g>
<defs>
<clipPath id="clip0_100_2961">
<rect width="67" height="59.7892" fill="white" transform="translate(0 0.210938)"/>
</clipPath>
</defs>
</svg>
