<svg width="70" height="70" viewBox="0 0 70 70" fill="none" xmlns="http://www.w3.org/2000/svg">
<path d="M8.16435 70.0019C5.14372 70.0019 2.30503 68.1922 0.931167 65.3911C-0.754595 61.9545 0.169975 57.8413 3.17761 55.3887L4.08919 54.6432L3.53222 54.1475C-0.216191 50.8134 -0.986666 47.1605 1.24678 43.2878C2.83601 40.5333 5.10659 39.1355 7.99912 39.1355C9.27272 39.1355 10.68 39.4039 12.1838 39.9332L13.0824 40.25L13.023 39.2958C12.9914 38.7851 12.9506 38.2726 12.9116 37.7787C12.8243 36.6792 12.7426 35.6411 12.7482 34.5918C12.7631 31.4609 13.593 28.2945 15.2843 24.9119C15.8524 23.775 16.5282 22.6549 17.1817 21.5721C17.3265 21.3317 17.4732 21.0895 17.618 20.8472C17.8463 20.4651 18.0988 20.2713 18.368 20.2713C18.4312 20.2713 18.4961 20.2806 18.5648 20.3011C18.847 20.3831 19.0568 20.5024 19.1756 21.3168C19.3743 22.6904 19.6249 24.3155 19.9907 25.9481C20.1392 26.6116 20.5161 27.2023 20.8484 27.7242L20.9078 27.8174C21.3757 28.5535 22.1053 29.0064 23.0187 29.1275C23.1895 29.1499 23.3566 29.1611 23.5144 29.1611C24.7899 29.1611 25.5919 28.3858 25.6606 27.0868C25.7405 25.5586 25.6885 24.2447 25.4973 23.0687C24.983 19.8874 25.6495 16.9726 27.4782 14.4063C28.4269 13.0719 29.5074 11.7822 30.549 10.5354C30.9277 10.0825 31.3065 9.62966 31.6796 9.17492C33.0201 7.54047 34.4923 5.59105 35.0196 3.11422C35.1477 2.51411 35.1978 1.90655 35.2461 1.31949C35.2572 1.17785 35.2684 1.03807 35.2814 0.898296C35.3296 0.363419 35.5487 0.188232 35.7789 0.0782747C35.8903 0.0242279 35.9924 0 36.0908 0C36.2412 0 36.3935 0.0615016 36.5531 0.186368C41.2354 3.85969 44.3581 8.03062 46.1014 12.9396C46.8571 15.0679 46.987 17.3211 46.4987 19.8277C46.3354 20.6645 46.3521 21.5162 46.3669 22.34V22.463C46.3892 23.6334 46.8236 24.3956 47.6554 24.7274C48.049 24.8839 48.4463 24.9641 48.8306 24.9641C49.4841 24.9641 50.0745 24.733 50.5405 24.2931C51.2646 23.611 51.7101 22.9755 51.9032 22.3493C52.2504 21.2199 52.4862 20.0514 52.7145 18.922C52.7795 18.6033 52.8426 18.2846 52.9095 17.9678C52.9633 17.7106 52.9633 17.4646 52.9633 17.2447C52.9633 17.1273 52.9633 17.0154 52.9726 16.9148C53.0246 16.3054 53.3179 16.1544 53.5686 16.0911C53.6502 16.0706 53.7301 16.0594 53.8025 16.0594C53.9009 16.0594 54.2035 16.0594 54.4578 16.5048C54.6881 16.9092 54.9238 17.3099 55.1578 17.7106C55.8206 18.8437 56.5075 20.0141 57.0663 21.2069C58.8022 24.9044 59.5857 28.5982 59.3945 32.184C59.3221 33.5258 59.0677 34.8994 58.8208 36.23C58.7112 36.8171 58.5998 37.4228 58.5033 38.0248C58.4829 38.1496 58.4439 38.2857 58.3938 38.4571C58.3659 38.5559 58.3344 38.6621 58.3028 38.7814L58.0466 39.7524L59.0306 39.566C59.2292 39.5287 59.4205 39.4915 59.6061 39.4542C59.9811 39.3797 60.3339 39.3107 60.6811 39.2567C61.0877 39.1952 61.4998 39.1635 61.9083 39.1635C65.833 39.1635 69.1841 42.0019 69.8748 45.9156C69.9026 46.0721 69.9565 46.2045 69.9992 46.3088V48.4148C69.9528 48.5043 69.9008 48.6179 69.8766 48.7614C69.5146 50.7873 68.5492 52.4273 66.9266 53.7748C66.83 53.8549 66.7465 53.9369 66.6573 54.0226C66.6184 54.0618 66.5757 54.1028 66.5292 54.1456L65.9816 54.6619L66.5812 55.1147C68.1185 56.274 69.1247 57.6922 69.6538 59.4515C69.7411 59.7441 69.8228 60.0386 69.9045 60.3349C69.936 60.4486 69.9658 60.5604 69.9973 60.6741V62.8807C69.9676 62.9963 69.9379 63.1118 69.9082 63.2274C69.8302 63.5349 69.756 63.8256 69.6687 64.1145C68.6142 67.6238 65.4729 69.9795 61.8507 69.9795C61.0969 69.9795 60.3339 69.877 59.5857 69.6757C56.9661 68.9712 54.3465 68.2668 51.725 67.5623C46.5155 66.1608 41.1277 64.7109 35.8253 63.2945C35.5858 63.2311 35.3278 63.1975 35.0623 63.1975C34.7968 63.1975 34.5313 63.2311 34.2918 63.2945C31.2897 64.094 28.2394 64.9159 25.2912 65.7098C20.3249 67.0479 15.1896 68.4308 10.1305 69.7484C9.48437 69.9161 8.82158 70.0019 8.16064 70.0019H8.16435ZM63.4845 55.5136C63.284 55.5136 63.0909 55.5359 62.9108 55.5807C61.1266 56.0224 59.478 56.4622 57.8739 56.93C57.4042 57.066 56.9252 57.3922 56.6208 57.7798C54.8682 60.02 54.7995 63.2441 56.4537 65.6166C57.6901 67.3908 59.7119 68.4494 61.8618 68.4494C62.5339 68.4494 63.2023 68.345 63.8447 68.1419C66.5701 67.2753 68.4749 64.6736 68.4786 61.8147C68.4824 59.1459 66.7855 56.6187 64.3496 55.6683C64.0897 55.5676 63.7889 55.5136 63.4826 55.5136H63.4845ZM8.24047 55.1744C4.61088 55.1744 1.6478 58.1358 1.63295 61.7737C1.62552 63.5367 2.31245 65.2029 3.56564 66.4683C4.82624 67.7412 6.4953 68.4438 8.26646 68.4475C11.8979 68.4475 14.8461 65.475 14.8517 61.8221C14.8554 60.0274 14.1741 58.3538 12.9357 57.107C11.6974 55.8602 10.0302 55.1744 8.24233 55.1725H8.23862L8.24047 55.1744ZM40.1716 61.6936L40.205 62.8285L40.658 62.9665L55.271 66.9081L54.6528 65.652C53.5908 63.4957 53.446 61.3562 54.1905 58.9204L54.5265 57.8245L40.1697 61.6954L40.1716 61.6936ZM61.899 40.7327C61.2269 40.7327 60.5344 40.8277 59.8437 41.0122C45.3514 44.9129 30.8609 48.8174 16.3704 52.7218C15.5795 52.9342 14.7923 53.1542 13.9828 53.3815C13.5985 53.4896 13.2105 53.5977 12.8151 53.7077L11.5173 54.0674L12.622 54.8389C16.1959 57.3325 17.3432 61.6749 15.4774 65.6427L14.9037 66.8634L16.5635 66.4348C16.7825 66.3789 16.9738 66.3304 17.165 66.2782L25.1668 64.1238C34.3178 61.66 43.467 59.1962 52.6161 56.7287C53.5611 56.4734 54.5061 56.2218 55.453 55.9702C58.2118 55.234 61.0635 54.4736 63.8539 53.6573C66.8374 52.7851 68.8852 49.6169 68.4192 46.5958C67.8771 43.0884 65.2556 40.7327 61.8953 40.7327H61.899ZM8.18292 40.7085C5.38693 40.7085 2.90098 42.5274 1.99498 45.2354C0.88661 48.5453 2.44984 52.0676 5.62828 53.4263C5.92719 53.5548 6.28922 53.6238 6.64939 53.6238C6.8759 53.6238 7.09126 53.5977 7.28991 53.5437C11.2463 52.4981 15.2602 51.4153 19.1441 50.3679C20.388 50.0325 21.6319 49.697 22.8758 49.3616C24.3815 48.9553 25.889 48.5527 27.3947 48.1502L29.9697 47.4606L29.9103 46.3554L29.5019 46.2194C29.4573 46.2045 29.4146 46.1896 29.3701 46.1746C29.2605 46.1355 29.1473 46.0964 29.021 46.0628C27.2406 45.5839 25.4601 45.1049 23.6797 44.6241C19.1404 43.3996 14.447 42.1342 9.82041 40.9191C9.28201 40.7774 8.73061 40.7066 8.18106 40.7066L8.18292 40.7085ZM35.5599 26.4326L35.4986 27.1222C35.4615 27.5397 35.4299 27.9049 35.3946 28.2702C35.0809 31.3956 33.9502 33.565 31.8356 35.0969C30.9834 35.7138 30.2426 36.463 29.6931 37.0445C28.0389 38.7963 27.4281 40.8836 27.8737 43.2487C27.9591 43.6997 28.1577 44.2439 28.9523 44.4489C29.9976 44.7191 31.0595 45.0061 32.0844 45.2857C32.866 45.4981 33.6476 45.7106 34.4311 45.9175C34.665 45.979 34.8841 46.0106 35.0827 46.0106C35.2312 46.0106 35.3705 45.9939 35.5004 45.9603C38.0477 45.2894 40.5911 44.6017 43.0604 43.9177C43.4373 43.8134 43.8123 43.4742 43.9497 43.1145C44.6366 41.316 44.917 39.6667 44.8093 38.0732C44.4157 32.2585 40.6079 28.82 36.5513 25.9723L35.6583 25.3461L35.5599 26.4364V26.4326ZM16.7807 25.2045C16.6359 25.5642 16.4836 25.9239 16.3332 26.2835C15.9972 27.0812 15.65 27.9068 15.3585 28.7511C14.059 32.5213 13.89 36.0548 14.8406 39.5511C15.0764 40.4177 15.5498 40.8892 16.3759 41.0812C17.4453 41.3291 18.5296 41.6273 19.5785 41.9161C20.0222 42.0373 20.466 42.1603 20.9097 42.2795L26.2139 43.6978V42.8722C26.2139 42.766 26.2139 42.6672 26.2139 42.574C26.2139 42.382 26.2176 42.1994 26.2102 42.0168C26.1378 40.0711 26.6316 38.4329 27.6787 37.1507C28.6107 36.0082 29.7525 34.8639 31.0707 33.7513C32.6005 32.4579 33.4025 31.1328 33.5919 29.5785C33.7887 27.9609 33.837 26.3134 33.8834 24.7199L33.8964 24.2428C33.9149 23.6334 34.212 23.2252 34.6353 23.2252C34.7857 23.2252 34.9472 23.2718 35.118 23.3631C38.5731 25.2045 41.2094 27.3384 43.1755 29.8898C45.6781 33.1344 46.6788 36.4947 46.2351 40.1587C46.1813 40.6041 46.1126 41.0514 46.0402 41.5248C46.0049 41.7577 45.9678 41.9963 45.9306 42.2441L45.7914 43.2002C45.7914 43.2002 48.1325 42.5666 48.8324 42.3783C50.9638 41.8006 52.9782 41.2545 55.0334 40.7178C55.6832 40.5482 56.0842 40.1978 56.3367 39.5809C58.3585 34.631 58.4365 29.4164 56.5632 24.0788C56.3144 23.3725 56.0229 22.6773 55.7389 22.0064C55.6089 21.6989 55.479 21.3895 55.3527 21.0801L54.9573 20.1092L54.2852 20.9124C53.9677 21.2926 53.8526 21.6299 53.7616 21.9002L53.7486 21.9374C53.3792 23.0351 52.8686 24.2801 51.8884 25.2082C50.9731 26.0729 49.939 26.5128 48.812 26.5128C48.3479 26.5128 47.8596 26.4382 47.3583 26.2929C45.9603 25.8866 45.1435 24.8597 44.9337 23.242C44.7926 22.1611 44.8018 20.9534 44.9597 19.6544C44.9801 19.4848 45.0024 19.3152 45.0228 19.1456C45.1973 17.7702 45.3792 16.3482 45.0451 14.8703C44.3656 11.8512 42.832 8.98482 40.2217 5.85011C39.6777 5.19782 39.104 4.59212 38.4969 3.95288C38.2203 3.66028 37.9363 3.36209 37.6503 3.05272L36.8446 2.18051L36.5717 3.33786C35.8513 6.40176 34.0635 8.73509 32.4427 10.6826L31.9748 11.2455C30.7885 12.6675 29.5613 14.1398 28.4771 15.6904C27.0828 17.6864 26.5908 20.0383 27.0104 22.681C27.2554 24.2186 27.4708 25.8549 27.1942 27.4726C26.8414 29.5413 25.4824 30.7284 23.4662 30.7284C23.4272 30.7284 23.3882 30.7284 23.3474 30.7284C21.6486 30.6912 20.3564 29.942 19.5061 28.5069C19.0995 27.8229 18.7746 27.0812 18.4293 26.2947C18.2696 25.9332 18.1063 25.5586 17.9299 25.184L17.3172 23.8719L16.7733 25.2157L16.7807 25.2045Z" fill="#3D5224"/>
</svg>
