<svg width="80.300049" height="67.000000" viewBox="0 0 80.3 67" fill="none" xmlns="http://www.w3.org/2000/svg" xmlns:xlink="http://www.w3.org/1999/xlink">
	<desc>
			Created with Pixso.
	</desc>
	<defs/>
	<path id="Vector 53" d="M15.3 38.291C19.8 37.791 19.8 42.791 24.8 42.791C29.8 42.791 29.8 38.291 34.8 38.291C39.8 38.291 41.3 42.791 45.8 42.791C50.8 42.791 52.8 38.291 56.8 38.291C60.8 38.291 64.3 42.791 67.8 42.791C71.3 42.791 74.3 38.291 78.8 38.291" stroke="#3D5224" stroke-opacity="1.000000" stroke-width="1.200000"/>
	<path id="Vector 52" d="M15.3 49.8262C19.8 49.3262 19.8 54.3262 24.8 54.3262C29.8 54.3262 29.8 49.8262 34.8 49.8262C39.8 49.8262 41.3 54.3262 45.8 54.3262C50.8 54.3262 52.8 49.8262 56.8 49.8262C60.8 49.8262 64.3 54.3262 67.8 54.3262C71.3 54.3262 74.3 49.8262 78.8 49.8262" stroke="#3D5224" stroke-opacity="1.000000" stroke-width="1.200000"/>
	<path id="Vector 51" d="M15.3 61.3613C19.8 60.8613 19.8 65.8613 24.8 65.8613C29.8 65.8613 29.8 61.3613 34.8 61.3613C39.8 61.3613 41.3 65.8613 45.8 65.8613C50.8 65.8613 52.8 61.3613 56.8 61.3613C60.8 61.3613 64.3 65.8613 67.8 65.8613C71.3 65.8613 74.3 61.3613 78.8 61.3613" stroke="#3D5224" stroke-opacity="1.000000" stroke-width="1.200000"/>
	<path id="Vector 54" d="M48.8 37.2567L48.8 6.75647C49.3 0.500977 59.8 1.00037 60.8 5.75671C61.8 13.2565 59.8 13.7566 59.3 13.7566C55.8 13.7566 58.4417 6.25671 54.8 6.25659C52.3 6.25647 52.8 10.7565 52.8 13.2566L52.8 37.2567" stroke="#3D5224" stroke-opacity="1.000000" stroke-width="1.500000"/>
	<path id="Vector 56" d="M53.3 21.2578L66.8 21.2578" stroke="#3D5224" stroke-opacity="1.000000" stroke-width="1.500000"/>
	<path id="Vector 57" d="M53.3 25.2578L66.8 25.2578" stroke="#3D5224" stroke-opacity="1.000000" stroke-width="1.500000"/>
	<path id="Vector 58" d="M53.3 29.2578L66.8 29.2578" stroke="#3D5224" stroke-opacity="1.000000" stroke-width="1.500000"/>
	<path id="Vector 59" d="M53.3 33.2578L66.8 33.2578" stroke="#3D5224" stroke-opacity="1.000000" stroke-width="1.500000"/>
	<path id="Vector 54" d="M66.3 37.1317L66.3 6.63147C66.8 0.375977 77.3 0.875366 78.3 5.63171C79.3 13.1315 77.3 13.6316 76.8 13.6316C73.3 13.6316 75.9417 6.13171 72.3 6.13159C69.8 6.13147 70.3 10.6315 70.3 13.1316L70.3 37.1317" stroke="#3D5224" stroke-opacity="1.000000" stroke-width="1.500000"/>
	<path id="soon" d="M4.32605 16.125C1.12005 16.125 4.88162e-05 14.277 4.88162e-05 12.191L1.56805 12.191C1.58205 13.885 2.29605 14.767 4.32605 14.767C6.23005 14.767 6.95805 14.333 6.95805 13.409C6.95805 12.443 6.41205 11.967 5.01205 11.785L3.52805 11.589C1.14805 11.295 0.196049 10.217 0.196049 8.579C0.196049 7.165 1.17605 6.045 4.08805 6.045C7.51805 6.045 8.20405 8.033 8.20405 9.489L6.63605 9.503C6.63605 8.257 6.09005 7.347 4.08805 7.347C2.26805 7.347 1.68005 7.865 1.68005 8.621C1.68005 9.419 2.26805 10.035 3.55605 10.189L5.01205 10.385C7.65805 10.721 8.49805 11.701 8.49805 13.353C8.49805 14.809 7.65805 16.125 4.32605 16.125ZM14.679 16.125C11.893 16.125 9.62505 14.389 9.62505 11.071C9.62505 7.781 11.893 6.045 14.679 6.045C17.465 6.045 19.747 7.781 19.747 11.071C19.747 14.389 17.465 16.125 14.679 16.125ZM14.679 14.767C16.919 14.767 18.1651 13.283 18.1651 11.071C18.1651 8.887 16.919 7.403 14.679 7.403C12.439 7.403 11.207 8.887 11.207 11.071C11.207 13.283 12.439 14.767 14.679 14.767ZM26.2044 16.125C23.4184 16.125 21.1504 14.389 21.1504 11.071C21.1504 7.781 23.4184 6.045 26.2044 6.045C28.9904 6.045 31.2724 7.781 31.2724 11.071C31.2724 14.389 28.9904 16.125 26.2044 16.125ZM26.2044 14.767C28.4444 14.767 29.6904 13.283 29.6904 11.071C29.6904 8.887 28.4444 7.403 26.2044 7.403C23.9644 7.403 22.7324 8.887 22.7324 11.071C22.7324 13.283 23.9644 14.767 26.2044 14.767ZM32.6758 15.985L32.6758 6.185L34.2578 6.185L33.9358 8.495L34.2578 8.495C34.7618 6.969 35.8398 6.185 37.6458 6.185C39.9418 6.185 41.5518 7.557 41.5518 10.497L41.5518 15.985L39.9558 15.985L39.9558 10.497C39.9558 8.383 38.8498 7.543 37.4218 7.543C35.3358 7.543 34.2718 8.719 34.2718 10.497L34.2578 15.985L32.6758 15.985Z" fill="#3D5224" fill-opacity="1.000000" fill-rule="evenodd"/>
</svg>
