<svg width="62.279663" height="62.987183" viewBox="0 0 62.2797 62.9872" fill="none" xmlns="http://www.w3.org/2000/svg" xmlns:xlink="http://www.w3.org/1999/xlink">
	<desc>
			Created with Pixso.
	</desc>
	<defs/>
	<path id="Vector 48" d="M7.52966 59.4292L7.52966 44.1833L7.52966 27.921L7.52966 17.2489L35.0297 17.2489L35.0297 27.921L35.0297 44.1833L35.0297 58.921M35.0297 44.1833L26.5297 44.1833L16.0297 44.1833L7.52966 44.1833M7.52966 27.921L16.0297 27.921L26.5297 27.921L35.0297 27.921M26.5297 44.1833L26.5297 27.921M16.0297 27.921L16.0297 44.1833" stroke="#3D5224" stroke-opacity="1.000000" stroke-width="1.500000" stroke-linecap="round"/>
	<path id="Vector 49" d="M40.0297 17.2495L21.0297 0.987183L2.02966 17.2495L40.0297 17.2495Z" stroke="#3D5224" stroke-opacity="1.000000" stroke-width="1.500000"/>
	<path id="Vector 50" d="M2.02966 59.4297L56.5297 59.4297L61.5297 59.4297M56.5297 59.4297L53.8199 55.3641L46.0297 44.1837L34.5297 44.1837M53.8199 55.3641L53.8199 34.2489" stroke="#3D5224" stroke-opacity="1.000000" stroke-width="1.500000"/>
	<rect id="Rectangle 26" x="48.779663" y="12.737183" rx="4.750000" width="9.500000" height="21.500000" stroke="#3D5224" stroke-opacity="1.000000" stroke-width="1.500000"/>
</svg>
