<svg width="69.999146" height="70.001831" viewBox="0 0 69.9991 70.0018" fill="none" xmlns="http://www.w3.org/2000/svg" xmlns:xlink="http://www.w3.org/1999/xlink">
	<desc>
			Created with Pixso.
	</desc>
	<defs/>
	<path id="Vector" d="M8.16431 70.0018C5.14368 70.0018 2.30505 68.1923 0.931152 65.3911C-0.754639 61.9545 0.169922 57.8413 3.17761 55.3887L4.08923 54.6432L3.53223 54.1475C-0.216187 50.8134 -0.986694 47.1605 1.24683 43.2878C2.83606 40.5333 5.10657 39.1355 7.99915 39.1355C9.27271 39.1355 10.6801 39.4039 12.1838 39.9331L13.0824 40.25L13.0229 39.2958C12.9915 38.7852 12.9506 38.2726 12.9116 37.7788C12.8243 36.6792 12.7427 35.6411 12.7482 34.5918C12.7631 31.4608 13.5929 28.2944 15.2843 24.9119C15.8524 23.775 16.5282 22.6549 17.1816 21.5721C17.3265 21.3318 17.4731 21.0895 17.618 20.8472C17.8463 20.4651 18.0989 20.2712 18.368 20.2712C18.4312 20.2712 18.4961 20.2806 18.5648 20.3011C18.847 20.3832 19.0569 20.5024 19.1757 21.3168C19.3743 22.6903 19.625 24.3154 19.9907 25.9481C20.1392 26.6116 20.5161 27.2024 20.8484 27.7241L20.9078 27.8174C21.3757 28.5535 22.1053 29.0063 23.0188 29.1276C23.1896 29.1499 23.3567 29.1611 23.5144 29.1611C24.7899 29.1611 25.5919 28.3857 25.6606 27.0868C25.7405 25.5586 25.6885 24.2446 25.4973 23.0687C24.983 19.8873 25.6495 16.9725 27.4783 14.4062C28.4269 13.0719 29.5074 11.7822 30.549 10.5354C30.9277 10.0825 31.3065 9.62964 31.6797 9.17493C33.02 7.54053 34.4923 5.59106 35.0195 3.11426C35.1477 2.51416 35.1979 1.90649 35.2461 1.31946C35.2572 1.17786 35.2684 1.03809 35.2814 0.898315C35.3296 0.363403 35.5487 0.188232 35.7789 0.0782471C35.8904 0.0241699 35.9924 0 36.0908 0C36.2412 0 36.3934 0.0615234 36.5531 0.186401C41.2354 3.85974 44.3582 8.03064 46.1014 12.9396C46.8571 15.0679 46.9871 17.321 46.4988 19.8278C46.3353 20.6646 46.3521 21.5162 46.3669 22.34L46.3669 22.463C46.3892 23.6334 46.8236 24.3956 47.6554 24.7274C48.049 24.8839 48.4463 24.9641 48.8306 24.9641C49.4841 24.9641 50.0745 24.7329 50.5405 24.2931C51.2645 23.611 51.7101 22.9755 51.9032 22.3494C52.2504 21.22 52.4862 20.0514 52.7145 18.922C52.7795 18.6033 52.8427 18.2847 52.9094 17.9678C52.9633 17.7106 52.9633 17.4646 52.9633 17.2446C52.9633 17.1273 52.9633 17.0154 52.9725 16.9148C53.0245 16.3054 53.3179 16.1544 53.5686 16.0911C53.6503 16.0706 53.7301 16.0593 53.8025 16.0593C53.9009 16.0593 54.2035 16.0593 54.4579 16.5048C54.6881 16.9092 54.9238 17.3099 55.1577 17.7106C55.8206 18.8438 56.5074 20.0142 57.0663 21.2069C58.8022 24.9044 59.5857 28.5983 59.3944 32.184C59.322 33.5259 59.0677 34.8994 58.8208 36.23C58.7112 36.8171 58.5999 37.4227 58.5033 38.0248C58.4829 38.1497 58.4438 38.2856 58.3938 38.4572C58.366 38.5559 58.3344 38.6621 58.3029 38.7814L58.0466 39.7524L59.0305 39.566C59.2292 39.5288 59.4204 39.4915 59.6061 39.4542C59.9811 39.3796 60.3339 39.3107 60.681 39.2566C61.0876 39.1952 61.4998 39.1635 61.9082 39.1635C65.833 39.1635 69.1841 42.0018 69.8748 45.9156C69.9026 46.0721 69.9564 46.2045 69.9991 46.3088L69.9991 48.4148C69.9528 48.5043 69.9008 48.6179 69.8766 48.7615C69.5146 50.7872 68.5492 52.4274 66.9265 53.7748C66.83 53.8549 66.7465 53.9369 66.6573 54.0226C66.6184 54.0618 66.5757 54.1028 66.5293 54.1456L65.9816 54.6619L66.5812 55.1147C68.1184 56.2739 69.1248 57.6923 69.6538 59.4515C69.7411 59.7441 69.8228 60.0386 69.9045 60.335C69.936 60.4486 69.9657 60.5604 69.9973 60.6741L69.9973 62.8807C69.9677 62.9962 69.9379 63.1118 69.9082 63.2274C69.8302 63.5349 69.756 63.8256 69.6687 64.1145C68.6141 67.6238 65.4729 69.9795 61.8507 69.9795C61.0969 69.9795 60.3339 69.877 59.5857 69.6757C56.9661 68.9712 54.3464 68.2667 51.725 67.5623C46.5155 66.1608 41.1277 64.7108 35.8253 63.2944C35.5858 63.2311 35.3278 63.1975 35.0623 63.1975C34.7968 63.1975 34.5314 63.2311 34.2919 63.2944C31.2898 64.094 28.2394 64.9159 25.2911 65.7098C20.3248 67.048 15.1896 68.4308 10.1305 69.7484C9.48438 69.9161 8.82153 70.0018 8.16064 70.0018L8.16431 70.0018ZM63.4845 55.5135C63.2839 55.5135 63.0909 55.5359 62.9108 55.5807C61.1266 56.0223 59.478 56.4622 57.8739 56.9299C57.4042 57.066 56.9253 57.3922 56.6207 57.7798C54.8682 60.02 54.7994 63.2441 56.4536 65.6166C57.6902 67.3909 59.7119 68.4495 61.8618 68.4495C62.5339 68.4495 63.2023 68.3451 63.8446 68.1418C66.5701 67.2753 68.475 64.6736 68.4786 61.8147C68.4823 59.1459 66.7854 56.6188 64.3496 55.6682C64.0897 55.5676 63.7889 55.5135 63.4827 55.5135L63.4845 55.5135ZM8.24048 55.1744C4.61084 55.1744 1.64783 58.1357 1.63293 61.7737C1.62549 63.5367 2.3125 65.2029 3.56567 66.4683C4.82629 67.7412 6.49524 68.4438 8.26648 68.4475C11.8979 68.4475 14.8462 65.475 14.8517 61.8221C14.8555 60.0275 14.1741 58.3539 12.9357 57.1071C11.6974 55.8602 10.0302 55.1744 8.24231 55.1725L8.23865 55.1725L8.24048 55.1744ZM40.1715 61.6936L40.205 62.8285L40.658 62.9664L55.271 66.9082L54.6528 65.652C53.5908 63.4957 53.446 61.3562 54.1906 58.9204L54.5265 57.8246L40.1697 61.6954L40.1715 61.6936ZM61.8989 40.7327C61.2269 40.7327 60.5344 40.8278 59.8438 41.0122C45.3514 44.913 30.8608 48.8174 16.3704 52.7218C15.5795 52.9342 14.7922 53.1542 13.9828 53.3815C13.5985 53.4896 13.2104 53.5977 12.8151 53.7076L11.5173 54.0674L12.6219 54.8389C16.1958 57.3325 17.3433 61.6749 15.4774 65.6427L14.9037 66.8634L16.5635 66.4348C16.7826 66.3789 16.9738 66.3304 17.165 66.2782L25.1667 64.1238C34.3179 61.66 43.4669 59.1962 52.6161 56.7288C53.5612 56.4734 54.5061 56.2218 55.453 55.9702C58.2118 55.234 61.0635 54.4736 63.8539 53.6573C66.8374 52.7852 68.8853 49.6168 68.4192 46.5958C67.8771 43.0884 65.2556 40.7327 61.8953 40.7327L61.8989 40.7327ZM8.18286 40.7085C5.38696 40.7085 2.901 42.5275 1.995 45.2354C0.886597 48.5453 2.44983 52.0676 5.6283 53.4263C5.92725 53.5548 6.28918 53.6238 6.64941 53.6238C6.87585 53.6238 7.09131 53.5977 7.28992 53.5437C11.2462 52.4982 15.2601 51.4153 19.144 50.3679C20.3879 50.0325 21.6318 49.697 22.8757 49.3616C24.3815 48.9553 25.889 48.5527 27.3947 48.1501L29.9697 47.4606L29.9103 46.3555L29.5018 46.2194C29.4573 46.2045 29.4147 46.1896 29.3701 46.1747C29.2605 46.1355 29.1472 46.0964 29.021 46.0629C27.2406 45.5839 25.4601 45.1049 23.6797 44.624C19.1404 43.3997 14.447 42.1342 9.82043 40.9191C9.28198 40.7775 8.73059 40.7065 8.18103 40.7065L8.18286 40.7085ZM35.5598 26.4326L35.4985 27.1222C35.4614 27.5397 35.4299 27.9049 35.3947 28.2703C35.0808 31.3956 33.9502 33.5649 31.8356 35.0969C30.9834 35.7137 30.2427 36.463 29.6931 37.0444C28.0389 38.7963 27.4281 40.8837 27.8737 43.2487C27.9591 43.6997 28.1577 44.2439 28.9524 44.4489C29.9976 44.7191 31.0596 45.0061 32.0844 45.2856C32.866 45.4982 33.6476 45.7106 34.431 45.9175C34.665 45.979 34.884 46.0106 35.0828 46.0106C35.2312 46.0106 35.3705 45.9939 35.5005 45.9603C38.0476 45.2894 40.5912 44.6017 43.0604 43.9177C43.4373 43.8134 43.8123 43.4741 43.9497 43.1145C44.6366 41.316 44.917 39.6666 44.8093 38.0732C44.4156 32.2585 40.6079 28.8201 36.5513 25.9723L35.6582 25.3461L35.5598 26.4364L35.5598 26.4326ZM16.7806 25.2045C16.6359 25.5642 16.4836 25.9238 16.3333 26.2836C15.9972 27.0812 15.65 27.9069 15.3585 28.7511C14.059 32.5212 13.89 36.0548 14.8406 39.5511C15.0763 40.4177 15.5498 40.8893 16.376 41.0812C17.4453 41.3291 18.5295 41.6272 19.5785 41.9161C20.0222 42.0372 20.4659 42.1603 20.9097 42.2795L26.2139 43.6978L26.2139 42.8722C26.2139 42.766 26.2139 42.6672 26.2139 42.574C26.2139 42.3821 26.2177 42.1995 26.2102 42.0167C26.1378 40.071 26.6316 38.4329 27.6787 37.1506C28.6107 36.0083 29.7526 34.8639 31.0707 33.7513C32.6005 32.4579 33.4025 31.1328 33.5919 29.5785C33.7887 27.9608 33.8369 26.3134 33.8834 24.72L33.8964 24.2428C33.9149 23.6334 34.212 23.2252 34.6353 23.2252C34.7856 23.2252 34.9471 23.2719 35.118 23.3632C38.5731 25.2045 41.2094 27.3384 43.1755 29.8898C45.6781 33.1344 46.6788 36.4946 46.2351 40.1587C46.1813 40.6041 46.1125 41.0514 46.0402 41.5248C46.0049 41.7577 45.9678 41.9962 45.9307 42.2441L45.7914 43.2002C45.7914 43.2002 48.1326 42.5665 48.8324 42.3783C50.9637 41.8005 52.9781 41.2545 55.0334 40.7178C55.6832 40.5482 56.0842 40.1978 56.3367 39.5809C58.3585 34.631 58.4365 29.4164 56.5632 24.0789C56.3145 23.3724 56.0229 22.6774 55.7389 22.0063C55.6089 21.6989 55.479 21.3895 55.3527 21.0801L54.9573 20.1091L54.2852 20.9124C53.9678 21.2926 53.8527 21.6299 53.7616 21.9001L53.7487 21.9374C53.3792 23.0352 52.8687 24.28 51.8883 25.2083C50.973 26.073 49.939 26.5128 48.812 26.5128C48.3479 26.5128 47.8596 26.4382 47.3584 26.2928C45.9603 25.8866 45.1434 24.8597 44.9337 23.2421C44.7926 22.1611 44.8019 20.9534 44.9596 19.6544C44.9801 19.4849 45.0023 19.3152 45.0228 19.1456C45.1973 17.7703 45.3793 16.3483 45.045 14.8704C44.3656 11.8512 42.832 8.98486 40.2217 5.8501C39.6777 5.19788 39.104 4.59216 38.4969 3.95288C38.2203 3.66028 37.9363 3.36206 37.6504 3.05273L36.8446 2.18054L36.5717 3.33789C35.8513 6.40173 34.0635 8.73511 32.4426 10.6826L31.9749 11.2455C30.7885 12.6675 29.5613 14.1398 28.4771 15.6903C27.0828 17.6864 26.5908 20.0383 27.0104 22.681C27.2554 24.2186 27.4708 25.8549 27.1942 27.4725C26.8414 29.5413 25.4824 30.7284 23.4662 30.7284C23.4272 30.7284 23.3882 30.7284 23.3474 30.7284C21.6486 30.6912 20.3564 29.9419 19.5061 28.507C19.0995 27.823 18.7747 27.0812 18.4293 26.2947C18.2697 25.9332 18.1063 25.5586 17.9299 25.184L17.3173 23.8719L16.7732 25.2157L16.7806 25.2045Z" fill="#3D5224" fill-opacity="1.000000" fill-rule="nonzero"/>
</svg>
