<svg width="70.000000" height="52.359863" viewBox="0 0 70 52.3599" fill="none" xmlns="http://www.w3.org/2000/svg" xmlns:xlink="http://www.w3.org/1999/xlink">
	<desc>
			Created with Pixso.
	</desc>
	<defs/>
	<path id="path66" d="M69.2076 12.1626L57.811 0.765137C56.7901 -0.255005 55.0096 -0.255005 53.9888 0.765137L42.5092 12.2455C41.4818 13.2722 41.0037 14.7427 41.2292 16.1783L42.2065 22.3674C42.3295 23.1453 42.0486 23.9194 41.457 24.4375L34.525 30.5051C34.3009 30.7008 34.2791 31.0421 34.4748 31.2661C34.672 31.491 35.0125 31.5128 35.2359 31.3171L42.1672 25.2495C43.0403 24.4855 43.4529 23.3453 43.2724 22.1986L42.296 16.0103C42.1235 14.9144 42.488 13.7925 43.2717 13.0088L54.7521 1.52844C55.3654 0.915039 56.4357 0.915771 57.0491 1.52844L68.4458 12.9252C68.7521 13.2322 68.921 13.6396 68.921 14.074C68.921 14.5077 68.7521 14.9152 68.4458 15.2222L56.9647 26.7018C56.1818 27.4862 55.0583 27.8522 53.9641 27.6782L47.7626 26.6989C46.6274 26.5199 45.4909 26.9266 44.7277 27.7867L38.85 34.4073C38.6514 34.6299 38.6724 34.9712 38.8943 35.1691C38.9969 35.2601 39.125 35.3052 39.2531 35.3052C39.4022 35.3052 39.5507 35.244 39.6561 35.124L45.5339 28.5034C46.0527 27.9191 46.8254 27.644 47.5938 27.7649L53.7952 28.7435C55.2338 28.9706 56.7014 28.4918 57.728 27.4651L69.2076 15.9847C69.7191 15.4747 70 14.7958 70 14.074C70 13.3516 69.7191 12.6733 69.2076 12.1626Z" fill="#3D5224" fill-opacity="1.000000" fill-rule="nonzero"/>
	<path id="path68" d="M19.9747 44.6776L26.2308 39.2015C26.4549 39.0051 26.4775 38.6646 26.281 38.4398C26.0845 38.215 25.744 38.1938 25.5192 38.3895L19.2639 43.8656C18.2343 44.7671 17.6107 46.0667 17.5532 47.4316C17.4994 48.7319 17.9542 49.9507 18.8367 50.8639C19.7317 51.7915 20.9738 52.3169 22.2587 52.3169C22.2966 52.3169 22.3359 52.3169 22.3737 52.3154C23.7001 52.2834 24.9611 51.6919 25.8321 50.6973L31.7571 44.0236C31.955 43.8009 31.9354 43.4596 31.712 43.2617C31.4901 43.0645 31.1473 43.0834 30.9501 43.3068L25.0229 49.9834C24.3375 50.7664 23.388 51.2109 22.3468 51.2363C21.3049 51.2611 20.3356 50.8632 19.6124 50.1144C18.9386 49.4159 18.5894 48.4795 18.6323 47.4768C18.6767 46.4058 19.1664 45.3856 19.9747 44.6776Z" fill="#3D5224" fill-opacity="1.000000" fill-rule="nonzero"/>
	<path id="path70" d="M56.3992 6.68005L47.9123 15.167C47.5798 15.5002 47.0005 15.5002 46.668 15.167C46.3246 14.8236 46.3246 14.2655 46.668 13.9214L55.1542 5.43591C55.3209 5.26929 55.5413 5.17834 55.7764 5.17834C56.0128 5.17834 56.2326 5.26929 56.3992 5.43591C56.7427 5.77856 56.7427 6.3374 56.3992 6.68005ZM54.3917 4.67261L45.9048 13.1588C45.1408 13.9229 45.1408 15.1663 45.9048 15.9296C46.2744 16.2999 46.767 16.5044 47.2894 16.5044C47.8133 16.5044 48.3059 16.2999 48.6755 15.9296L57.1625 7.44336C57.9265 6.67944 57.9265 5.43591 57.1625 4.67261C56.4218 3.93262 55.1324 3.93262 54.3917 4.67261Z" fill="#3D5224" fill-opacity="1.000000" fill-rule="nonzero"/>
	<path id="path72" d="M60.5096 10.7897L52.0234 19.2759C51.6822 19.6194 51.1219 19.6194 50.7778 19.2759C50.4358 18.9332 50.4358 18.3744 50.7778 18.0309L59.2647 9.5448C59.4313 9.37817 59.6525 9.2865 59.8875 9.2865C60.1226 9.2865 60.3438 9.37817 60.5096 9.5448C60.6763 9.71143 60.7687 9.93188 60.7687 10.1676C60.7687 10.4026 60.6763 10.6238 60.5096 10.7897ZM58.5021 8.78149L50.0152 17.2684C49.252 18.0323 49.252 19.2751 50.0152 20.0399C50.3972 20.4211 50.8986 20.6118 51.4006 20.6118C51.9026 20.6118 52.4047 20.4211 52.7867 20.0392L61.2729 11.553C61.6432 11.1826 61.847 10.6908 61.847 10.1676C61.847 9.64368 61.6432 9.15186 61.2729 8.78149C60.533 8.0415 59.2407 8.0415 58.5021 8.78149Z" fill="#3D5224" fill-opacity="1.000000" fill-rule="nonzero"/>
	<path id="path74" d="M54.8088 22.0615L63.2957 13.5752C63.4623 13.4086 63.6835 13.317 63.9186 13.317C64.1536 13.317 64.374 13.4086 64.5406 13.5752C64.7065 13.7411 64.799 13.9624 64.799 14.1974C64.799 14.4324 64.7065 14.6536 64.5406 14.8202L56.0538 23.3064C55.7205 23.6396 55.142 23.6396 54.8088 23.3064C54.6436 23.1398 54.5512 22.9193 54.5512 22.6843C54.5512 22.4485 54.6436 22.2274 54.8088 22.0615ZM53.4722 22.6843C53.4722 23.2074 53.6759 23.6993 54.0462 24.069C54.4152 24.4393 54.9077 24.6431 55.4316 24.6431C55.9548 24.6431 56.4474 24.4393 56.817 24.069L65.3032 15.5828C65.6736 15.2124 65.8773 14.7206 65.8773 14.1974C65.8773 13.6742 65.6736 13.1816 65.3032 12.812C64.5647 12.072 63.2717 12.072 62.5332 12.812L54.0462 21.299C53.6759 21.6686 53.4722 22.1604 53.4722 22.6843Z" fill="#3D5224" fill-opacity="1.000000" fill-rule="nonzero"/>
	<path id="path76" d="M1.53839 9.90918C1.61115 10.4585 1.74872 11.0428 1.96552 11.662C2.70404 13.7649 4.20953 16.0211 6.20319 18.0142C9.41272 21.2244 19.3229 29.2689 24.7043 32.1473L24.5493 32.3024C18.4148 30.6776 7.51141 23.1824 4.27356 19.9437C2.42609 18.0963 1.30267 15.7527 1.10913 13.3435C1.01019 12.1218 1.16296 10.9598 1.53839 9.90918ZM8.53229 5.1615C8.7724 5.1615 9.01544 5.17163 9.26135 5.19128C11.6698 5.38489 14.0142 6.50903 15.8608 8.35645C19.0995 11.5944 26.5947 22.4962 28.2202 28.6322L28.0652 28.7872C25.186 23.405 17.1415 13.4949 13.9319 10.2854C11.9382 8.29175 9.68188 6.78699 7.5791 6.04846C6.96356 5.83167 6.38214 5.69482 5.83502 5.62207C6.67249 5.32373 7.57837 5.1615 8.53229 5.1615ZM47.2343 47.5619C47.2598 48.6017 46.8617 49.5731 46.113 50.2971C45.4145 50.9708 44.4962 51.3193 43.4739 51.2771C42.4036 51.2328 41.3828 50.743 40.6755 49.934L25.6313 32.7469L25.99 32.3875L25.9907 32.3875L28.3053 30.0729C28.306 30.0721 28.306 30.0721 28.306 30.0714L28.7709 29.6073L45.9821 44.8872C46.7642 45.5719 47.2095 46.5215 47.2343 47.5619ZM2.87653 7.72192L26.0038 30.8485L25.5025 31.3499C20.2964 28.6752 10.1978 20.4836 6.9657 17.2516C5.08411 15.3693 3.66962 13.2577 2.98346 11.3041C2.4574 9.80811 2.43121 8.54565 2.87653 7.72192ZM26.7657 30.0853L3.63904 6.95874C4.01959 6.75281 4.48816 6.64294 5.03754 6.64294C5.67712 6.64294 6.41711 6.78333 7.22186 7.06641C9.17474 7.75256 11.287 9.16626 13.1694 11.0486C16.4008 14.28 24.5923 24.3778 27.267 29.5847L26.7657 30.0853ZM24.5886 33.425C24.6308 33.4353 24.6723 33.4403 24.7145 33.4403C24.7407 33.4403 24.764 33.4287 24.7902 33.425L39.8628 50.6456C40.765 51.6744 42.0646 52.298 43.4296 52.3555C43.4994 52.3584 43.5693 52.3599 43.6384 52.3599C44.86 52.3599 45.9973 51.9072 46.8624 51.0734C47.8171 50.1508 48.3461 48.8607 48.314 47.535C48.2806 46.2094 47.6898 44.9484 46.6951 44.0774L29.3422 28.6708C27.8455 22.4271 19.9865 10.9548 16.6241 7.59314C14.5963 5.56458 12.011 4.32983 9.34796 4.11584C6.6463 3.89465 4.19495 4.75037 2.43121 6.51416C0.668213 8.2771 -0.183105 10.7328 0.032959 13.4302C0.24762 16.0939 1.48242 18.6785 3.51025 20.707C6.87329 24.0686 18.3456 31.9276 24.5886 33.425Z" fill="#3D5224" fill-opacity="1.000000" fill-rule="nonzero"/>
</svg>
