<svg width="91.000000" height="47.609375" viewBox="0 0 91 47.6094" fill="none" xmlns="http://www.w3.org/2000/svg" xmlns:xlink="http://www.w3.org/1999/xlink">
	<desc>
			Created with Pixso.
	</desc>
	<defs/>
	<path id="path52" d="M88.4926 28.5326C87.6274 29.7173 86.4394 30.5818 85.0566 31.0325C82.9608 31.7158 80.642 31.3505 78.86 30.0586L73.8046 26.382C73.4319 26.1107 72.8895 25.3944 72.4243 23.5231C71.9252 21.5142 72.3462 19.3861 73.58 17.6838C74.8453 15.938 76.7714 14.8748 78.8672 14.7629C79.1135 14.7509 79.3429 14.7444 79.5554 14.7444C80.9341 14.7444 81.6013 14.9988 81.92 15.2289L86.9666 18.9015C90.0428 21.1375 90.7269 25.458 88.4926 28.5326ZM65.1338 46.4159L54.3984 46.4159L54.3984 36.0486C54.3984 35.8546 54.3051 35.675 54.1497 35.5623L46.4826 30.0771C46.2797 29.9331 46.0117 29.9266 45.8057 30.0651L37.5196 35.5509C37.353 35.6605 37.2524 35.8474 37.2524 36.0486L37.2524 46.4159L27.4338 46.4159L27.4338 13.4341C27.4338 13.2827 27.3726 13.1483 27.2793 13.043L45.6697 1.30469L65.1338 13.7286L65.1338 46.4159ZM87.6693 17.9365L82.6203 14.2623C81.846 13.7037 80.6009 13.476 78.8036 13.5718C76.3472 13.7013 74.0911 14.9457 72.6134 16.9828C72.5965 17.0061 72.5836 17.0326 72.5667 17.056L45.9908 0.0942383C45.7944 -0.0313721 45.5449 -0.0313721 45.3485 0.0942383L19.093 16.8516L17.1291 13.8373C15.8638 11.8969 13.2569 11.347 11.3179 12.6123L0.271179 19.8094C-0.00494385 19.9889 -0.0830078 20.3591 0.0964966 20.6344C0.276794 20.9113 0.647827 20.9894 0.922302 20.8082L11.9699 13.6112C12.642 13.1733 13.446 13.0244 14.2308 13.1877C15.0163 13.3544 15.6908 13.8164 16.1287 14.4884L16.6099 15.2273L3.04395 24.0664C2.76782 24.2458 2.69055 24.6152 2.87006 24.8905C2.98438 25.0668 3.1759 25.1626 3.37067 25.1626C3.48254 25.1626 3.59528 25.1312 3.69586 25.0652L17.261 16.2269L19.3827 19.4843L5.8175 28.3217C5.54144 28.502 5.46338 28.8715 5.64362 29.1467C5.75793 29.323 5.94867 29.418 6.14429 29.418C6.25616 29.418 6.36884 29.3873 6.46863 29.3214L20.0339 20.4832L20.516 21.2219C20.9538 21.8949 21.1043 22.6981 20.9385 23.4829C20.7719 24.2692 20.3107 24.9429 19.6379 25.3807L8.59106 32.5785C8.315 32.759 8.23694 33.1284 8.41638 33.4044C8.53149 33.58 8.72223 33.6749 8.91705 33.6749C9.02893 33.6749 9.1424 33.6444 9.24298 33.5782L20.2898 26.3812C21.2291 25.7687 21.8746 24.8262 22.1056 23.7291C22.3374 22.6321 22.1281 21.5101 21.5156 20.5708L20.7083 19.3322L19.7441 17.8512L26.2402 13.7062L26.2402 47.0123C26.2402 47.3422 26.5074 47.6094 26.8366 47.6094L37.8495 47.6094C38.1788 47.6094 38.446 47.3422 38.446 47.0123L38.446 36.3687L46.122 31.2869L53.2048 36.3551L53.2048 47.0123C53.2048 47.3422 53.4728 47.6094 53.802 47.6094L65.731 47.6094C66.061 47.6094 66.3282 47.3422 66.3282 47.0123L66.3282 14.4908L71.9526 18.0806C71.0439 19.8473 70.7847 21.8732 71.2661 23.8113C71.7151 25.6198 72.3156 26.7755 73.1027 27.347L78.1581 31.0244C79.5546 32.0361 81.2295 32.5635 82.9213 32.5635C83.7632 32.5635 84.6091 32.433 85.4269 32.1666C87.0495 31.6385 88.4427 30.6252 89.4568 29.2361C92.0799 25.6278 91.2775 20.5596 87.6693 17.9365Z" fill="#3D5224" fill-opacity="1.000000" fill-rule="nonzero"/>
	<path id="path54" d="M50.2485 16.4685L40.7511 16.4685L40.7511 10.9351L45.1779 7.84192L50.2485 10.9575L50.2485 16.4685ZM44.8149 6.6394L39.8126 10.1342C39.6525 10.2461 39.5575 10.4296 39.5575 10.6244L39.5575 17.0657C39.5575 17.3949 39.8247 17.6621 40.1547 17.6621L50.845 17.6621C51.1741 17.6621 51.4413 17.3949 51.4413 17.0657L51.4413 10.6244C51.4413 10.4167 51.3343 10.2244 51.1572 10.1157L45.4692 6.62012C45.2656 6.49622 45.0096 6.50269 44.8149 6.6394Z" fill="#3D5224" fill-opacity="1.000000" fill-rule="nonzero"/>
</svg>
