<svg width="48.000122" height="65.000000" viewBox="0 0 48.0001 65" fill="none" xmlns="http://www.w3.org/2000/svg" xmlns:xlink="http://www.w3.org/1999/xlink">
	<desc>
			Created with Pixso.
	</desc>
	<defs/>
	<path id="path114" d="M24.0002 62.8114C25.5806 60.8835 30.3503 54.9585 35.0669 48.0579C42.6045 37.0328 46.5884 28.553 46.5884 23.5352C46.5884 11.3209 36.4554 1.38525 24.0002 1.38525C11.5448 1.38525 1.41187 11.3209 1.41174 23.5352C1.41174 28.553 5.39587 37.0328 12.9333 48.0579C17.6499 54.9585 22.4197 60.8835 24.0002 62.8114ZM24.0002 0C30.4111 0 36.4379 2.4491 40.9711 6.89282C45.5034 11.3385 48.0001 17.2478 48.0001 23.5352C48.0001 26.5172 46.7515 30.5338 44.2886 35.4694C42.3425 39.3704 39.6327 43.8669 36.2339 48.8376C30.4576 57.2863 24.6036 64.2809 24.5452 64.3495L24.0002 65L23.4551 64.3495C23.3966 64.2809 17.5426 57.2863 11.7664 48.8376C8.36755 43.8669 5.65771 39.3704 3.71167 35.4694C1.24878 30.5338 0.00012207 26.5172 0.00012207 23.5352C0.00012207 17.2478 2.49683 11.3385 7.02942 6.89282C11.5624 2.4491 17.5894 0 24.0002 0Z" fill="#3D5224" fill-opacity="1.000000" fill-rule="nonzero"/>
	<path id="Vector 47" d="M29.5748 23C29.5748 28 23.9658 30 19.3766 30L19.3766 42L19.3766 15C26.3114 15 29.5748 19 29.5748 23Z" stroke="#3D5224" stroke-opacity="1.000000" stroke-width="1.500000"/>
</svg>
