<svg width="18.250000" height="18.295410" viewBox="0 0 18.25 18.2954" fill="none" xmlns="http://www.w3.org/2000/svg" xmlns:xlink="http://www.w3.org/1999/xlink">
	<desc>
			Created with Pixso.
	</desc>
	<defs/>
	<path d="M17.0332 10.0828L2.43311 10.0828L2.43311 3.23901C2.43262 2.98145 2.48291 2.72607 2.58154 2.48804C2.68018 2.24976 2.8252 2.03369 3.00781 1.85181L3.02295 1.83667C3.30957 1.55078 3.67725 1.36011 4.07617 1.29102C4.47461 1.22192 4.88525 1.27759 5.25098 1.45044C4.90576 2.0249 4.76172 2.69873 4.84326 3.36426C4.92432 4.03003 5.22559 4.64941 5.69922 5.12427L6.11523 5.54053L5.34912 6.30688L6.20898 7.16724L6.97559 6.40088L11.2222 2.1543L11.9883 1.38794L11.1284 0.527832L10.3618 1.29419L9.94531 0.877686C9.44678 0.380615 8.78955 0.0742188 8.08838 0.0117188C7.38721 -0.0505371 6.68652 0.13501 6.10791 0.536377C5.49805 0.151367 4.77539 -0.0148926 4.05859 0.0649414C3.34131 0.144775 2.67285 0.466309 2.16309 0.976318L2.14746 0.991455C1.85156 1.28589 1.6167 1.63623 1.45703 2.02197C1.29736 2.40796 1.21533 2.82153 1.2168 3.23901L1.2168 10.0828L0 10.0828L0 11.2996L1.2168 11.2996L1.2168 12.4668C1.2168 12.5649 1.23242 12.6624 1.26367 12.7554L2.39551 16.1506C2.45557 16.3323 2.57178 16.4905 2.72705 16.6025C2.88281 16.7144 3.06934 16.7747 3.26074 16.7744L3.75146 16.7744L3.30762 18.2954L4.5752 18.2954L5.01855 16.7744L12.9307 16.7744L13.3872 18.2954L14.6572 18.2954L14.2007 16.7744L14.9888 16.7744C15.1807 16.7747 15.3672 16.7146 15.5225 16.6025C15.6782 16.4905 15.7944 16.3323 15.8545 16.1506L16.9863 12.7554C17.0176 12.6624 17.0332 12.5649 17.0332 12.4668L17.0332 11.2996L18.25 11.2996L18.25 10.0828L17.0332 10.0828ZM6.55957 1.73804C6.89453 1.40356 7.34863 1.21582 7.82227 1.21582C8.2959 1.21582 8.75 1.40356 9.08496 1.73804L9.50146 2.1543L6.97559 4.68018L6.55957 4.26392C6.2251 3.92871 6.03711 3.47437 6.03711 3.00098C6.03711 2.52734 6.2251 2.07324 6.55957 1.73804ZM15.8169 12.4172L14.77 15.5579L3.47998 15.5579L2.43311 12.4172L2.43311 11.2996L15.8169 11.2996L15.8169 12.4172Z" fill="#3D5224" fill-opacity="1.000000" fill-rule="nonzero"/>
</svg>
