<svg width="19.115234" height="15.019043" viewBox="0 0 19.1152 15.019" fill="none" xmlns="http://www.w3.org/2000/svg" xmlns:xlink="http://www.w3.org/1999/xlink">
	<desc>
			Created with Pixso.
	</desc>
	<defs/>
	<path id="Vector" d="M2.73047 6.8269L2.73047 2.3894C2.73193 1.93701 2.91211 1.50366 3.23193 1.18408C3.55176 0.864258 3.98535 0.684082 4.4375 0.682617L14.6777 0.682617C15.1299 0.684082 15.5635 0.864258 15.8833 1.18408C16.2026 1.50366 16.3833 1.93701 16.3843 2.3894L16.3843 6.8269L15.019 6.8269L2.73047 6.8269ZM0.682617 14.3364L0.682617 9.55762C0.68457 8.83398 0.973145 8.14062 1.48486 7.62891C1.99658 7.11743 2.68994 6.82886 3.41357 6.8269L15.7017 6.8269C16.4253 6.82886 17.1187 7.11743 17.6304 7.62891C18.1421 8.14062 18.4302 8.83398 18.4326 9.55762L18.4326 14.3364" stroke="#3D5224" stroke-opacity="1.000000" stroke-width="1.365378" stroke-linejoin="round" stroke-linecap="round"/>
	<path id="Vector" d="M0.682617 14.3359L0.682617 13.9946C0.683594 13.7234 0.791504 13.4634 0.983398 13.2715C1.17529 13.0796 1.43506 12.9714 1.70654 12.9707L17.4087 12.9707C17.6797 12.9714 17.9399 13.0796 18.1318 13.2715C18.3237 13.4634 18.4316 13.7234 18.4326 13.9946L18.4326 14.3359M3.41357 6.82642L3.41357 6.1438C3.41455 5.78198 3.55859 5.4353 3.81445 5.17944C4.07031 4.92358 4.41699 4.7793 4.77881 4.77832L8.19238 4.77832C8.5542 4.7793 8.90088 4.92358 9.15674 5.17944C9.4126 5.4353 9.55664 5.78198 9.55762 6.1438L9.55762 6.82642M9.55762 6.1438C9.55859 5.78198 9.70264 5.4353 9.9585 5.17944C10.2144 4.92358 10.561 4.7793 10.9229 4.77832L14.3364 4.77832C14.6982 4.7793 15.0449 4.92358 15.3008 5.17944C15.5566 5.4353 15.7007 5.78198 15.7017 6.1438L15.7017 6.82642" stroke="#3D5224" stroke-opacity="1.000000" stroke-width="1.365378" stroke-linejoin="round"/>
</svg>
