<svg width="19.351074" height="16.885498" viewBox="0 0 19.3511 16.8855" fill="none" xmlns="http://www.w3.org/2000/svg" xmlns:xlink="http://www.w3.org/1999/xlink">
	<desc>
			Created with Pixso.
	</desc>
	<defs/>
	<path d="M8.46973 6.94946C8.05176 7.02979 7.3125 7.33521 6.81445 7.65674C4.29102 9.26392 2.25 12.3335 2.41064 14.2622C2.52344 15.4675 2.95703 16.2551 3.72852 16.6086C4.62842 17.0105 4.98242 16.9944 5.9624 16.4319C7.03955 15.8372 7.36084 15.8372 8.4375 16.4319C9.49854 17.0266 9.72314 17.0266 10.7842 16.4319C11.2661 16.1748 11.8125 15.9497 12.0215 15.9497C12.2305 15.9497 12.7769 16.1587 13.2593 16.4319C14.2397 16.9944 14.5933 17.0105 15.4932 16.6086C16.2646 16.2551 16.6987 15.4675 16.811 14.2622C17.02 11.6746 13.4038 7.39966 10.6074 6.93335C9.59473 6.77271 9.51465 6.77271 8.46973 6.94946ZM8.66943 8.04199Q8.46436 8.0835 8.10449 8.2356Q7.70117 8.40625 7.4165 8.58984L7.41113 8.59326Q6.58643 9.11841 5.82471 9.88062Q5.0874 10.6184 4.53027 11.4546Q3.98877 12.2676 3.72217 13.0151Q3.47803 13.7 3.51758 14.1699Q3.62451 15.3164 4.16846 15.5881Q4.17969 15.594 4.19141 15.5991Q4.60547 15.7839 4.73291 15.7744Q4.89844 15.7622 5.41016 15.4688Q5.92578 15.1838 6.2627 15.0576Q6.74854 14.8755 7.2002 14.8755Q7.65186 14.8755 8.1377 15.0576Q8.47461 15.1838 8.97461 15.4597Q9.34619 15.6682 9.51318 15.7346Q9.57275 15.7583 9.60742 15.7659Q9.60938 15.7664 9.61084 15.7666Q9.6123 15.7664 9.61426 15.7659Q9.64941 15.7583 9.7085 15.7346Q9.87549 15.6682 10.2412 15.4631Q10.6938 15.2217 11.0962 15.062Q11.6582 14.8394 12.0215 14.8394Q12.3877 14.8394 12.939 15.0527Q13.3784 15.2229 13.8066 15.4658Q14.3232 15.7622 14.4888 15.7744Q14.6162 15.7839 15.0405 15.5947Q15.0459 15.592 15.0518 15.5894Q15.5962 15.3284 15.7056 14.1589Q15.7285 13.8696 15.6372 13.4731Q15.5381 13.0442 15.3135 12.5532Q14.8467 11.5337 13.9888 10.5195Q13.1255 9.5 12.1519 8.823Q11.1938 8.15698 10.4248 8.02881Q10.0269 7.96558 9.86133 7.94604Q9.68164 7.92456 9.55859 7.92529Q9.43408 7.92627 9.24658 7.95093Q9.07715 7.97314 8.66943 8.04199ZM9.61084 9.00146Q9.59717 8.99438 9.58398 8.98755Q9.50391 8.94678 9.4209 8.91162Q9.17432 8.80688 8.91748 8.7561Q8.78662 8.73022 8.65283 8.71826Q8.43359 8.69873 8.21826 8.71777Q8.03516 8.73364 7.85449 8.77759Q7.82324 8.78516 7.79199 8.79346Q7.42578 8.89258 7.09082 9.10596Q6.85156 9.26221 6.69727 9.40259Q6.4541 9.62354 6.31104 9.89331Q6.1709 10.1584 6.12158 10.4829Q6.08984 10.6914 6.08984 10.9836Q6.08984 11.3657 6.17676 11.7883Q6.2749 12.2629 6.43701 12.5667Q6.62256 12.9292 7.02441 13.3818Q7.35205 13.751 7.75977 14.1155Q8.1748 14.4868 8.53418 14.7285Q8.75439 14.877 8.94336 14.9668Q9.29004 15.1316 9.61084 15.1316Q9.93213 15.1316 10.2788 14.9668Q10.4673 14.877 10.6875 14.7285Q11.0469 14.4868 11.4619 14.1155Q11.8696 13.751 12.1973 13.3818Q12.5991 12.9292 12.7764 12.583Q12.9473 12.2629 13.0449 11.7883Q13.1323 11.3657 13.1323 10.9836Q13.1323 10.6914 13.1006 10.4829Q13.0508 10.1584 12.9106 9.89331Q12.7676 9.62354 12.5244 9.40259Q12.3701 9.26221 12.1196 9.09839Q11.8979 8.95752 11.6577 8.86694Q11.5156 8.81348 11.3672 8.77759Q11.1865 8.73364 11.0034 8.71777Q10.7881 8.69873 10.5693 8.71826Q10.4355 8.73022 10.3042 8.7561Q10.0474 8.80688 9.80127 8.91162Q9.71826 8.94678 9.6377 8.98755Q9.62451 8.99438 9.61084 9.00146ZM9.38574 10.1799C9.5625 10.3247 9.65918 10.3247 9.83594 10.1799C10.334 9.76196 10.9932 9.69775 11.5234 10.0354C11.9414 10.3086 12.0215 10.4531 12.0215 10.9836C12.0215 11.3372 11.9253 11.8193 11.7969 12.0603C11.459 12.7192 9.99658 14.021 9.61084 14.021C9.2251 14.021 7.7627 12.7192 7.42529 12.0603C7.29639 11.8193 7.2002 11.3372 7.2002 10.9836C7.2002 10.4531 7.28027 10.3086 7.69824 10.0354C8.22852 9.69775 8.8877 9.76196 9.38574 10.1799Z" fill="#3D5224" fill-opacity="1.000000" fill-rule="evenodd"/>
	<rect x="5.237305" y="1.096191" rx="1.202653" width="2.405306" height="4.045990" transform="rotate(-10.7172 5.237305 1.096191)" stroke="#3D5224" stroke-opacity="1.000000" stroke-width="1.110448"/>
	<rect x="0.687012" y="4.274658" rx="1.202653" width="2.405306" height="4.045990" transform="rotate(-16.1043 0.687012 4.274658)" stroke="#3D5224" stroke-opacity="1.000000" stroke-width="1.110448"/>
	<rect rx="1.202653" width="2.405306" height="4.045990" transform="matrix(-0.948767 -0.315977 -0.315977 0.948767 19.3511 3.99341)" stroke="#3D5224" stroke-opacity="1.000000" stroke-width="1.110448"/>
	<rect rx="1.202653" width="2.405306" height="4.045990" transform="matrix(-0.982557 -0.185961 -0.185961 0.982557 14.0244 0.693848)" stroke="#3D5224" stroke-opacity="1.000000" stroke-width="1.110448"/>
</svg>
