<svg width="20.000000" height="20.000000" viewBox="0 0 20 20" fill="none" xmlns="http://www.w3.org/2000/svg" xmlns:xlink="http://www.w3.org/1999/xlink">
	<desc>
			Created with Pixso.
	</desc>
	<defs/>
	<path d="M9 15L11 15L11 9L9 9L9 15ZM10 7C10.28 7 10.52 6.9 10.71 6.71C10.9 6.52 11 6.28 11 6C11 5.71 10.9 5.47 10.71 5.28C10.51 5.09 10.28 4.99 10 5C9.71 5 9.47 5.09 9.28 5.28C9.09 5.47 8.99 5.71 9 6C9 6.28 9.09 6.52 9.28 6.71C9.48 6.9 9.71 7 10 7ZM10 20C8.61 20 7.31 19.73 6.09 19.21C4.88 18.68 3.82 17.97 2.92 17.07C2.02 16.17 1.31 15.11 0.78 13.89C0.26 12.68 0 11.38 0 10C0 8.61 0.26 7.31 0.78 6.1C1.31 4.88 2.02 3.82 2.92 2.92C3.82 2.02 4.88 1.31 6.09 0.78C7.31 0.26 8.61 0 10 0C11.38 0 12.68 0.26 13.9 0.78C15.11 1.31 16.17 2.02 17.07 2.92C17.97 3.82 18.68 4.88 19.21 6.1C19.73 7.31 20 8.61 20 10C20 11.38 19.73 12.68 19.21 13.89C18.68 15.11 17.97 16.17 17.07 17.07C16.17 17.97 15.11 18.68 13.9 19.21C12.68 19.73 11.38 20 10 20ZM10 18C12.23 18 14.12 17.22 15.67 15.67C17.22 14.12 18 12.23 18 10C18 7.76 17.22 5.87 15.67 4.32C14.12 2.77 12.23 2 10 2C7.76 2 5.87 2.77 4.32 4.32C2.77 5.87 2 7.76 2 10C2 12.23 2.32 13.67 4.32 15.67C6.32 17.67 7.76 18 10 18Z" fill="#3D5224" fill-opacity="1.000000" fill-rule="nonzero"/>
</svg>
