<svg width="137.000000" height="137.000000" viewBox="0 0 137 137" fill="none" xmlns="http://www.w3.org/2000/svg" xmlns:xlink="http://www.w3.org/1999/xlink">
	<desc>
			Created with Pixso.
	</desc>
	<defs>
		<clipPath id="clip16_1270">
			<rect id="Logo 1" width="137.000000" height="137.000000" fill="white" fill-opacity="0"/>
		</clipPath>
	</defs>
	<rect id="Logo 1" width="137.000000" height="137.000000" fill="#FFFFFF" fill-opacity="0"/>
	<g clip-path="url(#clip16_1270)">
		<path id="Vector" d="M68.5 136.5C30.9446 136.5 0.5 106.055 0.5 68.5C0.5 30.9448 30.9446 0.5 68.5 0.5C106.055 0.5 136.5 30.9448 136.5 68.5C136.5 106.055 106.055 136.5 68.5 136.5Z" stroke="#DDDDDC" stroke-opacity="1.000000" stroke-width="1.000000"/>
		<path id="Vector" d="M29.722 58.0459C28.6042 58.1855 27.6261 58.8843 27.1071 59.9121C26.2787 61.5493 26.3585 63.8149 27.4365 69.6235C28.7639 76.73 28.7538 77.8379 27.3766 77.8379C26.9673 77.8379 26.8875 77.7979 26.4983 77.3687C25.4802 76.2407 25.081 74.6338 24.1128 67.7573C22.9451 59.543 22.985 59.7827 22.7155 59.2334C22.5757 58.9644 22.3163 58.6348 22.1366 58.5049C21.8173 58.2754 21.7674 58.2754 19.1125 58.2554C16.717 58.2456 16.4974 58.2554 17.0864 58.3652C18.1743 58.5552 18.5635 58.9644 18.5635 59.9023C18.5635 60.1919 17.7551 64.7432 16.767 70.0229C15.7789 75.293 14.9803 79.6245 15.0004 79.6445C15.0203 79.6743 16.5374 79.6743 18.3738 79.6646L21.7075 79.6343L21.0787 79.2949C19.4717 78.4268 18.4737 76.5601 18.0046 73.5859C17.805 72.3384 17.775 68.7056 17.9547 67.1084C18.1543 65.292 18.9727 59.4829 19.0526 59.2837C19.1224 59.104 19.1523 59.124 19.3918 59.4434C19.7512 59.9121 20.0007 60.9502 20.2502 63.0264C20.5098 65.1821 21.0986 69.5039 21.368 71.3003C22.0168 75.6221 23.2245 78.167 25.0411 79.0557C25.5301 79.2949 25.7198 79.335 26.4983 79.335C27.5662 79.3247 28.0952 79.1055 28.4844 78.5063C29.183 77.4487 29.0933 76.0713 27.9055 69.9028C27.1769 66.1201 26.9474 64.4937 26.9474 63.126C26.9474 61.709 27.0771 60.9102 27.4265 60.2817C27.7858 59.6328 28.1451 59.3735 28.694 59.3735C29.6122 59.3735 30.0315 60.1021 30.2809 62.0781C30.3708 62.7271 30.9397 66.9585 31.5585 71.4702L32.6863 79.6841L34.3032 79.6841L35.9301 79.6841L35.8802 79.4048C35.8503 79.2554 35.4709 76.4805 35.0317 73.2466C33.9839 65.4414 33.3749 61.2998 33.1854 60.5811C32.6464 58.5552 31.6183 57.7964 29.722 58.0459Z" fill="#DDDDDC" fill-opacity="1.000000" fill-rule="nonzero"/>
		<path id="Vector" d="M38.9302 68.7295L38.9302 79.4688L40.4772 79.4688L42.0242 79.4688L42.0242 68.7993L42.0242 58.1299L41.2057 58.0801C40.7467 58.0601 40.048 58.02 39.6588 58.0098L38.9302 58L38.9302 68.7295Z" fill="#DDDDDC" fill-opacity="1.000000" fill-rule="nonzero"/>
		<path id="Vector" d="M45.2038 58.167C45.0342 58.3467 45.0242 59.0059 45.0242 69.0063L45.0242 79.6558L47.2699 79.6558L49.5154 79.6558L48.9267 78.478C46.7209 74.0767 45.7228 69.5151 45.4633 62.6587C45.3935 60.9121 45.4034 60.8921 45.6031 60.8921C45.8824 60.8921 46.4015 61.4409 46.8107 62.1597C46.9904 62.479 48.0983 64.605 49.256 66.8804C52.9489 74.0967 54.2264 76.1724 56.2027 78.1689C56.9213 78.8872 57.3205 79.2065 57.8395 79.4561C58.5781 79.8257 59.4464 79.9551 59.9255 79.7656L60.1949 79.6558L60.1949 68.9268L60.1949 58.1973L57.9892 58.1973C56.7816 58.1973 55.8033 58.2271 55.8234 58.2671C55.8434 58.3169 56.1328 58.9058 56.4722 59.5942C58.558 63.8662 59.5862 68.5869 59.7657 74.6558L59.8257 76.8911L59.4963 76.8213C58.8077 76.6914 57.9991 75.8232 56.6418 73.7671C55.2844 71.7012 53.7075 68.8467 51.6115 64.6348C49.5555 60.5029 49.0564 59.6343 48.3578 58.9258C47.709 58.2769 47.21 58.0674 46.2219 58.0176C45.4733 57.9775 45.3535 57.9976 45.2038 58.167Z" fill="#DDDDDC" fill-opacity="1.000000" fill-rule="nonzero"/>
		<path id="Vector" d="M63.1951 68.7295L63.1951 79.4585L66.2192 79.4585C69.3931 79.4585 70.4211 79.3789 71.7187 79.0493C73.7248 78.5405 75.5713 77.2632 76.6692 75.6362C77.4976 74.3887 78.1462 72.542 78.3759 70.7158C78.5356 69.3979 78.4358 66.7134 78.1763 65.5356C77.248 61.3037 74.7129 58.8086 70.6707 58.1499C69.972 58.04 68.9141 58 66.4688 58L63.1951 58L63.1951 68.7295ZM70.1317 58.6289C73.4454 59.7065 75.162 62.791 75.3417 67.981C75.4715 71.584 74.8127 74.4785 73.4354 76.4048C72.0779 78.3008 70.1317 79.1592 67.1674 79.1592L66.2891 79.1592L66.2891 68.7192L66.2891 58.2695L67.8162 58.3193C69.0837 58.3691 69.463 58.4194 70.1317 58.6289Z" fill="#DDDDDC" fill-opacity="1.000000" fill-rule="nonzero"/>
		<path id="Vector" d="M89.0427 58.0488C86.4377 58.2886 84.1122 59.9653 82.8346 62.52C81.068 66.0332 80.9882 71.2734 82.635 74.9463C84.1022 78.21 86.9467 80.0366 90.3202 79.8569C91.6277 79.7871 92.3164 79.6074 93.4742 79.0386C95.8396 77.8809 97.4665 75.4155 98.1751 71.9419C98.4546 70.5547 98.4246 67.1216 98.1252 65.7241C97.8358 64.3867 97.5863 63.6777 97.0473 62.5703C95.9694 60.3545 94.063 58.7573 91.8673 58.2285C90.8891 57.999 90.1306 57.9492 89.0427 58.0488ZM91.0389 58.498C93.7436 59.4658 95.4104 64.5361 95.0112 70.5347C94.7717 74.1479 93.9233 76.8027 92.536 78.2998C91.1187 79.8369 89.1126 79.9766 87.6254 78.6294C86.4477 77.561 85.6093 75.6548 85.1103 72.9004C84.9106 71.8022 84.8807 71.333 84.8907 68.9077C84.8907 66.0332 84.9705 65.2148 85.4396 63.3687C86.2481 60.2046 87.8949 58.3281 89.8711 58.3281C90.2803 58.3281 90.7694 58.3979 91.0389 58.498Z" fill="#DDDDDC" fill-opacity="1.000000" fill-rule="nonzero"/>
		<path id="Vector" d="M101.368 68.7295L101.368 79.4585L102.965 79.4585L104.562 79.4585L104.562 68.8691L104.562 58.2896L107.437 58.3193C110.211 58.3491 110.321 58.3594 110.83 58.5889C113.186 59.6567 113.285 63.6392 111.02 65.875C110.211 66.6631 109.972 66.833 108.295 67.8311C106.888 68.6694 106.319 69.1587 106.199 69.6377C105.97 70.5557 108.275 74.668 110.94 78.0913C112.028 79.4785 111.988 79.4688 114.653 79.439C116.02 79.4189 116.719 79.3789 116.589 79.3188C116.11 79.0996 115.282 78.3706 114.483 77.4326C112.198 74.7778 109.263 70.3364 108.784 68.7891L108.614 68.2603L108.914 67.9907C109.074 67.8413 109.702 67.5215 110.311 67.2822C114.393 65.6655 115.851 64.0884 115.721 61.4233C115.691 60.7446 115.621 60.4155 115.421 59.9761C115.062 59.1875 114.333 58.479 113.615 58.2095C113.046 58 112.926 58 107.207 58L101.368 58L101.368 68.7295Z" fill="#DDDDDC" fill-opacity="1.000000" fill-rule="nonzero"/>
		<path id="Vector" d="M119.604 68.7295L119.604 79.4585L121.201 79.4585L122.798 79.4585L122.798 68.7295L122.798 58L121.201 58L119.604 58L119.604 68.7295Z" fill="#DDDDDC" fill-opacity="1.000000" fill-rule="nonzero"/>
		<path id="Vector" d="M46 132.551C49.6 131.75 58 130.051 62.5 136.051" stroke="#DDDDDC" stroke-opacity="1.000000" stroke-width="0.300000"/>
		<path id="Vector" d="M66.5 136.501C66.1 134.101 61 129.551 55.5 128.051C49.5 126.551 44 128.051 40 130.051" stroke="#DDDDDC" stroke-opacity="1.000000" stroke-width="0.300000"/>
		<path id="Vector" d="M71.5 136.5C74 130.5 60.4997 128.55 58.4997 124.55C56.8997 120.55 57.5 120.05 62.4997 118.05C65.2999 117.25 68.5 117.55 73 116.05L81.3792 110.628L81.5 110.55M81.3792 110.628C84.2758 108.565 89 108.05 96 111.55C99.2 112.75 101.5 110.383 104 109.55C106.4 108.75 108.833 109.883 110.5 111.05C112.5 113.55 109.333 116.883 107.5 117.55C104.5 119.55 104.167 124.05 104.5 126.55" stroke="#DDDDDC" stroke-opacity="1.000000" stroke-width="0.300000"/>
		<path id="Vector" d="M76.9998 135.999C78.4998 127.499 71.3892 128.354 68.4998 126.549C65.2997 124.549 63.9998 123.049 66.4996 121.549C71.2996 119.549 73.9995 121.049 82.9995 115.549C86.1995 113.949 95.9995 119.549 99.4995 129.049" stroke="#DDDDDC" stroke-opacity="1.000000" stroke-width="0.500000"/>
		<path id="Vector" d="M83 135.051C83 131.551 82.5 127.551 85.5 126.551C88.2441 125.453 91.5 129.551 94 131.551" stroke="#DDDDDC" stroke-opacity="1.000000" stroke-width="0.300000"/>
		<path id="Vector" d="M31.5 125.5C37.5 117.5 42 109.5 58 114C66.8 116.8 75.6667 111.167 79 108C83.4 103.601 90.5 104.833 93.5 106C97.5 107.601 102.5 103.75 107 104.5C110 105 116.5 110 118.5 115" stroke="#DDDDDC" stroke-opacity="1.000000" stroke-width="0.500000"/>
		<path id="Vector" d="M28 122.499C33 115.999 39 112.035 43.5 108.499C48 104.964 46.5 103.499 56 108.499C60.8 110.499 68 109.499 74 106.999C82 101.399 87.5 100.666 89.5 100.999C94.3 101.799 96.5 102.499 100 101.999C105.048 101.278 106 101.499 109.5 102.499C111.9 103.299 117.5 106.499 120.5 111.499" stroke="#DDDDDC" stroke-opacity="1.000000" stroke-width="0.300000"/>
		<path id="Vector" d="M122.5 110C116.5 101.5 109 98.5 100 98.5C93.5 99 91 97 86.5 97C82 97.5 79.3942 101.15 76 102.693C75.0889 103.107 74.2209 103.303 73.5 103.5C68 105 60 106 58.5 101C57.9 99 58 93.5 49.5 93.5C39.5 95 40 104.5 38 108.5C35.6 112.5 28.5 115 25.5 121" stroke="#DDDDDC" stroke-opacity="1.000000" stroke-width="0.300000"/>
		<path id="Vector" d="M124 107.5C119 100 109.5 97.5 96 93.5C88 90 85 91.7505 81.5 94.5005C75.9 98.9004 74 101 70 99.5C66.4 98.7002 64 94.7856 62.5 93.5C59 90.5 48.4337 91.1133 46.5 91.5C41.5 92.5 37.5 98 36 101.5C34.4 106.3 31.3333 108.833 30 109.5C26 111.5 22.5 114.5 21 116.5" stroke="#DDDDDC" stroke-opacity="1.000000" stroke-width="0.500000"/>
		<path id="Vector" d="M126 104C123.6 100.4 121 98 115 96.9995C101.5 94 97.278 87.3389 89 85.4995C84.5 84.5 81.8207 88.2305 78.5 92.4995C76.7175 94.7915 73 97 70 95C64 90 60.5 88 53.5 88C45.5 88 38.1667 94 35.5 97.5C30.7634 103.717 26 107.5 16 111" stroke="#DDDDDC" stroke-opacity="1.000000" stroke-width="0.300000"/>
		<path id="Vector" d="M128.5 100.5C127 94.9995 119.5 95.4995 116.5 94.4995C113 92.9995 114.167 90.666 116 89.4995C117.6 88.6997 121 88.9995 125.5 88.4995C127.488 88.2788 130 85.4995 130 83.4995C130 79.4995 130.5 74.9995 134 73.9995C137 73.1426 136.5 73.4995 136 73.4995" stroke="#DDDDDC" stroke-opacity="1.000000" stroke-width="0.300000"/>
		<path id="Vector" d="M10 102.5C18 98.1001 19.554 91 19.054 88C18.5 85.5 11.5539 86 9.05402 84C4.10437 80.04 1.5 72 1 67C1 61.5 2.05389 56 3.55402 53.5C5.5 51 7.7207 49.8335 9.55408 49C11.5541 48.0908 13.5541 45.5 13.5541 43C13.5541 39.0518 10.5539 35.5 10.0541 34" stroke="#DDDDDC" stroke-opacity="1.000000" stroke-width="0.500000"/>
		<path id="Vector" d="M129.5 39.5C126 44.5 122.554 53 127.054 59C129.054 62.5 134.054 62.5 136.554 64.5" stroke="#DDDDDC" stroke-opacity="1.000000" stroke-width="0.300000"/>
		<path id="Vector" d="M16 26.001C18.4 31.6011 21 37.334 22 39.501C24 44.0005 26.5 46.0005 30 49.501C35 53.0005 42 54.0005 47 49.501C51 45.0005 56.3333 41.834 60 39.501C65.2 36.7007 65.8333 29.334 65.5 26.001C65.1 23.2007 64 17.5005 67 14.501C68.8413 12.6597 69.5 12.0005 73 10.001C77 7.50049 80 4.00049 81.5 6.50098C83.5 10.5005 85 14.1675 85.5 14.501C87 16.501 91 15.501 94 18.001C97.2 19.6011 98.5 25.001 96.5 30.001C95 36.001 97.5 39.001 102 42.501C107.2 45.7007 113.5 44.5005 115 43.001C116.5 41.501 118 35.0005 123 28.5005" stroke="#DDDDDC" stroke-opacity="1.000000" stroke-width="0.300000"/>
		<path id="Vector" d="M47 4C43.5 5 42.8292 5.24756 40.5003 8C35 14.5 26.5 21.5 25.5001 23C22.5001 25.7002 23 34 27.0003 42C29.0004 46 31.9875 47.5 35.5003 49.6934C35.6768 49.8037 35.844 49.9062 36.0003 50C39 51.7998 44.167 48.5 46.5003 46C49.3003 43 51 40 59.0003 36.5C64.5 33 62.3337 24.8335 62.0003 20C62.0003 16.3999 63.5837 13 66.5003 10.5C70.0003 7.5 74.3337 3.1665 76.0003 0.5" stroke="#DDDDDC" stroke-opacity="1.000000" stroke-width="0.500000"/>
		<path id="Vector" d="M56.4999 1.5C56.4999 6 51.0958 6.86768 45.9999 8C43.6094 8.53125 39.0001 15 35.5001 18C31.0001 21.5 27.7031 25.8906 26.9999 28C25.4 34.3999 30.9999 42.6665 33.9999 46C36.4 48 40.3333 46.8335 42.0001 46C46.0001 42.3999 51.3333 37.8335 53.5001 36C59.5 31.5 59.5001 32 59.5001 20.5C59.5001 18.1001 59.0001 9.5 63.5001 7.5C66.0001 6 69.0001 5.5 71.5001 0.5" stroke="#DDDDDC" stroke-opacity="1.000000" stroke-width="0.300000"/>
		<path id="Vector" d="M36 21.9995C34.3333 23.4995 31.2828 27.02 31 28.9995C30.5 32.4995 31 37.9995 34 41.4995C35.2856 42.9995 38.1 44.1997 40.5 42.9995C41.8333 41.833 44.9 39.1997 46.5 37.9995C48.3333 36.9995 52.6 34.0996 55 30.4995C57 27.4995 57.9 20.9995 57 16.4995C56.6666 14.833 55.4 11.2998 53 10.4995C51.3333 9.99951 47.1 9.8999 43.5 13.4995C42.1666 15.1665 38.8 19.1997 36 21.9995Z" stroke="#DDDDDC" stroke-opacity="1.000000" stroke-width="0.300000"/>
		<path id="Vector" d="M38.9999 24.999C30.4999 34.499 37 41.394 40.4999 38.999C43.6666 36.8325 50.4999 31.8989 52.4999 29.499C55.9999 22.999 53.8999 16.0991 51.4999 14.499C48.4999 12.999 45.6999 15.999 44.4999 17.999C43.4999 19.3325 40.9999 22.5991 38.9999 24.999Z" stroke="#DDDDDC" stroke-opacity="1.000000" stroke-width="0.300000"/>
		<path id="Vector" d="M19 22C21.4 20.7998 27 18 29.5 16C31.3213 14.543 35 10.6665 37 8" stroke="#DDDDDC" stroke-opacity="1.000000" stroke-width="0.300000"/>
		<path id="Vector" d="M59 1C59 2.5 59.0761 3.65283 59.4999 4.5C60.1184 5.73682 65 3.5 67 2.5C67.8 2.1001 69 1.1665 69.5 0.5" stroke="#DDDDDC" stroke-opacity="1.000000" stroke-width="0.300000"/>
		<path id="Vector" d="M89 3.5C88.5 7.5 88.761 9 91.2609 10C93.7609 11 97.261 12.5 98.761 17C99.8059 20.1348 102.261 23.5 100.761 26C99.161 28.3999 97.761 33.5 100.261 37C102.261 39.7998 105.761 41.5 108.761 41.5C110.361 41.5 112 41.5 113.261 40C114.368 38.6831 118 28.5 120 24.5" stroke="#DDDDDC" stroke-opacity="1.000000" stroke-width="0.300000"/>
		<path id="Vector" d="M111.5 15.501C108.7 14.7012 108 13.501 106.261 14.001C105.045 14.3501 105.261 17.001 106.761 21.501C107.855 24.7827 104.928 28.1675 103.761 29.501C102.161 31.1011 102.261 35.001 104.261 37.001C105.461 38.6011 110.261 39.501 112.261 36.001C113.296 34.1895 116.761 24.501 116.261 20.001" stroke="#DDDDDC" stroke-opacity="1.000000" stroke-width="0.300000"/>
		<path id="Vector" d="M89.0392 29C90.0392 30.8335 91.9391 34.8999 91.5392 36.5C91.3725 37 90.7392 37.8999 89.5392 37.5C88.8725 37.1665 87.4391 36 87.0392 34C86.7809 32.709 87.8392 30.2002 89.0392 29Z" stroke="#DDDDDC" stroke-opacity="1.000000" stroke-width="0.200000"/>
		<path id="Vector" d="M68.5002 22.5005C68.6667 24.3335 68.8002 28.3003 68.0002 29.5005C67.1667 31.3335 65.5002 35.2002 65.5002 36.0005C64.9999 39.5005 66.7001 39.9004 67.5002 39.5005C69.0002 38.8335 72.4001 37.5005 74.0002 37.5C78.0002 37 78.9999 35.0005 80.0002 30C81.5002 24.5 76.8646 24.4229 73.5002 22.5005C70.0002 20.5 68.3854 21.2383 68.5002 22.5005Z" stroke="#DDDDDC" stroke-opacity="1.000000" stroke-width="0.200000"/>
		<path id="Vector" d="M70 30.5015C69.3619 33.6924 75.2 35.3018 76 34.5015C77 33.5015 78.5 28.5015 78 26.5015C77.6801 25.2222 75.0733 24.5386 74 24.0015C73 23.5015 71.5 23.501 71 26.0015C70.8334 26.6685 70.4 28.5015 70 30.5015Z" stroke="#DDDDDC" stroke-opacity="1.000000" stroke-width="0.200000"/>
		<path id="Vector" d="M72 30.4995C72 32.499 75.5 33.999 76 28.4995C76.5 24.999 73.5 24.999 73 25.9995C72.5 26.999 72 29.2993 72 30.4995Z" stroke="#DDDDDC" stroke-opacity="1.000000" stroke-width="0.200000"/>
		<path id="Vector" d="M95.4999 37.5C93.4999 41.5 89 41.5 88 41C86.3333 40.1665 82.8 38.1001 82 36.5C81.5 34.5 82.5 31 83.5 28.5C84.5 26 81.3201 23.6602 79 22.5C77 21.5 74.5 19.5 72.4999 18C71.3332 17.1665 69.2999 15.2998 70.4999 14.5C71.9999 13.1665 75.4999 10.3999 77.4999 10C79.9999 10 82.3333 13 83.9999 16C84.8332 17.5 87.0999 20.5 89.4999 20.5C90.6666 20.3335 93.0999 20.3003 93.4999 21.5C94.3332 23.1665 95.8999 26.7002 95.4999 27.5C94.9999 28.5 93.4999 30.5 93.9999 32C94.4999 33 96 36 95.4999 37.5Z" stroke="#DDDDDC" stroke-opacity="1.000000" stroke-width="0.200000"/>
		<path id="Vector" d="M84.5001 25.001C85.0002 25.6675 85.5002 27.1675 85.0002 28.501C84.5002 29.834 83.5002 33.001 83.5002 35.001C83.5002 36.001 84.4003 37.3008 86.0002 38.501C87.1669 39.1675 89.0002 41.001 91.0002 40.001C94.0002 39.001 94.5002 37.001 94.0002 35.001C93.0002 33.001 93.0002 31.6763 93.0002 30.501C93.0002 27.501 94.0002 23.501 92.0002 22.001C90.5002 21.001 88.0002 22.501 87.0002 21.501C86.0002 21.001 84.5002 18.001 82.5002 15.501C81.0002 12.501 78.5002 11.001 77.0001 11.501C74.5002 12.501 72.0002 14.501 73.0001 16.501C74.0002 18.501 77.5001 21.2007 79.5001 22.001C80.6669 22.501 83.5002 23.501 84.5001 25.001Z" stroke="#DDDDDC" stroke-opacity="1.000000" stroke-width="0.200000"/>
		<path id="Vector" d="M75.4998 13.499C73 15.499 75.3998 18.2993 76.9998 19.499C78.5 20.624 82 22.499 83.4998 21.999C84.5 21.499 84.5 19.999 83.9998 18.999C83.1665 17.499 81.3166 14.8613 79.4998 13.499C77.5 11.999 76.2998 13.0991 75.4998 13.499Z" stroke="#DDDDDC" stroke-opacity="1.000000" stroke-width="0.200000"/>
		<path id="Vector" d="M76.0001 16C76.5001 17.5 78.8001 19.6001 80.0001 20C81.3195 20.4399 82.5001 20.3003 82.5001 19.5C82.5001 18.5 81.2001 16.7002 80.0001 15.5C78.5 14 75.5001 13.5 76.0001 16Z" stroke="#DDDDDC" stroke-opacity="1.000000" stroke-width="0.200000"/>
		<path id="Vector" d="M85.5 33C85.3333 34.8335 85 36 88.5001 39C89.6668 39.3335 92.2001 39.5 93.0001 37.5C93.5002 36 92.5826 34.8306 92.0001 32.5C91.5002 30.5 92 27 91.0001 25C89.921 22.8418 87.8776 23.7412 87.5 25C86.9999 27.5 85.9998 31 85.5 33Z" stroke="#DDDDDC" stroke-opacity="1.000000" stroke-width="0.200000"/>
	</g>
</svg>
