<svg width="156.000000" height="156.000000" viewBox="0 0 156 156" fill="none" xmlns="http://www.w3.org/2000/svg" xmlns:xlink="http://www.w3.org/1999/xlink">
	<desc>
			Created with Pixso.
	</desc>
	<defs>
		<clipPath id="clip16_1303">
			<rect id="QR Code" width="156.000000" height="156.000000" fill="white" fill-opacity="0"/>
		</clipPath>
	</defs>
	<rect id="QR Code" width="156.000000" height="156.000000" fill="#FFFFFF" fill-opacity="0"/>
	<g clip-path="url(#clip16_1303)">
		<path id="Vector" d="M0 0L156 0L156 156L0 156L0 0Z" fill="#FFFFFF" fill-opacity="1.000000" fill-rule="evenodd"/>
		<path id="Vector" d="M18.3259 13.1367L13.1368 13.1367L13.1368 49.46L49.4602 49.46L49.4602 13.1367L18.3259 13.1367ZM18.3259 18.3257L44.2711 18.3257L44.2711 23.5146L44.2711 44.271L39.0822 44.271L23.5149 44.271L18.3259 44.271L18.3259 18.3257ZM59.8383 13.1367L54.6493 13.1367L54.6493 18.3257L65.0273 18.3257L65.0273 13.1367L59.8383 13.1367ZM80.5945 13.1367L75.4055 13.1367L75.4055 18.3257L70.2164 18.3257L70.2164 23.5146L65.0273 23.5146L65.0273 28.7041L59.8383 28.7041L59.8383 39.082L65.0273 39.082L65.0273 33.8931L75.4055 33.8931L75.4055 23.5146L80.5945 23.5146L80.5945 33.8931L85.7836 33.8931L85.7836 23.5146L90.9727 23.5146L90.9727 13.1367L85.7836 13.1367L85.7836 18.3257L80.5945 18.3257L80.5945 13.1367ZM101.351 13.1367L96.1616 13.1367L96.1616 23.5146L101.351 23.5146L101.351 13.1367ZM111.729 13.1367L106.54 13.1367L106.54 49.46L142.863 49.46L142.863 13.1367L111.729 13.1367ZM111.729 18.3257L137.674 18.3257L137.674 44.271L132.485 44.271L116.918 44.271L111.729 44.271L111.729 18.3257ZM28.704 23.5146L23.5149 23.5146L23.5149 39.082L39.0822 39.082L39.0822 23.5146L28.704 23.5146ZM59.8383 23.5146L54.6493 23.5146L54.6493 28.7041L59.8383 28.7041L59.8383 23.5146ZM96.1616 23.5146L90.9727 23.5146L90.9727 28.7041L90.9727 33.8931L96.1616 33.8931L96.1616 23.5146ZM122.107 23.5146L116.918 23.5146L116.918 39.082L132.485 39.082L132.485 23.5146L122.107 23.5146ZM80.5945 33.8931L75.4055 33.8931L75.4055 49.46L70.2164 49.46L70.2164 54.6489L80.5945 54.6489L80.5945 59.8384L65.0273 59.8384L65.0273 70.2163L59.8383 70.2163L59.8383 75.4053L65.0273 75.4053L65.0273 80.5942L70.2164 80.5942L70.2164 85.7832L80.5945 85.7832L80.5945 80.5942L85.7836 80.5942L85.7836 90.9727L80.5945 90.9727L75.4055 90.9727L75.4055 96.1616L85.7836 96.1616L85.7836 101.351L96.1616 101.351L96.1616 111.729L90.9727 111.729L90.9727 106.54L85.7836 106.54L85.7836 101.351L75.4055 101.351L75.4055 111.729L85.7836 111.729L85.7836 116.918L96.1616 116.918L96.1616 122.107L101.351 122.107L101.351 127.296L111.729 127.296L111.729 122.107L132.485 122.107L132.485 116.918L137.674 116.918L137.674 111.729L122.107 111.729L122.107 101.351L127.296 101.351L127.296 96.1616L122.107 96.1616L122.107 90.9727L116.918 90.9727L116.918 96.1616L106.54 96.1616L106.54 80.5942L96.1616 80.5942L96.1616 85.7832L90.9727 85.7832L90.9727 80.5942L96.1616 80.5942L96.1616 70.2163L101.351 70.2163L101.351 59.8384L85.7836 59.8384L85.7836 54.6489L90.9727 54.6489L90.9727 39.082L90.9727 33.8931L85.7836 33.8931L85.7836 39.082L80.5945 39.082L80.5945 33.8931ZM101.351 33.8931L96.1616 33.8931L96.1616 39.082L101.351 39.082L101.351 33.8931ZM70.2164 39.082L65.0273 39.082L65.0273 49.46L70.2164 49.46L70.2164 39.082ZM80.5945 44.271L85.7836 44.271L85.7836 49.46L80.5945 49.46L80.5945 44.271ZM59.8383 44.271L54.6493 44.271L54.6493 54.6489L59.8383 54.6489L59.8383 44.271ZM101.351 44.271L96.1616 44.271L96.1616 49.46L101.351 49.46L101.351 44.271ZM18.3259 54.6489L13.1368 54.6489L13.1368 59.8384L18.3259 59.8384L18.3259 54.6489ZM28.704 54.6489L23.5149 54.6489L23.5149 59.8384L28.704 59.8384L28.704 54.6489ZM44.2711 54.6489L39.0822 54.6489L39.0822 59.8384L49.4602 59.8384L49.4602 54.6489L44.2711 54.6489ZM65.0273 54.6489L59.8383 54.6489L59.8383 59.8384L65.0273 59.8384L65.0273 54.6489ZM106.54 54.6489L101.351 54.6489L101.351 59.8384L106.54 59.8384L106.54 65.0273L111.729 65.0273L111.729 70.2163L116.918 70.2163L116.918 80.5942L111.729 80.5942L111.729 85.7832L122.107 85.7832L122.107 80.5942L127.296 80.5942L127.296 90.9727L137.674 90.9727L137.674 96.1616L132.485 96.1616L132.485 106.54L137.674 106.54L137.674 111.729L142.863 111.729L142.863 80.5942L137.674 80.5942L137.674 85.7832L132.485 85.7832L132.485 80.5942L137.674 80.5942L137.674 70.2163L132.485 70.2163L132.485 75.4053L122.107 75.4053L122.107 70.2163L127.296 70.2163L127.296 65.0273L132.485 65.0273L132.485 54.6489L127.296 54.6489L127.296 59.8384L122.107 59.8384L122.107 65.0273L116.918 65.0273L116.918 59.8384L111.729 59.8384L111.729 54.6489L106.54 54.6489ZM142.863 54.6489L137.674 54.6489L137.674 65.0273L142.863 65.0273L142.863 54.6489ZM23.5149 59.8384L18.3259 59.8384L18.3259 65.0273L13.1368 65.0273L13.1368 70.2163L23.5149 70.2163L23.5149 59.8384ZM33.8931 59.8384L28.704 59.8384L28.704 70.2163L23.5149 70.2163L23.5149 75.4053L28.704 75.4053L28.704 80.5942L23.5149 80.5942L23.5149 75.4053L13.1368 75.4053L13.1368 85.7832L18.3259 85.7832L18.3259 90.9727L23.5149 90.9727L23.5149 96.1616L28.704 96.1616L28.704 85.7832L39.0822 85.7832L39.0822 75.4053L33.8931 75.4053L33.8931 70.2163L39.0822 70.2163L39.0822 59.8384L33.8931 59.8384ZM54.6493 59.8384L49.4602 59.8384L49.4602 65.0273L44.2711 65.0273L44.2711 70.2163L54.6493 70.2163L54.6493 65.0273L59.8383 65.0273L59.8383 59.8384L54.6493 59.8384ZM80.5945 65.0273L90.9727 65.0273L90.9727 70.2163L90.9727 75.4053L70.2164 75.4053L70.2164 70.2163L80.5945 70.2163L80.5945 65.0273ZM44.2711 70.2163L39.0822 70.2163L39.0822 75.4053L44.2711 75.4053L44.2711 70.2163ZM111.729 70.2163L106.54 70.2163L106.54 75.4053L111.729 75.4053L111.729 70.2163ZM49.4602 75.4053L44.2711 75.4053L44.2711 80.5942L54.6493 80.5942L54.6493 85.7832L39.0822 85.7832L39.0822 90.9727L59.8383 90.9727L59.8383 85.7832L65.0273 85.7832L65.0273 80.5942L59.8383 80.5942L59.8383 75.4053L49.4602 75.4053ZM90.9727 90.9727L96.1616 90.9727L96.1616 96.1616L90.9727 96.1616L90.9727 90.9727ZM65.0273 90.9727L59.8383 90.9727L59.8383 96.1616L65.0273 96.1616L65.0273 106.54L59.8383 106.54L59.8383 111.729L65.0273 111.729L65.0273 122.107L59.8383 122.107L59.8383 127.296L54.6493 127.296L54.6493 132.485L65.0273 132.485L65.0273 127.296L70.2164 127.296L70.2164 101.351L75.4055 101.351L75.4055 96.1616L70.2164 96.1616L70.2164 90.9727L65.0273 90.9727ZM18.3259 96.1616L13.1368 96.1616L13.1368 101.351L18.3259 101.351L18.3259 96.1616ZM33.8931 96.1616L28.704 96.1616L28.704 101.351L39.0822 101.351L39.0822 96.1616L33.8931 96.1616ZM49.4602 96.1616L44.2711 96.1616L44.2711 101.351L49.4602 101.351L49.4602 96.1616ZM101.351 101.351L116.918 101.351L116.918 116.918L101.351 116.918L101.351 101.351ZM18.3259 106.54L13.1368 106.54L13.1368 142.863L49.4602 142.863L49.4602 106.54L18.3259 106.54ZM18.3259 111.729L44.2711 111.729L44.2711 116.918L44.2711 137.674L18.3259 137.674L18.3259 111.729ZM111.729 106.54L106.54 106.54L106.54 111.729L111.729 111.729L111.729 106.54ZM59.8383 111.729L54.6493 111.729L54.6493 116.918L59.8383 116.918L59.8383 111.729ZM28.704 116.918L23.5149 116.918L23.5149 132.485L39.0822 132.485L39.0822 116.918L28.704 116.918ZM142.863 116.918L137.674 116.918L137.674 122.107L142.863 122.107L142.863 116.918ZM90.9727 122.107L85.7836 122.107L85.7836 127.296L80.5945 127.296L80.5945 132.485L65.0273 132.485L65.0273 137.674L54.6493 137.674L54.6493 142.863L70.2164 142.863L70.2164 137.674L75.4055 137.674L75.4055 142.863L90.9727 142.863L90.9727 122.107ZM127.296 127.296L122.107 127.296L122.107 132.485L101.351 132.485L101.351 137.674L96.1616 137.674L96.1616 142.863L122.107 142.863L122.107 137.674L127.296 137.674L127.296 142.863L132.485 142.863L132.485 127.296L127.296 127.296ZM142.863 137.674L137.674 137.674L137.674 142.863L142.863 142.863L142.863 137.674Z" fill="#000000" fill-opacity="1.000000" fill-rule="evenodd"/>
	</g>
</svg>
