<svg width="14.559570" height="18.274170" viewBox="0 0 14.5596 18.2742" fill="none" xmlns="http://www.w3.org/2000/svg" xmlns:xlink="http://www.w3.org/1999/xlink">
	<desc>
			Created with Pixso.
	</desc>
	<defs/>
	<path d="M9.95605 0.079834C9.84863 0.136963 9.77393 0.211914 9.7168 0.319092L9.63477 0.472412L9.63477 4.75342L9.63477 9.03076L5.03955 9.03076L0.440918 9.03076L0.297852 9.11279C0.219727 9.15576 0.119629 9.25562 0.0732422 9.33423C-0.00537109 9.46631 -0.00878906 9.50562 0.00878906 9.89136C0.0732422 11.3516 0.787109 12.8083 1.90137 13.7437L2.16162 13.9651L1.39795 15.7502C0.837402 17.0679 0.637207 17.5713 0.637207 17.6748C0.637207 18.2068 1.25146 18.4709 1.62256 18.1033C1.68701 18.0388 1.81885 17.7817 1.96191 17.4497L2.19727 16.9036L5.41064 16.8928L8.62402 16.8857L8.8457 17.3962C9.12744 18.0496 9.17383 18.1245 9.35986 18.2068C9.55615 18.2996 9.69189 18.2959 9.88477 18.1995C10.0737 18.1033 10.2061 17.8997 10.2061 17.696C10.2061 17.5962 10.0059 17.0928 9.48828 15.8752C9.0918 14.947 8.74561 14.1401 8.7207 14.0793C8.67432 13.9688 8.67432 13.9688 8.93115 13.7473C9.29541 13.4331 9.67773 12.9976 9.94531 12.5906C10.395 11.9084 10.6309 11.28 10.7915 10.3481C10.813 10.2268 10.8271 10.2161 10.9663 10.1948C11.2056 10.1589 11.6304 10.0056 11.9375 9.84839C12.9907 9.31274 13.8511 8.25952 14.2583 7.01343C14.8403 5.23535 14.5688 3.28247 13.5371 1.82202C13.4443 1.6936 13.2407 1.45093 13.0835 1.28662C12.4126 0.590332 11.645 0.179688 10.7593 0.0476074C10.2988 -0.0236816 10.1343 -0.0166016 9.95605 0.079834ZM11.2983 1.42578C12.3018 1.87915 13.0303 2.91479 13.3013 4.26782C13.394 4.73926 13.3838 5.61035 13.2837 6.09229C12.9907 7.45264 12.166 8.53442 11.1235 8.92017C11.0093 8.95947 10.895 8.99512 10.8662 8.99512C10.8198 8.99512 10.813 8.49878 10.813 5.1355L10.813 1.27588L10.9448 1.30078C11.0166 1.31519 11.1772 1.36865 11.2983 1.42578ZM9.59912 10.2769C9.59912 10.5481 9.29883 11.3765 9.04932 11.7979C8.29932 13.0581 6.896 13.8508 5.42139 13.8508C3.80762 13.8508 2.33691 12.9333 1.6084 11.4766C1.46191 11.1838 1.28369 10.6411 1.2583 10.4053L1.2334 10.209L5.41797 10.209C9.48096 10.209 9.59912 10.2126 9.59912 10.2769ZM7.88525 15.147C8.00635 15.436 8.10303 15.6824 8.09229 15.6897C8.08154 15.7002 6.87109 15.7039 5.39648 15.7002L2.71875 15.6897L2.94727 15.1541C3.07227 14.8613 3.18311 14.615 3.18994 14.6042C3.20068 14.5969 3.34717 14.6399 3.51855 14.7007C4.19678 14.9397 4.7251 15.0327 5.42139 15.0327C5.93945 15.0327 6.27148 14.9934 6.72461 14.8826C7.01025 14.8113 7.45312 14.6614 7.56006 14.6006C7.59229 14.5828 7.62793 14.5791 7.63867 14.5935C7.64941 14.6077 7.76025 14.8577 7.88525 15.147Z" fill="#464646" fill-opacity="1.000000" fill-rule="nonzero"/>
	<path d="M5.18945 3.15381C5.04297 3.22168 4.89307 3.3894 4.8501 3.53589C4.82861 3.60718 4.81445 4.49634 4.81445 5.78174C4.81445 7.77393 4.82178 7.91675 4.88232 8.05249C5.08936 8.50586 5.70703 8.53076 5.94971 8.0918C6.00342 7.98828 6.01074 7.79175 6.02148 5.96021C6.02832 4.84985 6.02148 3.84302 6.01074 3.72144C5.98193 3.44653 5.88574 3.29297 5.67139 3.18237C5.49268 3.09302 5.34668 3.08594 5.18945 3.15381Z" fill="#464646" fill-opacity="1.000000" fill-rule="nonzero"/>
	<path d="M2.77588 4.99268C2.61182 5.04614 2.49756 5.14258 2.42236 5.29614C2.35449 5.43896 2.35107 5.51025 2.35107 6.69214C2.35107 7.85962 2.35449 7.94531 2.42236 8.08105C2.6333 8.51294 3.24707 8.5166 3.4541 8.08813C3.52588 7.94531 3.5293 7.87744 3.5293 6.69214C3.5293 5.50659 3.52588 5.43896 3.4541 5.29614C3.41504 5.21045 3.32959 5.11035 3.26514 5.07104C3.12939 4.98535 2.9082 4.94971 2.77588 4.99268Z" fill="#464646" fill-opacity="1.000000" fill-rule="nonzero"/>
	<path d="M7.63867 5.03906C7.3208 5.20337 7.33154 5.14258 7.3208 6.64941C7.31396 7.89185 7.31738 7.98462 7.37793 8.10254C7.46387 8.25952 7.62793 8.37378 7.81396 8.40601C7.99951 8.43799 8.23486 8.33105 8.37061 8.15234L8.47412 8.02026L8.47412 6.69214C8.47412 5.22119 8.48145 5.28174 8.23145 5.08911C8.05273 4.95337 7.83496 4.93555 7.63867 5.03906Z" fill="#464646" fill-opacity="1.000000" fill-rule="nonzero"/>
</svg>
