<svg width="18.785645" height="13.126709" viewBox="0 0 18.7856 13.1267" fill="none" xmlns="http://www.w3.org/2000/svg" xmlns:xlink="http://www.w3.org/1999/xlink">
	<desc>
			Created with Pixso.
	</desc>
	<defs/>
	<path d="M9.03809 0.046875C8.63428 0.173828 8.34326 0.427979 8.17139 0.797852C8.08154 0.991943 8.06641 1.07788 8.05518 1.45898L8.04053 1.896L7.90234 1.92212C4.33057 2.54614 1.51025 5.4563 0.968262 9.06152C0.938477 9.27441 0.912598 9.51733 0.912598 9.60327C0.912598 9.69287 0.897461 9.78247 0.882324 9.80493C0.867676 9.83105 0.72168 9.85352 0.549805 9.86108C0.258789 9.87598 0.232422 9.8833 0.120605 9.99927C0.000976562 10.1187 -0.00292969 10.1262 0.000976562 10.4475C0.00830078 11.4302 0.635742 12.3865 1.56641 12.8459C2.19385 13.1523 1.48047 13.1262 9.39307 13.1262C17.3057 13.1262 16.5884 13.1523 17.2197 12.8459C17.7764 12.5769 18.228 12.1211 18.5083 11.5571C18.6987 11.1648 18.7773 10.8472 18.7847 10.4475C18.7886 10.1262 18.7847 10.1187 18.6655 9.99927C18.5493 9.8833 18.5269 9.87598 18.228 9.86108C17.8623 9.84595 17.9033 9.90576 17.8398 9.30444C17.7573 8.51611 17.5034 7.5896 17.1636 6.8313C16.0464 4.34692 13.79 2.52734 11.145 1.9707L10.7451 1.88867L10.7305 1.45532C10.7192 1.07788 10.7041 0.991943 10.6143 0.797852C10.5024 0.554932 10.312 0.338135 10.0991 0.199951C9.80762 0.0131836 9.35547 -0.0539551 9.03809 0.046875ZM9.70654 1.03687C9.81494 1.14526 9.82227 1.17505 9.8374 1.47021L9.84863 1.78784L9.39307 1.78784L8.93701 1.78784L8.94824 1.47388C8.96338 1.20117 8.97461 1.14526 9.05664 1.05933C9.17969 0.924805 9.26953 0.887451 9.44531 0.906006C9.5459 0.917236 9.62842 0.958496 9.70654 1.03687ZM10.125 2.72534C12.7998 2.98706 15.1572 4.65308 16.293 7.08521C16.6294 7.80249 16.8984 8.77393 16.9692 9.52856L16.999 9.85718L9.39307 9.85718L1.78662 9.85718L1.81641 9.52856C2.00684 7.46631 3.15381 5.45264 4.87256 4.18237C6.37061 3.06909 8.27197 2.54248 10.125 2.72534ZM17.8359 10.825C17.8359 10.8623 17.7725 11.019 17.6978 11.1685C17.5298 11.5049 17.2007 11.8447 16.8794 12.0129C16.4087 12.2595 16.8647 12.2483 9.39307 12.2483C1.9209 12.2483 2.37695 12.2595 1.90625 12.0129C1.58496 11.8447 1.25586 11.5049 1.08789 11.1685C1.01318 11.019 0.949707 10.8623 0.949707 10.825C0.949707 10.7576 1.17773 10.7539 9.39307 10.7539C17.6079 10.7539 17.8359 10.7576 17.8359 10.825Z" fill="#464646" fill-opacity="1.000000" fill-rule="nonzero"/>
</svg>
