<svg width="18.986328" height="17.806641" viewBox="0 0 18.9863 17.8066" fill="none" xmlns="http://www.w3.org/2000/svg" xmlns:xlink="http://www.w3.org/1999/xlink">
	<desc>
			Created with Pixso.
	</desc>
	<defs/>
	<path d="M8.73438 0.048584C8.50439 0.148682 8.38574 0.408447 8.44141 0.69043C8.45996 0.794434 8.51904 0.879639 8.66406 1.01709C8.92383 1.26196 8.99414 1.40649 8.99414 1.68481C8.99414 1.98535 8.89404 2.1709 8.6084 2.38989C8.09277 2.78687 7.8291 3.3064 7.8291 3.92969C7.8291 4.44897 8.00732 4.87939 8.37061 5.25415C8.77881 5.67358 9.1167 5.71069 9.39844 5.37671C9.61377 5.12427 9.56543 4.86084 9.25 4.55664C9.00879 4.323 8.94238 4.18945 8.94238 3.92969C8.94238 3.68481 9.00879 3.52881 9.18359 3.37305C9.69922 2.90552 9.76611 2.8313 9.90332 2.55298C10.2778 1.80737 10.1519 0.961426 9.58398 0.360352C9.26514 0.0263672 9.00537 -0.0700684 8.73438 0.048584Z" fill="#464646" fill-opacity="1.000000" fill-rule="nonzero"/>
	<path d="M11.5171 0.048584C11.2871 0.148682 11.1685 0.408447 11.2241 0.69043C11.2427 0.794434 11.3018 0.879639 11.4468 1.01709C11.7065 1.26196 11.7769 1.40649 11.7769 1.68481C11.7769 1.98535 11.6768 2.1709 11.3911 2.38989C10.8755 2.78687 10.6118 3.3064 10.6118 3.92969C10.6118 4.44897 10.79 4.87939 11.1533 5.25415C11.5615 5.67358 11.8994 5.71069 12.1812 5.37671C12.3965 5.12427 12.3481 4.86084 12.0327 4.55664C11.7915 4.323 11.7251 4.18945 11.7251 3.92969C11.7251 3.68481 11.7915 3.52881 11.9663 3.37305C12.4819 2.90552 12.5488 2.8313 12.686 2.55298C13.0605 1.80737 12.9346 0.961426 12.3667 0.360352C12.0479 0.0263672 11.7881 -0.0700684 11.5171 0.048584Z" fill="#464646" fill-opacity="1.000000" fill-rule="nonzero"/>
	<path d="M14.2998 0.048584C14.0698 0.148682 13.9512 0.408447 14.0068 0.69043C14.0254 0.794434 14.0845 0.879639 14.2295 1.01709C14.4893 1.26196 14.5596 1.40649 14.5596 1.68481C14.5596 1.98535 14.4595 2.1709 14.1738 2.38989C13.6582 2.78687 13.3945 3.3064 13.3945 3.92969C13.3945 4.44897 13.5728 4.87939 13.936 5.25415C14.3442 5.67358 14.6821 5.71069 14.9639 5.37671C15.1792 5.12427 15.1309 4.86084 14.8154 4.55664C14.5742 4.323 14.5078 4.18945 14.5078 3.92969C14.5078 3.68481 14.5742 3.52881 14.749 3.37305C15.2646 2.90552 15.3315 2.8313 15.4688 2.55298C15.8433 1.80737 15.7173 0.961426 15.1494 0.360352C14.8306 0.0263672 14.5708 -0.0700684 14.2998 0.048584Z" fill="#464646" fill-opacity="1.000000" fill-rule="nonzero"/>
	<path d="M0.289551 4.5271C0.129883 4.60864 0 4.82764 0 5.00562C0 5.14673 0.107422 5.36548 0.241211 5.48804C0.519531 5.7439 0.831055 6.29321 0.990723 6.8125L1.09473 7.13916L1.11328 11.3318L1.13184 15.5244L1.2207 15.7842C1.48047 16.5671 1.98877 17.1646 2.68652 17.5059C3.12793 17.7249 3.39111 17.7842 3.91455 17.7842C4.44873 17.7878 4.69727 17.7285 5.19092 17.4873C5.61377 17.2795 6.06641 16.8677 6.28516 16.4929C6.36328 16.3594 6.43359 16.248 6.4375 16.248C6.44482 16.248 6.50781 16.5042 6.58594 16.812C6.66406 17.1238 6.76416 17.4502 6.81201 17.5317C6.979 17.825 6.63037 17.8064 11.751 17.8064C16.2476 17.8064 16.3032 17.8064 16.459 17.7322C16.5669 17.6765 16.6372 17.6099 16.6929 17.4985C16.8154 17.2537 19.0083 8.43018 18.9858 8.26343C18.9639 8.08521 18.8452 7.92578 18.6855 7.84766C18.5703 7.79199 17.9546 7.78833 11.7432 7.78833C5.53223 7.78833 4.91602 7.79199 4.80127 7.84766C4.6416 7.92578 4.52295 8.08521 4.50049 8.26343C4.48975 8.36353 4.65674 9.09448 5.09814 10.8569C5.43555 12.2112 5.71387 13.3242 5.71387 13.3354C5.71387 13.3464 4.93115 13.354 3.97021 13.354L2.22607 13.354L2.22607 10.3745C2.22607 7.98145 2.21533 7.32837 2.17432 7.04639C2.04834 6.21899 1.70654 5.48438 1.13525 4.80908C0.831055 4.45288 0.586426 4.36743 0.289551 4.5271ZM17.5908 9.44702L17.4536 9.99609L11.7432 9.99609L6.0332 9.99609L5.896 9.44702L5.7583 8.90161L11.7432 8.90161L17.728 8.90161L17.5908 9.44702ZM8.18115 11.2095C8.20752 11.3318 8.5708 14.3 8.5708 14.3892C8.5708 14.467 8.56006 14.467 7.8584 14.4597L7.146 14.4485L6.73047 12.7864L6.31494 11.1277L7.23877 11.1277L8.1626 11.1277L8.18115 11.2095ZM11.1685 12.7974L11.1685 14.467L10.4448 14.467C9.7251 14.467 9.72119 14.467 9.70264 14.3818C9.67676 14.2629 9.31299 11.2983 9.31299 11.2056C9.31299 11.1277 9.32764 11.1277 10.2407 11.1277L11.1685 11.1277L11.1685 12.7974ZM14.1367 11.2056C14.1367 11.2983 13.7729 14.2629 13.7471 14.3818C13.7285 14.467 13.7246 14.467 13.0049 14.467L12.2812 14.467L12.2812 12.7974L12.2812 11.1277L13.209 11.1277C14.1216 11.1277 14.1367 11.1277 14.1367 11.2056ZM16.7559 12.7864L16.3403 14.4485L15.6094 14.4597C14.8896 14.467 14.8784 14.467 14.8784 14.3892C14.8784 14.3 15.2422 11.3318 15.2681 11.2095L15.2866 11.1277L16.229 11.1277L17.1714 11.1277L16.7559 12.7864ZM5.60254 14.8196C5.60254 15.0088 5.58398 15.2573 5.56201 15.365C5.37988 16.2146 4.51904 16.8083 3.67676 16.6636C3.32471 16.6042 3.03516 16.4595 2.76416 16.2073C2.37451 15.8398 2.22607 15.4614 2.22607 14.8306L2.22607 14.467L3.91455 14.467L5.60254 14.467L5.60254 14.8196ZM15.9214 16.1255L15.7837 16.6748L11.7432 16.6748L7.70264 16.6748L7.56543 16.1255L7.42822 15.5801L11.7432 15.5801L16.0586 15.5801L15.9214 16.1255Z" fill="#464646" fill-opacity="1.000000" fill-rule="nonzero"/>
</svg>
