<svg width="24" height="24" viewBox="0 0 24 24" fill="none" xmlns="http://www.w3.org/2000/svg">
<path d="M12.0009 -0.000183105C8.74185 -0.000183105 8.33284 0.0140673 7.05283 0.0723179C5.77532 0.130819 4.90331 0.333071 4.1403 0.629824C3.35104 0.936327 2.68153 1.34633 2.01453 2.01359C1.34702 2.6806 0.937015 3.3501 0.629512 4.13911C0.332009 4.90237 0.129507 5.77463 0.0720065 7.05164C0.0147559 8.33166 -0.000244141 8.74091 -0.000244141 11.9999C-0.000244141 15.259 0.0142562 15.6667 0.0722568 16.9468C0.131007 18.2243 0.333259 19.0963 0.629763 19.8593C0.936516 20.6485 1.34652 21.318 2.01378 21.9851C2.68053 22.6526 3.35004 23.0636 4.1388 23.3701C4.90231 23.6668 5.77457 23.8691 7.05183 23.9276C8.33184 23.9858 8.7406 24.0001 11.9994 24.0001C15.2587 24.0001 15.6664 23.9858 16.9464 23.9276C18.2239 23.8691 19.097 23.6668 19.8605 23.3701C20.6495 23.0636 21.318 22.6526 21.9847 21.9851C22.6522 21.318 23.0622 20.6485 23.3697 19.8595C23.6648 19.0963 23.8673 18.224 23.9273 16.947C23.9848 15.667 23.9998 15.259 23.9998 11.9999C23.9998 8.74091 23.9848 8.33191 23.9273 7.05189C23.8673 5.77438 23.6648 4.90237 23.3697 4.13936C23.0622 3.3501 22.6522 2.6806 21.9847 2.01359C21.3172 1.34608 20.6497 0.936077 19.8597 0.629824C19.0947 0.333071 18.2222 0.130819 16.9447 0.0723179C15.6647 0.0140673 15.2572 -0.000183105 11.9971 -0.000183105H12.0009ZM10.9244 2.16234C11.2439 2.16184 11.6004 2.16234 12.0009 2.16234C15.2049 2.16234 15.5847 2.17384 16.8499 2.23134C18.0199 2.28484 18.6549 2.48034 19.078 2.6446C19.638 2.8621 20.0372 3.1221 20.457 3.54211C20.877 3.96211 21.137 4.36211 21.355 4.92212C21.5192 5.34462 21.715 5.97963 21.7682 7.14964C21.8257 8.41466 21.8382 8.79466 21.8382 11.9972C21.8382 15.1997 21.8257 15.5797 21.7682 16.8447C21.7147 18.0148 21.5192 18.6498 21.355 19.0723C21.1375 19.6323 20.877 20.031 20.457 20.4508C20.037 20.8708 19.6382 21.1308 19.078 21.3483C18.6554 21.5133 18.0199 21.7083 16.8499 21.7618C15.5849 21.8193 15.2049 21.8318 12.0009 21.8318C8.7966 21.8318 8.41684 21.8193 7.15183 21.7618C5.98182 21.7078 5.34681 21.5123 4.92356 21.348C4.36355 21.1305 3.96355 20.8705 3.54354 20.4505C3.12354 20.0305 2.86354 19.6315 2.64553 19.0713C2.48128 18.6488 2.28553 18.0138 2.23228 16.8437C2.17478 15.5787 2.16328 15.1987 2.16328 11.9942C2.16328 8.78966 2.17478 8.41166 2.23228 7.14664C2.28578 5.97663 2.48128 5.34162 2.64553 4.91862C2.86304 4.35861 3.12354 3.95861 3.54354 3.5386C3.96355 3.1186 4.36355 2.8586 4.92356 2.6406C5.34656 2.47559 5.98182 2.28059 7.15183 2.22684C8.25884 2.17684 8.68785 2.16184 10.9244 2.15934V2.16234ZM18.4064 4.15486C17.6114 4.15486 16.9664 4.79912 16.9664 5.59438C16.9664 6.38939 17.6114 7.03439 18.4064 7.03439C19.2015 7.03439 19.8465 6.38939 19.8465 5.59438C19.8465 4.79937 19.2015 4.15436 18.4064 4.15436V4.15486ZM12.0009 5.83738C8.59759 5.83738 5.83832 8.59666 5.83832 11.9999C5.83832 15.4032 8.59759 18.1613 12.0009 18.1613C15.4042 18.1613 18.1624 15.4032 18.1624 11.9999C18.1624 8.59666 15.4042 5.83738 12.0009 5.83738ZM12.0009 7.9999C14.2099 7.9999 16.0009 9.79067 16.0009 11.9999C16.0009 14.209 14.2099 16 12.0009 16C9.79161 16 8.00084 14.209 8.00084 11.9999C8.00084 9.79067 9.79161 7.9999 12.0009 7.9999Z" fill="black"/>
</svg>
