<svg width="24" height="24" viewBox="0 0 24 24" fill="none" xmlns="http://www.w3.org/2000/svg">
<path d="M12.0007 0C5.37673 0 0.000732422 5.376 0.000732422 12C0.000732422 18.624 5.37673 24 12.0007 24C18.6247 24 24.0007 18.624 24.0007 12C24.0007 5.376 18.6247 0 12.0007 0ZM17.5687 8.16C17.3887 10.056 16.6087 14.664 16.2127 16.788C16.0447 17.688 15.7087 17.988 15.3967 18.024C14.7007 18.084 14.1727 17.568 13.5007 17.124C12.4447 16.428 11.8447 15.996 10.8247 15.324C9.63673 14.544 10.4047 14.112 11.0887 13.416C11.2687 13.236 14.3407 10.44 14.4007 10.188C14.4091 10.1498 14.408 10.1102 14.3975 10.0726C14.387 10.0349 14.3676 10.0004 14.3407 9.972C14.2687 9.912 14.1727 9.936 14.0887 9.948C13.9807 9.972 12.3007 11.088 9.02473 13.296C8.54473 13.62 8.11273 13.788 7.72873 13.776C7.29673 13.764 6.48073 13.536 5.86873 13.332C5.11273 13.092 4.52473 12.96 4.57273 12.54C4.59673 12.324 4.89673 12.108 5.46073 11.88C8.96473 10.356 11.2927 9.348 12.4567 8.868C15.7927 7.476 16.4767 7.236 16.9327 7.236C17.0287 7.236 17.2567 7.26 17.4007 7.38C17.5207 7.476 17.5567 7.608 17.5687 7.704C17.5567 7.776 17.5807 7.992 17.5687 8.16Z" fill="black"/>
</svg>
