<svg width="24" height="24" viewBox="0 0 24 24" fill="none" xmlns="http://www.w3.org/2000/svg">
<path d="M20.5032 3.49206C19.3976 2.38078 18.0805 1.49967 16.629 0.90013C15.1775 0.300592 13.6206 -0.00537612 12.049 7.14833e-05C5.46405 7.14833e-05 0.097215 5.34005 0.097215 11.892C0.097215 13.992 0.651989 16.032 1.68917 17.832L0.000732422 24L6.33239 22.344C8.08113 23.292 10.047 23.796 12.049 23.796C18.6339 23.796 24.0007 18.456 24.0007 11.904C24.0007 8.72405 22.7585 5.73605 20.5032 3.49206ZM12.049 21.78C10.264 21.78 8.5153 21.3 6.98365 20.4L6.62184 20.184L2.85902 21.168L3.86003 17.52L3.61882 17.148C2.62716 15.5724 2.1006 13.7511 2.09922 11.892C2.09922 6.44405 6.56154 2.00407 12.0369 2.00407C14.6902 2.00407 17.1867 3.03606 19.056 4.90806C19.9816 5.82481 20.7151 6.91525 21.2141 8.11616C21.713 9.31707 21.9674 10.6046 21.9625 11.904C21.9867 17.352 17.5243 21.78 12.049 21.78ZM17.5002 14.388C17.1987 14.244 15.7274 13.524 15.462 13.416C15.1846 13.32 14.9917 13.272 14.7867 13.56C14.5816 13.86 14.0148 14.532 13.846 14.724C13.6771 14.928 13.4962 14.952 13.1947 14.796C12.8932 14.652 11.9284 14.328 10.7947 13.32C9.90224 12.528 9.31128 11.556 9.13038 11.256C8.96154 10.956 9.10626 10.8 9.26304 10.644C9.39571 10.512 9.56455 10.296 9.70927 10.128C9.854 9.96004 9.9143 9.82804 10.0108 9.63604C10.1073 9.43204 10.059 9.26404 9.98666 9.12004C9.9143 8.97605 9.31128 7.51205 9.07008 6.91205C8.82887 6.33605 8.57561 6.40805 8.3947 6.39605H7.81581C7.61078 6.39605 7.29721 6.46805 7.01983 6.76805C6.7545 7.06805 5.98264 7.78805 5.98264 9.25204C5.98264 10.716 7.05601 12.132 7.20073 12.324C7.34546 12.528 9.31128 15.528 12.3022 16.812C13.0138 17.124 13.5686 17.304 14.0027 17.436C14.7143 17.664 15.3656 17.628 15.8841 17.556C16.463 17.472 17.657 16.836 17.8982 16.14C18.1515 15.444 18.1515 14.856 18.0671 14.724C17.9826 14.592 17.8017 14.532 17.5002 14.388Z" fill="black"/>
</svg>
