<svg width="20.000000" height="14.000000" viewBox="0 0 20 14" fill="none" xmlns="http://www.w3.org/2000/svg" xmlns:xlink="http://www.w3.org/1999/xlink">
	<desc>
			Created with Pixso.
	</desc>
	<defs/>
	<path d="M16.6665 2.93018L8 2.93018L8 7.83911L7.07715 7.83911L7.07715 6.17065C7.07568 5.2251 6.69092 4.31885 6.00635 3.65015C5.32227 2.98169 4.39404 2.60571 3.42627 2.60474L1.3335 2.60474L1.3335 0L0 0L0 14L1.3335 14L1.3335 12.0569L18.6665 12.1924L18.6665 14L20 14L20 6.18604C19.999 5.32275 19.6475 4.49536 19.0225 3.88501C18.3975 3.27466 17.5503 2.93115 16.6665 2.93018ZM1.3335 3.90698L3.42627 3.90698C4.04053 3.90771 4.62939 4.14624 5.06396 4.5708C5.49854 4.99512 5.74268 5.57031 5.74365 6.17041L5.74365 7.83911L1.3335 7.83911L1.3335 3.90698ZM18.6665 10.8901L1.3335 10.7546L1.3335 9.14136L18.6665 9.14136L18.6665 10.8901ZM18.6665 7.83911L9.3335 7.83911L9.3335 4.23267L16.6665 4.23267C17.1968 4.23315 17.7051 4.43921 18.0801 4.80542C18.4551 5.17163 18.666 5.66821 18.6665 6.18604L18.6665 7.83911Z" fill="#464646" fill-opacity="1.000000" fill-rule="nonzero"/>
</svg>
