<svg width="18.000000" height="17.969971" viewBox="0 0 18 17.97" fill="none" xmlns="http://www.w3.org/2000/svg" xmlns:xlink="http://www.w3.org/1999/xlink">
	<desc>
			Created with Pixso.
	</desc>
	<defs/>
	<path d="M5.48438 0.0844727C5.48438 0.214355 5.41406 0.386719 5.24902 0.650391C5.00293 1.04761 4.93945 1.27979 4.94287 1.77539C4.94629 2.28174 4.98145 2.40112 5.25586 2.88623C5.38965 3.11841 5.46338 3.29053 5.47754 3.39258L5.49512 3.55078L6.02246 3.55078L6.5498 3.55078L6.52832 3.32935C6.49707 3.00586 6.42285 2.79834 6.19824 2.4082L5.99414 2.05664L5.99414 1.75781C5.99414 1.45898 5.99414 1.45557 6.17334 1.16016C6.39502 0.787598 6.49316 0.527344 6.5249 0.231934L6.5498 0L6.01514 0L5.48438 0L5.48438 0.0844727Z" fill="#464646" fill-opacity="1.000000" fill-rule="nonzero"/>
	<path d="M8.54297 0.123291C8.54297 0.256836 8.49023 0.376221 8.2832 0.720947C8.0791 1.05493 8.00879 1.3291 8.00879 1.75806C8.00879 2.20801 8.07227 2.43652 8.33203 2.88647C8.44482 3.08325 8.52197 3.2627 8.53613 3.36816L8.56055 3.53345L9.08105 3.54395L9.59766 3.55444L9.59766 3.36108C9.59766 3.09399 9.49609 2.79858 9.271 2.39771C8.97217 1.87402 8.96875 1.62793 9.25342 1.14966C9.46094 0.801758 9.56982 0.506348 9.59082 0.235596L9.6084 0.000244141L9.07422 0.000244141L8.54297 0.000244141L8.54297 0.123291Z" fill="#464646" fill-opacity="1.000000" fill-rule="nonzero"/>
	<path d="M11.6226 0.151123C11.6084 0.239014 11.5239 0.432373 11.4258 0.601074C11.1235 1.10742 11.0952 1.21289 11.0952 1.75781C11.0952 2.29932 11.1196 2.39062 11.4258 2.91797C11.5347 3.10791 11.6084 3.28711 11.6226 3.38916L11.647 3.55078L12.1743 3.55078L12.7017 3.55078L12.6772 3.32568C12.6455 3.02002 12.5508 2.76318 12.3325 2.38013C12.1606 2.0813 12.1465 2.03906 12.1357 1.79297C12.1216 1.5083 12.1113 1.53979 12.4595 0.906982C12.5825 0.682129 12.688 0.309326 12.6914 0.0949707L12.6914 0L12.1675 0L11.6436 0L11.6226 0.151123Z" fill="#464646" fill-opacity="1.000000" fill-rule="nonzero"/>
	<path d="M0 5.51978C0 6.39526 0.0244141 6.58496 0.179199 6.91211C0.327148 7.22485 0.50293 7.41113 0.90332 7.68188C0.910645 7.68555 1.11084 9.9812 1.35352 12.7832C1.59619 15.585 1.7998 17.8984 1.81055 17.9194C1.83154 17.9863 16.1685 17.9863 16.1895 17.9229C16.2002 17.8984 16.4038 15.585 16.6465 12.7832C16.8892 9.9812 17.0894 7.68555 17.0967 7.68188C17.4971 7.41113 17.6729 7.22485 17.8208 6.91211C17.9756 6.58496 18 6.39526 18 5.51978L18 4.71118L9 4.71118L0 4.71118L0 5.51978ZM16.9385 6.0752C16.9277 6.34253 16.9136 6.40576 16.833 6.52881C16.7764 6.61328 16.6782 6.70117 16.5869 6.74683L16.4321 6.82056L9 6.82056L1.56787 6.82056L1.41309 6.74683C1.32178 6.70117 1.22363 6.61328 1.16699 6.52881C1.08643 6.40576 1.07227 6.34253 1.06152 6.0752L1.04785 5.76587L9 5.76587L16.9521 5.76587L16.9385 6.0752ZM3.97607 11.0217C4.12744 12.7444 4.25732 14.249 4.26807 14.3687L4.29248 14.5901L3.42773 14.5901C2.95312 14.5901 2.56641 14.5796 2.56641 14.5691C2.56641 14.5549 2.43994 13.0854 2.28516 11.2996C2.13037 9.51709 2.00391 8.01587 2.00391 7.9668L2.00391 7.87524L2.85449 7.88232L3.70898 7.89282L3.97607 11.0217ZM6.60938 7.94556C6.60938 8.07227 6.92236 14.1436 6.93994 14.3721L6.95752 14.5901L6.15234 14.5901C5.70605 14.5901 5.34375 14.5867 5.34375 14.5796C5.34375 14.5762 5.21729 13.1101 5.0625 11.3242C4.90771 9.53809 4.78125 8.03345 4.78125 7.97729L4.78125 7.87524L5.69531 7.87524C6.5918 7.87524 6.60938 7.87524 6.60938 7.94556ZM9.98438 7.8999C9.98438 8.01245 9.66455 14.2 9.64697 14.3687L9.62598 14.5901L8.82422 14.5901L8.01904 14.5901L8.00146 14.4038C7.98389 14.2561 7.66406 8.06519 7.66406 7.91748C7.66406 7.88574 7.9209 7.87524 8.82422 7.87524C9.46387 7.87524 9.98438 7.88574 9.98438 7.8999ZM13.2188 7.97363C13.2188 8.02637 13.0923 9.53467 12.9375 11.3206C12.7827 13.1101 12.6562 14.5762 12.6562 14.5796C12.6562 14.5867 12.2134 14.5901 11.6719 14.5901L10.6875 14.5901L10.7085 14.3369C10.7261 14.0979 11.0391 8.03003 11.0391 7.92456C11.0391 7.88232 11.2256 7.87524 12.1289 7.87524L13.2188 7.87524L13.2188 7.97363ZM15.9961 7.9668C15.9961 8.01587 15.8696 9.51709 15.7148 11.2996C15.5601 13.0854 15.4336 14.5549 15.4336 14.5691C15.4336 14.5796 15.0435 14.5901 14.5688 14.5901L13.7041 14.5901L13.7251 14.439C13.7354 14.3582 13.8657 12.8674 14.0132 11.1272C14.1611 9.38696 14.2876 7.94214 14.2944 7.91748C14.3018 7.88574 14.5054 7.87524 15.1523 7.87524L15.9961 7.87524L15.9961 7.9668ZM4.43311 16.26C4.46143 16.5869 4.479 16.8682 4.47168 16.8823C4.46484 16.8999 4.08154 16.9104 3.62109 16.9104L2.78076 16.9104L2.76318 16.7593C2.73535 16.5659 2.67188 15.8242 2.67188 15.7222L2.67188 15.6448L3.52637 15.6519L4.37695 15.6624L4.43311 16.26ZM7.01025 15.8276C7.02051 15.9297 7.03809 16.2144 7.05225 16.4604L7.07324 16.9104L6.31396 16.9104L5.55811 16.9104L5.54053 16.7944C5.51611 16.6538 5.44922 15.8594 5.44922 15.7363L5.44922 15.6448L6.21924 15.6448L6.99268 15.6448L7.01025 15.8276ZM9.56592 15.9788C9.55908 16.1511 9.54492 16.4287 9.53418 16.594L9.50977 16.8928L8.83105 16.9033C8.30762 16.9104 8.15283 16.9033 8.13867 16.8682C8.11768 16.8015 8.05762 15.7012 8.0752 15.6694C8.08594 15.6553 8.42676 15.6484 8.83496 15.6519L9.57666 15.6624L9.56592 15.9788ZM12.5508 15.7363C12.5508 15.8523 12.4839 16.6467 12.4595 16.7944L12.4419 16.9104L11.5103 16.9104L10.5752 16.9104L10.5962 16.4253C10.6104 16.1616 10.6279 15.877 10.6382 15.7925L10.6558 15.6448L11.605 15.6448L12.5508 15.6448L12.5508 15.7363ZM15.3281 15.7222C15.3281 15.8242 15.2646 16.5659 15.2368 16.7593L15.2192 16.9104L14.3823 16.9104C13.9219 16.9104 13.5386 16.9033 13.5317 16.8965C13.5142 16.8789 13.6021 15.7607 13.623 15.687C13.6338 15.6553 13.8374 15.6448 14.4844 15.6448L15.3281 15.6448L15.3281 15.7222Z" fill="#464646" fill-opacity="1.000000" fill-rule="nonzero"/>
</svg>
