<svg width="21.000000" height="19.500000" viewBox="0 0 21 19.5" fill="none" xmlns="http://www.w3.org/2000/svg" xmlns:xlink="http://www.w3.org/1999/xlink">
	<desc>
			Created with Pixso.
	</desc>
	<defs/>
	<path id="Vector" d="M20.25 8.35791L20.25 12.644C20.25 13.7798 19.4028 14.7441 18.27 14.8369C17.9302 14.8638 17.5898 14.8892 17.25 14.9092L17.25 18L14.25 15C12.9082 15 11.5674 14.9458 10.23 14.8369C9.94141 14.8135 9.66064 14.7314 9.40479 14.5952C8.70996 14.2241 8.25 13.481 8.25 12.644L8.25 8.35791C8.25 7.22314 9.09521 6.25977 10.2261 6.16602C12.9043 5.94385 15.5957 5.94385 18.2739 6.16602C18.4355 6.1792 18.5957 6.21143 18.75 6.26123C19.6338 6.54492 20.25 7.38916 20.25 8.35791ZM18.75 6.26123L18.75 4.38721C18.75 2.76611 17.5981 1.36084 15.9902 1.15186C13.9209 0.883789 11.8364 0.749512 9.75 0.75C7.63477 0.75 5.55176 0.887207 3.50977 1.15186C1.90186 1.36084 0.75 2.76611 0.75 4.38721L0.75 10.6128C0.75 12.2339 1.90186 13.6392 3.50977 13.8481C4.08691 13.9229 4.66699 13.9878 5.25 14.042L5.25 18.75L9.40479 14.5952" stroke="#FFFFFF" stroke-opacity="1.000000" stroke-width="1.500000" stroke-linejoin="round"/>
</svg>
